<svg xmlns="http://www.w3.org/2000/svg" width="43.507" height="32" viewBox="0 0 43.507 32">
  <g id="book-images" transform="translate(-208.6 -260.098)">
    <path id="Path_5137" data-name="Path 5137" d="M208.611,263.183c.352-.488.885-.363,1.361-.363.647-.011.647,0,.647-.647v-1.236c0-.624.238-.839.9-.839h13.794c.76,0,1.531.011,2.291,0a3.21,3.21,0,0,1,2.462,1.044c.2.2.318.238.533.011a3.374,3.374,0,0,1,2.586-1.055c5.3.011,10.583,0,15.881.011.817,0,1,.181,1,1,0,.442.011.873,0,1.316-.011.318.113.431.42.408a7.866,7.866,0,0,1,.9,0,.682.682,0,0,1,.726.715c.011.125,0,.25,0,.386V291.02c0,.93-.159,1.078-1.089,1.078H209.621a1.144,1.144,0,0,1-1.021-.374Q208.617,277.448,208.611,263.183Zm40.054,11.548q0-6.347.011-12.693c0-.4-.1-.533-.522-.533-2.178.023-4.356.011-6.534.011h-8.315a2.056,2.056,0,0,0-2,1.112,2.567,2.567,0,0,0-.238,1.236V288.23c-.011.227.045.329.284.181a3.725,3.725,0,0,1,2.03-.465c4.866.011,9.733,0,14.6,0,.681,0,.681,0,.681-.692Zm-36.571,0v12.523c0,.7,0,.7.681.7h14.089a4.384,4.384,0,0,1,2.541.488c.159.1.238.045.238-.136v-24.4a2.1,2.1,0,0,0-2.371-2.382H212.706c-.613,0-.613,0-.613.647Zm-2.087,2.677c0,4.254,0,8.519-.011,12.773,0,.363.091.488.476.488q9.29-.017,18.592-.011c.113,0,.25.057.318-.057s-.045-.238-.113-.34a2.126,2.126,0,0,0-1.94-.907H211.663c-.873,0-1.032-.17-1.032-1.044V264.465c0-.216-.159-.238-.329-.238s-.284.034-.284.227v.386Q210,271.135,210.007,277.408Zm40.7.091V264.51c0-.2-.091-.272-.284-.272-.442-.023-.329.306-.329.533v23.64c0,.76-.2.964-.953.964H233.317a2.134,2.134,0,0,0-1.815.828c-.091.113-.25.25-.159.408.079.125.261.057.4.057h18.422c.556,0,.556,0,.556-.567C250.707,285.9,250.707,281.7,250.707,277.5Z" fill="#544abd"/>
    <path id="Path_5138" data-name="Path 5138" d="M430.874,290h5.853c.7,0,.964.227.964.93.011,2.768.011,5.547,0,8.315,0,.771-.261,1.01-1.032,1.01H424.987c-.771,0-.987-.216-.987-.976v-8.315c0-.737.227-.953.964-.953C426.938,290,428.912,290,430.874,290Zm5.275,7.146c.034-.011.057-.034.091-.045,0-1.736-.011-3.471.011-5.218,0-.386-.125-.476-.488-.476-3.256.011-6.5.011-9.755,0-.42,0-.533.136-.522.533.011,1.962,0,3.936.011,5.9,0,1.168-.136.953.987,1a.944.944,0,0,0,.93-.476c.544-.839,1.134-1.656,1.724-2.473.431-.613.953-.613,1.407-.011.136.181.261.363.4.556.284.408.284.408.567.011.476-.669.941-1.339,1.429-2a.73.73,0,0,1,1.27-.011c.181.216.329.454.5.681C435.173,295.808,435.661,296.477,436.149,297.146Zm-.59,1.69c-.658-.919-1.248-1.736-1.826-2.564-.136-.193-.238-.147-.352.023-.533.76-1.078,1.52-1.622,2.269-.136.182-.1.272.136.272Zm-6.727,0c.261,0,.431-.011.6,0,.465.057.59-.34.771-.613.17-.25-.125-.4-.216-.578s-.2-.159-.318-.011C429.411,298.008,429.15,298.383,428.832,298.837Z" transform="translate(-190.966 -26.51)" fill="#544abd"/>
    <path id="Path_5139" data-name="Path 5139" d="M430.951,397.9h5.9c.669,0,.93.238.941.919.011,2.79.011,5.57,0,8.36,0,.749-.272.976-1.021.976H425.053c-.737,0-.953-.216-.953-.964v-8.315c0-.749.216-.964.953-.964C427.015,397.9,428.989,397.9,430.951,397.9Zm5.286,7.135a.228.228,0,0,0,.091-.045c0-1.736-.011-3.471.011-5.218,0-.374-.125-.476-.488-.476-3.256.011-6.5.011-9.755,0-.408,0-.533.125-.533.533.011,1.951.011,3.9.011,5.853,0,1.032,0,1.021,1.032,1.044a.891.891,0,0,0,.873-.442c.567-.862,1.168-1.7,1.77-2.541a.751.751,0,0,1,1.35-.011c.136.181.261.363.4.556.318.442.306.442.613.023.454-.647.907-1.293,1.384-1.928a.747.747,0,0,1,1.327-.011c.17.227.329.454.5.692C435.285,403.708,435.761,404.377,436.237,405.035Zm-.59,1.69c-.658-.919-1.259-1.758-1.849-2.586-.136-.181-.227-.1-.318.034-.544.76-1.078,1.52-1.622,2.269-.159.227-.068.284.159.284Zm-6.681-.057a1.52,1.52,0,0,0,.579.068c.465.045.579-.352.749-.635.147-.238-.147-.4-.238-.579s-.2-.125-.295,0C429.5,405.9,429.239,406.271,428.966,406.668Z" transform="translate(-191.055 -122.171)" fill="#544abd"/>
    <path id="Path_5140" data-name="Path 5140" d="M263.195,300.254h-5.853c-.726,0-.941-.216-.941-.93v-8.405c0-.7.216-.919.907-.919h11.831c.669,0,.9.227.9.885v8.439c0,.692-.227.919-.907.919C267.154,300.254,265.168,300.254,263.195,300.254Zm5.433-2.961v-5.547c0-.363-.227-.318-.454-.318-3.29,0-6.591.011-9.88-.011-.386,0-.476.125-.476.488.011,1.962.011,3.936.011,5.9,0,1.032,0,1.01,1.055,1.044a.931.931,0,0,0,.9-.476c.567-.851,1.157-1.679,1.747-2.507a.753.753,0,0,1,1.373,0c.159.216.318.431.454.658.159.25.284.25.454,0,.442-.647.9-1.27,1.35-1.906.533-.737,1.032-.737,1.565,0C267.335,295.49,267.936,296.341,268.628,297.294Zm-.7,1.531c-.647-.9-1.236-1.724-1.826-2.552-.181-.25-.272-.068-.374.068-.556.771-1.1,1.543-1.645,2.314-.034.057-.1.113-.011.17Zm-6.715.011a4.456,4.456,0,0,0,.794-.011c.34-.068.476-.4.59-.669.1-.25-.182-.408-.318-.6-.068-.1-.147-.034-.2.034C261.811,297.986,261.539,298.371,261.21,298.836Z" transform="translate(-42.378 -26.51)" fill="#544abd"/>
    <path id="Path_5141" data-name="Path 5141" d="M263.172,408.143h-5.853c-.7,0-.919-.216-.919-.907V398.8c0-.669.216-.9.885-.9h11.877c.658,0,.885.227.885.9V407.2c0,.737-.216.941-.976.941Zm5.456-2.961c0-1.928-.011-3.732,0-5.524,0-.374-.227-.352-.476-.352-3.278,0-6.556.011-9.846-.011-.386,0-.51.1-.51.5.023,1.951.011,3.9.011,5.853,0,1.066,0,1.044,1.066,1.078a.93.93,0,0,0,.9-.488c.579-.862,1.168-1.7,1.77-2.541a.726.726,0,0,1,1.293-.011c.17.227.34.454.488.692.159.261.284.306.476.011.42-.624.862-1.225,1.3-1.838.579-.817,1.066-.817,1.633-.011C267.358,403.413,267.948,404.241,268.628,405.182Zm-.7,1.52c-.635-.885-1.225-1.713-1.815-2.541-.113-.147-.2-.181-.318-.011-.59.839-1.191,1.667-1.826,2.552Zm-6.715.023h.681c.431,0,.544-.374.692-.647.147-.25-.17-.408-.284-.613-.068-.113-.159-.079-.227.011C261.811,405.874,261.539,406.26,261.21,406.725Z" transform="translate(-42.378 -122.171)" fill="#544abd"/>
    <path id="Path_5142" data-name="Path 5142" d="M449.652,314.79a.726.726,0,0,1-1.452.011.727.727,0,0,1,1.452-.011Z" transform="translate(-212.421 -47.874)" fill="#544abd"/>
    <path id="Path_5143" data-name="Path 5143" d="M449.652,422.612a.718.718,0,0,1-.76.692.73.73,0,0,1-.692-.715.718.718,0,0,1,.76-.692A.707.707,0,0,1,449.652,422.612Z" transform="translate(-212.421 -143.446)" fill="#544abd"/>
    <path id="Path_5144" data-name="Path 5144" d="M281.827,314.8a.7.7,0,0,1-.7.7.707.707,0,0,1-.726-.715.7.7,0,0,1,.7-.692A.673.673,0,0,1,281.827,314.8Z" transform="translate(-63.653 -47.874)" fill="#544abd"/>
    <path id="Path_5145" data-name="Path 5145" d="M281.829,422.5a.7.7,0,0,1-.681.715.717.717,0,0,1-.749-.7.7.7,0,0,1,.681-.715A.691.691,0,0,1,281.829,422.5Z" transform="translate(-63.655 -143.357)" fill="#544abd"/>
  </g>
</svg>
