<?xml version="1.0" encoding="utf-8"?>
<!-- Generator: Adobe Illustrator 27.5.0, SVG Export Plug-In . SVG Version: 6.00 Build 0)  -->
<svg version="1.1" id="Capa_1" xmlns="http://www.w3.org/2000/svg" xmlns:xlink="http://www.w3.org/1999/xlink" x="0px" y="0px"
	 viewBox="0 0 211 129.1" style="enable-background:new 0 0 211 129.1;" xml:space="preserve">
<style type="text/css">
	.st0{fill:#133F69;}
	.st1{fill:none;}
	.st2{fill:#D9D6D6;}
	.st3{fill:#087CBD;}
	.st4{fill:#F7C531;}
	.st5{fill:#FECD38;}
	.st6{fill:#1C3866;}
	.st7{fill:#EFBF2F;}
	.st8{fill:#FFFFFF;}
	.st9{fill:#0077B1;}
	.st10{clip-path:url(#SVGID_00000003791558577587080600000017369019467884939912_);}
	.st11{clip-path:url(#SVGID_00000067930699537477142820000010733664664338119594_);}
	.st12{clip-path:url(#SVGID_00000049222303242420651040000012699452048605908927_);}
	.st13{clip-path:url(#SVGID_00000183247675464830259450000006797842017104462514_);}
	.st14{clip-path:url(#SVGID_00000172411507090330415230000014093202384031645346_);}
	.st15{clip-path:url(#SVGID_00000059993896401459097570000015868932094222888611_);}
	.st16{clip-path:url(#SVGID_00000082329844982209629160000007901374522275334576_);}
	.st17{clip-path:url(#SVGID_00000139254708958455619730000013131573701084088737_);}
	.st18{clip-path:url(#SVGID_00000112624129119555918430000006072774714631835538_);}
	.st19{clip-path:url(#SVGID_00000054977394029109840900000006672097881645788330_);}
	.st20{clip-path:url(#SVGID_00000020369597111310147740000005139721650779700408_);}
	.st21{clip-path:url(#SVGID_00000091003113501727140780000013841802514050299042_);}
	.st22{clip-path:url(#SVGID_00000155110250684896193150000002153995374371685261_);}
	.st23{clip-path:url(#SVGID_00000059273863031604302000000003247833256803989156_);}
	.st24{clip-path:url(#SVGID_00000003082842545327835640000015817341510758190213_);}
	.st25{clip-path:url(#SVGID_00000179619166055533466970000002439785184468973236_);}
	.st26{clip-path:url(#SVGID_00000130604503264786373210000014050038391028079272_);}
	.st27{clip-path:url(#SVGID_00000118378903560078610210000015106104184025545886_);}
	.st28{clip-path:url(#SVGID_00000131357917255730138050000003189804628287662759_);}
	.st29{clip-path:url(#SVGID_00000044895591538997882650000000645412994557233067_);}
	.st30{clip-path:url(#SVGID_00000018229333975084944860000013788862105582430889_);}
	.st31{clip-path:url(#SVGID_00000081644649725658665080000001553576729572720052_);}
	.st32{clip-path:url(#SVGID_00000148659107541396420530000014347168452115013519_);}
	.st33{clip-path:url(#SVGID_00000038394641710892899750000008594149825567781510_);}
	.st34{clip-path:url(#SVGID_00000181089366337391785230000006132312561631312055_);}
	.st35{clip-path:url(#SVGID_00000063631508575832890220000010644104823413244839_);}
	.st36{clip-path:url(#SVGID_00000092418807486301708370000005002529963675960246_);}
	.st37{clip-path:url(#SVGID_00000110456454344674679960000016748177289448910243_);}
	.st38{clip-path:url(#SVGID_00000120557057027556370930000002891971935879995570_);}
	.st39{clip-path:url(#SVGID_00000064339633627623303410000011204964364922523304_);}
	.st40{clip-path:url(#SVGID_00000041283315003863635070000004760982243775078832_);}
	.st41{clip-path:url(#SVGID_00000142176353681784543540000017064436401189588123_);}
	.st42{clip-path:url(#SVGID_00000088097211621352469000000008921534818574566571_);}
	.st43{fill:#A4A1A1;}
	.st44{fill:#F4C230;}
	.st45{fill:#F4F4F6;}
	.st46{fill:#743E74;}
	.st47{fill:#143B64;}
	.st48{fill:#787777;}
	.st49{fill:#B3B4B3;}
	.st50{fill:#EFBF2F;enable-background:new    ;}
	.st51{fill:#325D86;}
</style>
<g>
	<g id="Grupo_1344" transform="translate(84.927 27.537)">
		<g>
			<defs>
				<rect id="SVGID_1_" x="-26.3" y="-16.2" width="96.1" height="96.9"/>
			</defs>
			<clipPath id="SVGID_00000104688602542204664480000002245982314499213184_">
				<use xlink:href="#SVGID_1_"  style="overflow:visible;"/>
			</clipPath>
			<g id="Grupo_386" style="clip-path:url(#SVGID_00000104688602542204664480000002245982314499213184_);">
				<g id="Grupo_385">
					<g>
						<defs>
							<rect id="SVGID_00000178191074768524345820000008588161093546754719_" x="-26.3" y="-16.2" width="96.1" height="96.9"/>
						</defs>
						<clipPath id="SVGID_00000169554479111352060010000009224502151373256370_">
							<use xlink:href="#SVGID_00000178191074768524345820000008588161093546754719_"  style="overflow:visible;"/>
						</clipPath>
						<g id="Grupo_384" style="clip-path:url(#SVGID_00000169554479111352060010000009224502151373256370_);">
							<path id="Trazado_118" class="st1" d="M8.9,21.1c0,0.4,0,0.8,0,1.2c1.7-1.4,3.2-3,4.4-4.8c6.6-10,3.9-23.4-6.1-30
								s-23.4-3.9-30,6.1c-6.3,9.6-4.1,22.4,5,29.3c0-1.2,0-2.3,0.2-3.5c0.8-2.9,3.5-4.9,6.5-4.9c0.8,0,1.6,0,2.4,0
								c0.1,0.8,0.1,1.5,0,2.3c-0.2,1.5,0.5,2.2,1.6,3c1.9,1.3,3.4,1.4,5.1-0.1c0-0.1,0-0.1,0-0.2c1.1-0.2,1.8-1.2,1.6-2.3
								c0,0,0-0.1,0-0.1c-0.1-0.9-0.1-1.7,0-2.6c1.7,0,3.4-0.2,5.1,0.5C7.4,16.1,8.9,18.5,8.9,21.1"/>
							<g id="Grupo_285" transform="translate(39.806 7.854)">
								<g id="Grupo_284">
									<g>
										<defs>
											<rect id="SVGID_00000039096827870992554280000016635752162740323246_" x="-26.3" y="-16.2" width="12.6" height="7.8"/>
										</defs>
										<clipPath id="SVGID_00000110470064258877290930000009526046009970130616_">
											<use xlink:href="#SVGID_00000039096827870992554280000016635752162740323246_"  style="overflow:visible;"/>
										</clipPath>
										<g id="Grupo_283" style="clip-path:url(#SVGID_00000110470064258877290930000009526046009970130616_);">
											<path id="Trazado_119" class="st1" d="M-13.7-13.2c-0.3-0.6-0.5-1.3-0.8-1.9c-0.2-0.4-0.1-0.9-0.7-1l-11.1,4.7
												c0.5,1,0.9,2,1.3,3.1C-21.7-9.8-17.1-11.8-13.7-13.2"/>
										</g>
									</g>
								</g>
							</g>
							<path id="Trazado_120" class="st1" d="M61.3,19.8c-1-2-2.4-3.8-4.1-5.3c-0.2-0.2-0.5-0.4-0.8-0.6c-4.2-3.2-9.7-4.3-14.8-2.8
								c-0.1,0-0.2,0.1-0.3,0.1c-1.1,0.3-2.1,0.8-3,1.3c-2.6,1.4-4.8,3.5-6.3,6.1c-1.2,1.9-1.9,4.1-2.2,6.3C29,31,31.5,37,36.5,40.6
								c0,0,0-0.1,0-0.1c0.1-1.3-0.1-2.5,0.5-3.7c0.8-1.7,2.6-2.8,4.5-2.8c0.6,0,1.1,0,1.7,0c0,0.4,0.1,0.8,0,1.1
								c-0.3,1.7,0.4,2.7,2,3.2c0.8,0.3,1.5,0.8,2.4,0.2c0-0.1,0-0.1,0-0.2c2.3-0.9,2.3-0.9,2.3-3.3c0-0.4,0-0.8,0-1.1
								c0.9-0.1,1.8,0,2.7,0.1c2.4,0.5,4.1,2.7,4,5.1c0,0.4,0,0.7,0,1.1l0,0c2.1-1.6,3.7-3.7,4.9-6C63.6,29.7,63.6,24.4,61.3,19.8"
								/>
							<g id="Grupo_288" transform="translate(50.927)">
								<g id="Grupo_287">
									<g>
										<defs>
											<rect id="SVGID_00000173849217977778430800000009132649195969389193_" x="-26.3" y="-16.2" width="13.6" height="13.3"/>
										</defs>
										<clipPath id="SVGID_00000087399810990056528660000007826716916493582000_">
											<use xlink:href="#SVGID_00000173849217977778430800000009132649195969389193_"  style="overflow:visible;"/>
										</clipPath>
										<g id="Grupo_286" style="clip-path:url(#SVGID_00000087399810990056528660000007826716916493582000_);">
											<path id="Trazado_121" class="st1" d="M-26.3-8.3c0.4-0.3,0.3-0.8,0.3-1.2c0-3.7,3-6.7,6.6-6.7c3.7,0,6.7,3,6.7,6.6
												c0,1.8-0.7,3.6-2.1,4.9c-0.2,0.2-0.6,0.4-0.6,0.8l-3.1,1c-0.7,0-1.4,0-2.1-0.1c-1.6-0.4-3-1.2-4.1-2.4
												c-0.3-0.6-0.5-1.3-0.8-1.9C-25.8-7.7-25.8-8.2-26.3-8.3 M-19.4-12.8c-1.8,0-3.3,1.5-3.3,3.3c0,0,0,0.1,0,0.1
												c0,1.8,1.5,3.3,3.3,3.3c1.8,0,3.3-1.5,3.3-3.3c0,0,0-0.1,0-0.1C-16.1-11.4-17.6-12.8-19.4-12.8"/>
										</g>
									</g>
								</g>
							</g>
							<g id="Grupo_291" transform="translate(86.157 8.309)">
								<g id="Grupo_290">
									<g>
										<defs>
											<rect id="SVGID_00000046318576241459507200000003292769724284557200_" x="-26.3" y="-16.2" width="10" height="10"/>
										</defs>
										<clipPath id="SVGID_00000109709730401433604930000012194296465929457053_">
											<use xlink:href="#SVGID_00000046318576241459507200000003292769724284557200_"  style="overflow:visible;"/>
										</clipPath>
										<g id="Grupo_289" style="clip-path:url(#SVGID_00000109709730401433604930000012194296465929457053_);">
											<path id="Trazado_122" class="st1" d="M-25.3-7.8c-0.2-0.7-0.7-1.3-0.9-2.1c-0.7-2.7,0.9-5.4,3.6-6.1
												c2.7-0.7,5.4,0.9,6.1,3.6c0.7,2.7-0.9,5.4-3.6,6.1c-0.4,0.1-0.8,0.2-1.2,0.2c-0.4,0-0.8,0-1.1,0
												C-23.4-6.7-24.4-7.2-25.3-7.8 M-19.7-11.3c-0.1-0.9-0.9-1.6-1.8-1.5S-23.1-12-23-11c0.1,0.8,0.8,1.5,1.6,1.5
												c0.9,0,1.7-0.7,1.7-1.7C-19.7-11.2-19.7-11.2-19.7-11.3"/>
										</g>
									</g>
								</g>
							</g>
							<path id="Trazado_123" class="st1" d="M14.7,56.7C10.6,48.4,0.6,45-7.7,49.1c-8.3,4.1-11.7,14.1-7.6,22.4
								c1.2,2.4,3,4.5,5.1,6.1c0-0.9,0-1.7,0.1-2.6c0.5-2.3,2.5-4,4.9-3.9c0.6,0,1.1,0,1.7,0c0,0.4,0,0.8,0,1.1
								c-0.3,1.7,0.4,2.7,2,3.2c0.8,0.3,1.5,0.8,2.4,0.2c0.3,0.2,0.6,0.4,0.9,0.6c-0.3-0.2-0.6-0.4-0.9-0.6c0-0.1,0-0.1,0-0.2
								c2.3-0.9,2.3-0.9,2.3-3.3c0-0.4,0-0.8,0-1.1c0.9,0,1.7,0,2.6,0.1c2.4,0.4,4.1,2.6,4.1,5.1c0,0.4,0,0.7,0,1.1
								c2.1-1.6,3.7-3.7,4.9-6C17,66.6,16.9,61.3,14.7,56.7"/>
							<g id="Grupo_294" transform="translate(4.263 58.002)">
								<g id="Grupo_293">
									<g>
										<defs>
											<rect id="SVGID_00000137812474826457155230000018080325578453607318_" x="-26.3" y="-16.2" width="6.7" height="6.7"/>
										</defs>
										<clipPath id="SVGID_00000126311040025212029810000004500592975001113262_">
											<use xlink:href="#SVGID_00000137812474826457155230000018080325578453607318_"  style="overflow:visible;"/>
										</clipPath>
										<g id="Grupo_292" style="clip-path:url(#SVGID_00000126311040025212029810000004500592975001113262_);">
											<path id="Trazado_124" class="st1" d="M-19.6-11.8c-0.6,0.9-1.4,1.7-2.3,2.3c-0.7,0-1.4-0.1-2.1-0.2
												c-1.8-0.6-2.7-2.4-2.2-4.2c0.5-1.5,1.9-2.4,3.4-2.3c1.7,0.1,3,1.5,3.1,3.2C-19.7-12.6-19.7-12.2-19.6-11.8 M-24.7-12.8
												c0,0.9,0.8,1.7,1.7,1.6c0.9,0,1.7-0.8,1.6-1.7c0-0.9-0.8-1.7-1.7-1.6c0,0,0,0,0,0C-24-14.5-24.7-13.7-24.7-12.8
												C-24.7-12.8-24.7-12.8-24.7-12.8"/>
										</g>
									</g>
								</g>
							</g>
							<path id="Trazado_125" class="st1" d="M-8.5,14.1c0,0.4,0,0.8-0.1,1.2c0.1,0.8,0.1,1.5,0,2.3c-0.2,1.5,0.5,2.2,1.6,3
								c1.9,1.3,3.4,1.4,5.1-0.1c0-0.1,0-0.1,0-0.2c1.1-0.2,1.8-1.2,1.6-2.3c0,0,0-0.1,0-0.1c-0.1-0.9-0.1-1.7,0-2.6
								c0-0.5,0-1,0-1.5c1.2-1,2-2.4,2.3-3.9c0.2-1.5,0.2-3.1,0.1-4.6l0-3.3H-11c0,2.3,0,4.6,0,6.8c0,1.2,0.3,2.4,1,3.4
								C-9.5,12.9-9,13.5-8.5,14.1"/>
							<g id="Grupo_297" transform="translate(19.627 42.838)">
								<g id="Grupo_296">
									<g>
										<defs>
											<rect id="SVGID_00000001646623002407835090000016062322545058626460_" x="-26.3" y="-16.2" width="8.4" height="22.8"/>
										</defs>
										<clipPath id="SVGID_00000099637879367491940120000008321122175698592425_">
											<use xlink:href="#SVGID_00000001646623002407835090000016062322545058626460_"  style="overflow:visible;"/>
										</clipPath>
										<g id="Grupo_295" style="clip-path:url(#SVGID_00000099637879367491940120000008321122175698592425_);">
											<path id="Trazado_126" class="st1" d="M-24.3-15.7c-0.7,0-1.4,0-2-0.1c0.1,1.1,0.2,2.7,0.2,3c0.5,6.1,1.1,13.2,1.6,19.4
												c2.2-0.6,4.4-0.8,6.6-0.5c-0.5-6.3-1.2-15.7-1.8-22.3C-21.2-15.8-22.8-15.7-24.3-15.7"/>
										</g>
									</g>
								</g>
							</g>
							<g id="Grupo_300" transform="translate(8.099 61.905)">
								<g id="Grupo_299">
									<g>
										<defs>
											<rect id="SVGID_00000143619416373000987630000015875605799542508725_" x="-26.3" y="-16.2" width="8.5" height="8.4"/>
										</defs>
										<clipPath id="SVGID_00000107580221413343800170000007733147349885597601_">
											<use xlink:href="#SVGID_00000143619416373000987630000015875605799542508725_"  style="overflow:visible;"/>
										</clipPath>
										<g id="Grupo_298" style="clip-path:url(#SVGID_00000107580221413343800170000007733147349885597601_);">
											<path id="Trazado_127" class="st1" d="M-17.8-10.1c-1.9-1.9-4.4-4.3-6.2-6.1c-0.6,0.9-1.4,1.7-2.3,2.3
												c1.8,1.8,4.2,4.2,6.1,6.1C-19.6-8.6-18.7-9.4-17.8-10.1"/>
										</g>
									</g>
								</g>
							</g>
							<g id="Grupo_303" transform="translate(40.145 84.252)">
								<g id="Grupo_302">
									<g>
										<defs>
											<rect id="SVGID_00000125572893708953804020000011964157550764407998_" x="-26.3" y="-16.2" width="20.1" height="12.3"/>
										</defs>
										<clipPath id="SVGID_00000113340624870687877870000006927667693042897577_">
											<use xlink:href="#SVGID_00000125572893708953804020000011964157550764407998_"  style="overflow:visible;"/>
										</clipPath>
										<g id="Grupo_301" style="clip-path:url(#SVGID_00000113340624870687877870000006927667693042897577_);">
											<path id="Trazado_128" class="st1" d="M-6.4-10c-0.6-2.7-3.3-4.4-6-3.7c-0.1,0-0.3,0.1-0.4,0.1c-0.8,0.4-1.6,0.9-2.4,1.4
												c-3-1.2-6.8-2.8-10-4c-0.3,1.1-0.6,2.1-1.1,3.2c3.2,1.2,7.1,2.8,10.1,4c0,0.2,0,0.3,0,0.5c0.2,2.7,2.6,4.8,5.3,4.7
												C-8.2-4-6.1-6.4-6.3-9.2C-6.3-9.4-6.4-9.7-6.4-10 M-11.3-7.2c-0.9,0-1.6-0.8-1.6-1.7c0-0.9,0.8-1.6,1.7-1.6
												c0.9,0,1.6,0.7,1.6,1.6c0,0.9-0.7,1.6-1.6,1.7C-11.2-7.2-11.3-7.2-11.3-7.2"/>
										</g>
									</g>
								</g>
							</g>
							<path id="Trazado_129" class="st1" d="M-3.4,71c0,0.3,0,0.7,0,1c0,0.4,0,0.8,0,1.1c-0.3,1.7,0.4,2.7,2,3.2
								c0.8,0.3,1.5,0.8,2.4,0.2c0-0.1,0-0.1,0-0.2c2.3-0.9,2.3-0.9,2.3-3.3c0-0.4,0-0.8,0-1.1c-0.1-0.5,0-1,0.2-1.5 M3.4,70.6
								c0.9-0.9,1.4-2.1,1.5-3.4c0-1.1,0-2.3,0-3.4c0-0.6,0-1.1,0-1.7h-10c0,1.3,0.1,2.6,0,3.9c-0.2,1.8,0.4,3.7,1.7,5"/>
							<path id="Trazado_130" class="st1" d="M31.5-12.8c1.8,0,3.3,1.5,3.3,3.3c0,1.8-1.4,3.3-3.2,3.4c0,0-0.1,0-0.1,0
								c-1.8,0-3.3-1.5-3.3-3.3C28.1-11.3,29.6-12.8,31.5-12.8C31.4-12.8,31.5-12.8,31.5-12.8"/>
							<path id="Trazado_131" class="st1" d="M66.5-3c0,0.9-0.7,1.7-1.6,1.8c0,0-0.1,0-0.1,0c-0.9,0-1.6-0.8-1.6-1.7
								c0-0.9,0.8-1.6,1.7-1.6C65.7-4.5,66.4-3.8,66.5-3"/>
							<path id="Trazado_132" class="st1" d="M30.5,75.4c0,0.9-0.7,1.7-1.6,1.7c-0.9,0-1.7-0.7-1.7-1.6c0-0.9,0.7-1.7,1.6-1.7
								c0,0,0,0,0.1,0C29.8,73.7,30.5,74.5,30.5,75.4C30.5,75.4,30.5,75.4,30.5,75.4"/>
							<path id="Trazado_133" class="st1" d="M56.5,58.8c0,0.9-0.7,1.7-1.7,1.7c-0.9,0-1.7-0.7-1.7-1.7c0-0.9,0.7-1.7,1.7-1.7
								c0,0,0,0,0.1,0C55.8,57.1,56.5,57.9,56.5,58.8"/>
							<path id="Trazado_134" class="st1" d="M-20.4,45.2c0-0.9,0.7-1.7,1.6-1.7c0.9,0,1.7,0.7,1.7,1.6c0,0.9-0.7,1.7-1.6,1.7
								c0,0,0,0-0.1,0C-19.7,46.8-20.4,46.1-20.4,45.2"/>
							<g id="Grupo_306" transform="translate(21.214 72.253)">
								<g id="Grupo_305">
									<g>
										<defs>
											<rect id="SVGID_00000088117678956163210410000017311856954390498196_" x="-26.3" y="-16.2" width="10" height="6.7"/>
										</defs>
										<clipPath id="SVGID_00000181791803499685201930000001276316416143807160_">
											<use xlink:href="#SVGID_00000088117678956163210410000017311856954390498196_"  style="overflow:visible;"/>
										</clipPath>
										<g id="Grupo_304" style="clip-path:url(#SVGID_00000181791803499685201930000001276316416143807160_);">
											<path id="Trazado_135" class="st1" d="M-16.4-9.5h-10c0-1.7,0-3.4,0-5c0-1.6,0-1.6,1.7-1.6c0,2.2,1.5,4.1,3.6,4.7
												c1.5,0.5,3,0.1,4.5,0.2C-16.4-10.6-16.3-10.1-16.4-9.5"/>
										</g>
									</g>
								</g>
							</g>
							<g id="Grupo_309" transform="translate(22.87 72.229)">
								<g id="Grupo_308">
									<g>
										<defs>
											<rect id="SVGID_00000062190232964647847640000017979917165425996446_" x="-26.3" y="-16.2" width="8.1" height="5"/>
										</defs>
										<clipPath id="SVGID_00000095322459628516206350000010527832390425506452_">
											<use xlink:href="#SVGID_00000062190232964647847640000017979917165425996446_"  style="overflow:visible;"/>
										</clipPath>
										<g id="Grupo_307" style="clip-path:url(#SVGID_00000095322459628516206350000010527832390425506452_);">
											<path id="Trazado_136" class="st1" d="M-18.2-11.1c-1.5-0.1-3,0.2-4.5-0.2c-2.1-0.6-3.5-2.6-3.6-4.7
												c1.9-0.3,3.8,0.1,5.4,1.1C-19.6-14.1-18.6-12.7-18.2-11.1"/>
										</g>
									</g>
								</g>
							</g>
							<g id="Grupo_312" transform="translate(16.177 87.202)">
								<g id="Grupo_311">
									<g>
										<defs>
											<rect id="SVGID_00000127734880000951878950000003760957204295928200_" x="-26.3" y="-16.2" width="19.5" height="9.7"/>
										</defs>
										<clipPath id="SVGID_00000085220554784690775310000000095478890612102036_">
											<use xlink:href="#SVGID_00000127734880000951878950000003760957204295928200_"  style="overflow:visible;"/>
										</clipPath>
										<g id="Grupo_310" style="clip-path:url(#SVGID_00000085220554784690775310000000095478890612102036_);">
											<path id="Trazado_137" class="st1" d="M-15.3-11.6c-0.9,0.6-1.6,0.1-2.4-0.2c-1.6-0.6-2.3-1.5-2-3.2c0-0.4,0-0.8,0-1.1
												c-0.6,0-1.1,0-1.7,0c-2.4,0-4.4,1.6-4.9,3.9c-0.1,0.9-0.2,1.7-0.1,2.6c5.8,4.2,13.6,4.3,19.5,0.2c-1.3,0-2.6,0-3.8-0.1
												C-12.4-9.8-14-10.5-15.3-11.6"/>
										</g>
									</g>
								</g>
							</g>
							<g id="Grupo_315" transform="translate(27.241 87.204)">
								<g id="Grupo_314">
									<g>
										<defs>
											<rect id="SVGID_00000076562373008526688520000012519600943209815987_" x="-26.3" y="-16.2" width="9" height="6.7"/>
										</defs>
										<clipPath id="SVGID_00000163778344613975760100000003963565729494248895_">
											<use xlink:href="#SVGID_00000076562373008526688520000012519600943209815987_"  style="overflow:visible;"/>
										</clipPath>
										<g id="Grupo_313" style="clip-path:url(#SVGID_00000163778344613975760100000003963565729494248895_);">
											<path id="Trazado_138" class="st1" d="M-21.4-16.1c-0.9-0.1-1.7-0.1-2.6-0.1c0,0.4,0,0.8,0,1.1c0,2.4,0,2.4-2.3,3.3
												c0,0.1,0,0.1,0,0.2c0.3,0.2,0.6,0.4,0.9,0.6c0.4,0.3,0.8,0.5,1.3,0.7c0.6,0.3,1.1,0.5,1.8,0.6c0.2,0,0.4,0.1,0.6,0.1h0
												c0.3,0,0.7,0,1,0.1l0.2,0c0.9,0,1.7,0,2.6,0l0,0c0.2-0.1,0.4-0.3,0.6-0.5c0-0.4,0-0.7,0-1.1
												C-17.3-13.5-19-15.6-21.4-16.1"/>
										</g>
									</g>
								</g>
							</g>
							<g id="Grupo_318" transform="translate(79.507 16.658)">
								<g id="Grupo_317">
									<g>
										<defs>
											<rect id="SVGID_00000078003427539096761910000002688116874050115457_" x="-26.3" y="-16.2" width="10.6" height="14.3"/>
										</defs>
										<clipPath id="SVGID_00000055691290281201313460000015280318629496743552_">
											<use xlink:href="#SVGID_00000078003427539096761910000002688116874050115457_"  style="overflow:visible;"/>
										</clipPath>
										<g id="Grupo_316" style="clip-path:url(#SVGID_00000055691290281201313460000015280318629496743552_);">
											<path id="Trazado_139" class="st1" d="M-15.8-14.6c-1-0.5-2-1-2.9-1.6c-2.3,3.7-5.4,8.8-7.7,12.6c1,0.5,2,1.1,2.9,1.8
												C-21.2-5.6-18.1-10.8-15.8-14.6"/>
										</g>
									</g>
								</g>
							</g>
							<g id="Grupo_321" transform="translate(58.676 12.28)">
								<g id="Grupo_320">
									<g>
										<defs>
											<rect id="SVGID_00000032608693941453972980000001999119408798393266_" x="-26.3" y="-16.2" width="9.5" height="17.4"/>
										</defs>
										<clipPath id="SVGID_00000024706920895591300190000010361102146245709953_">
											<use xlink:href="#SVGID_00000032608693941453972980000001999119408798393266_"  style="overflow:visible;"/>
										</clipPath>
										<g id="Grupo_319" style="clip-path:url(#SVGID_00000024706920895591300190000010361102146245709953_);">
											<path id="Trazado_140" class="st1" d="M-23.2-16.2l-3.1,1c2,5.1,4.5,11.3,6.4,16.4c1-0.5,2-1,3-1.3
												C-18.8-5-21.3-11.2-23.2-16.2"/>
										</g>
									</g>
								</g>
							</g>
							<path id="Trazado_141" class="st1" d="M51.5,30c0-1.1,0-2.3,0-3.4c0-0.6,0-1.1,0-1.7h-10c0,1.3,0.1,2.6,0,3.9
								c-0.2,1.8,0.4,3.7,1.7,5c0,0.3,0,0.7-0.1,1c0,0.4,0.1,0.8,0,1.1c-0.3,1.7,0.4,2.7,2,3.2c0.8,0.3,1.5,0.8,2.4,0.2
								c0-0.1,0-0.1,0-0.2c2.3-0.9,2.3-0.9,2.3-3.3c0-0.4,0-0.8,0-1.1c-0.1-0.5,0-1,0.2-1.5C50.9,32.5,51.5,31.3,51.5,30"/>
							<g id="Grupo_324" transform="translate(62.804 50.195)">
								<g id="Grupo_323">
									<g>
										<defs>
											<rect id="SVGID_00000079462065173996950020000016968798997561048241_" x="-26.3" y="-16.2" width="19.6" height="9.8"/>
										</defs>
										<clipPath id="SVGID_00000157290582207503889860000002914474158071729295_">
											<use xlink:href="#SVGID_00000079462065173996950020000016968798997561048241_"  style="overflow:visible;"/>
										</clipPath>
										<g id="Grupo_322" style="clip-path:url(#SVGID_00000157290582207503889860000002914474158071729295_);">
											<path id="Trazado_142" class="st1" d="M-8.3-9.5c-2.5,0.2-5-0.5-7-2.1c-0.9,0.6-1.6,0.1-2.4-0.2c-1.6-0.6-2.3-1.5-2-3.2
												c0-0.4,0-0.8,0-1.1c-0.6,0-1.1,0-1.7,0c-1.9,0-3.7,1-4.5,2.8c-0.7,1.2-0.4,2.5-0.5,3.7c0,0,0,0.1,0,0.1l0,0c0,0,0,0,0,0
												c5.8,4.2,13.6,4.2,19.4,0.1c0,0,0.1,0,0.1-0.1C-7.3-9.6-7.8-9.6-8.3-9.5"/>
										</g>
									</g>
								</g>
							</g>
							<g id="Grupo_327" transform="translate(73.859 50.179)">
								<g id="Grupo_326">
									<g>
										<defs>
											<rect id="SVGID_00000137111779659222315660000001223724649801167798_" x="-26.3" y="-16.2" width="9" height="6.7"/>
										</defs>
										<clipPath id="SVGID_00000082328699680746439200000010682175303052361628_">
											<use xlink:href="#SVGID_00000137111779659222315660000001223724649801167798_"  style="overflow:visible;"/>
										</clipPath>
										<g id="Grupo_325" style="clip-path:url(#SVGID_00000082328699680746439200000010682175303052361628_);">
											<path id="Trazado_143" class="st1" d="M-21.3-16c-0.9-0.1-1.8-0.2-2.7-0.1c0,0.4,0,0.8,0,1.1c0,2.4,0,2.4-2.3,3.3
												c0,0.1,0,0.1,0,0.2c0.8,0.6,1.6,1,2.4,1.4c1.4,0.6,3,0.8,4.6,0.7c0.1,0,0.3,0,0.4,0c0.1,0,0.2,0,0.3,0h0.1
												c0.1,0,0.2,0,0.3,0l0,0c0.1,0,0.2,0,0.3,0.1l0,0c0.2-0.1,0.3-0.2,0.5-0.4c0-0.4,0-0.7,0-1.1
												C-17.3-13.3-18.9-15.5-21.3-16"/>
										</g>
									</g>
								</g>
							</g>
							<g id="Grupo_330" transform="translate(67.839 35.062)">
								<g id="Grupo_329">
									<g>
										<defs>
											<rect id="SVGID_00000024697309798654942190000004447095574172902815_" x="-26.3" y="-16.2" width="10" height="6.7"/>
										</defs>
										<clipPath id="SVGID_00000092429875038208153080000001456306564003167383_">
											<use xlink:href="#SVGID_00000024697309798654942190000004447095574172902815_"  style="overflow:visible;"/>
										</clipPath>
										<g id="Grupo_328" style="clip-path:url(#SVGID_00000092429875038208153080000001456306564003167383_);">
											<path id="Trazado_144" class="st1" d="M-16.4-9.5h-10c0-1.7,0-3.4,0-5c0-1.6,0-1.6,1.7-1.6c0,2.2,1.5,4.1,3.6,4.7
												c1.5,0.5,3,0.1,4.5,0.2C-16.4-10.6-16.3-10.1-16.4-9.5"/>
										</g>
									</g>
								</g>
							</g>
							<g id="Grupo_333" transform="translate(69.495 35.038)">
								<g id="Grupo_332">
									<g>
										<defs>
											<rect id="SVGID_00000083786082182618988530000001737473958645299094_" x="-26.3" y="-16.2" width="8.1" height="5"/>
										</defs>
										<clipPath id="SVGID_00000008854707814206306270000002837891472012330885_">
											<use xlink:href="#SVGID_00000083786082182618988530000001737473958645299094_"  style="overflow:visible;"/>
										</clipPath>
										<g id="Grupo_331" style="clip-path:url(#SVGID_00000008854707814206306270000002837891472012330885_);">
											<path id="Trazado_145" class="st1" d="M-18.3-11.1c-1.5-0.1-3,0.2-4.5-0.2c-2.1-0.6-3.5-2.6-3.6-4.7
												c1.9-0.3,3.8,0.1,5.4,1.1C-19.6-14.1-18.6-12.7-18.3-11.1"/>
										</g>
									</g>
								</g>
							</g>
							<g id="Grupo_336" transform="translate(35.736 51.051)">
								<g id="Grupo_335">
									<g>
										<defs>
											<rect id="SVGID_00000088094242022538087640000016042834853816323201_" x="-26.3" y="-16.2" width="28.1" height="23.1"/>
										</defs>
										<clipPath id="SVGID_00000094614566269562895270000016650295221677846155_">
											<use xlink:href="#SVGID_00000088094242022538087640000016042834853816323201_"  style="overflow:visible;"/>
										</clipPath>
										<g id="Grupo_334" style="clip-path:url(#SVGID_00000094614566269562895270000016650295221677846155_);">
											<path id="Trazado_146" class="st1" d="M-2.8-16.2c-1.9,1.4-4.7,3.7-6.6,5.1c-4.5,3.4-12.2,9.3-16.9,12.8
												c1.7,1.5,3.1,3.2,4.1,5.3C-15.7,2-4.9-6.2,1.8-11.2l0,0C-0.1-12.5-1.6-14.2-2.8-16.2"/>
										</g>
									</g>
								</g>
							</g>
							<g id="Grupo_339" transform="translate(76.157 69.905)">
								<g id="Grupo_338">
									<g>
										<defs>
											<rect id="SVGID_00000102526543013360832360000001635815062080534408_" x="-26.3" y="-16.2" width="10" height="10"/>
										</defs>
										<clipPath id="SVGID_00000026850047558359318540000005801693004906296204_">
											<use xlink:href="#SVGID_00000102526543013360832360000001635815062080534408_"  style="overflow:visible;"/>
										</clipPath>
										<g id="Grupo_337" style="clip-path:url(#SVGID_00000026850047558359318540000005801693004906296204_);">
											<path id="Trazado_147" class="st1" d="M-20.9-16.1c2.1,0.2,3.9,1.6,4.4,3.7c0.6,1.9-0.1,3.9-1.6,5.1
												c-2.1,1.7-5.3,1.4-7-0.7c-1.5-1.8-1.5-4.5,0-6.3c0.3-0.4,0.9-0.6,0.9-1.2C-23.1-15.6-22.1-16.3-20.9-16.1 M-19.7-11.1
												c0-0.9-0.7-1.7-1.7-1.7s-1.7,0.7-1.7,1.7c0,0.9,0.7,1.6,1.6,1.7c0.9,0,1.7-0.7,1.7-1.6C-19.7-11.1-19.7-11.1-19.7-11.1"
												/>
										</g>
									</g>
								</g>
							</g>
							<g id="Grupo_342" transform="translate(75.487 58.922)">
								<g id="Grupo_341">
									<g>
										<defs>
											<rect id="SVGID_00000024711715506409164980000010389734477384551060_" x="-26.3" y="-16.2" width="6.1" height="11.6"/>
										</defs>
										<clipPath id="SVGID_00000176030301562694276390000009612303044601542541_">
											<use xlink:href="#SVGID_00000024711715506409164980000010389734477384551060_"  style="overflow:visible;"/>
										</clipPath>
										<g id="Grupo_340" style="clip-path:url(#SVGID_00000176030301562694276390000009612303044601542541_);">
											<path id="Trazado_148" class="st1" d="M-23.1-15.9l-0.1-0.2c-1,0.4-2.1,0.7-3.2,0.9l0.1,0.3c0.9,3.5,1.8,7,2.7,10.5
												c1.1,0,2.1-0.8,3.3-0.6C-21.2-8.7-22.2-12.4-23.1-15.9"/>
										</g>
									</g>
								</g>
							</g>
							<path id="Trazado_149" class="st1" d="M-2.2,27c-0.1,0-0.2,0-0.3,0L-2.2,27"/>
							<path id="Trazado_151" class="st1" d="M-1.1,26.9l-0.2,0L-1.1,26.9"/>
							<path id="Trazado_152" class="st1" d="M-3.3,27.1c-0.1,0-0.2,0-0.3,0C-3.5,27.1-3.4,27.1-3.3,27.1"/>
							<g id="Grupo_345" transform="translate(24.159 43.069)">
								<g id="Grupo_344">
									<g>
										<defs>
											<rect id="SVGID_00000065040345243757748880000000177267055917395865_" x="-26.3" y="-16.2" width="0.8" height="0.1"/>
										</defs>
										<clipPath id="SVGID_00000158004789763043300620000014144996646874887072_">
											<use xlink:href="#SVGID_00000065040345243757748880000000177267055917395865_"  style="overflow:visible;"/>
										</clipPath>
										<g id="Grupo_343" style="clip-path:url(#SVGID_00000158004789763043300620000014144996646874887072_);">
											<path id="Trazado_153" class="st1" d="M-25.5-16.2c-0.3,0-0.6,0.1-0.8,0.1C-26.1-16.1-25.8-16.1-25.5-16.2"/>
										</g>
									</g>
								</g>
							</g>
							<g id="Grupo_348" transform="translate(20.647 43.304)">
								<g id="Grupo_347">
									<g>
										<defs>
											<rect id="SVGID_00000081647184276485370260000013410307773463684494_" x="-26.3" y="-16.2" width="1" height="0"/>
										</defs>
										<clipPath id="SVGID_00000050620863623365070640000012579927950560209561_">
											<use xlink:href="#SVGID_00000081647184276485370260000013410307773463684494_"  style="overflow:visible;"/>
										</clipPath>
										<g id="Grupo_346" style="clip-path:url(#SVGID_00000050620863623365070640000012579927950560209561_);">
											<path id="Trazado_154" class="st1" d="M-25.3-16.1c-0.3,0-0.7,0-1,0C-26-16.2-25.7-16.1-25.3-16.1"/>
										</g>
									</g>
								</g>
							</g>
							<g id="Grupo_351" transform="translate(23.054 43.215)">
								<g id="Grupo_350">
									<g>
										<defs>
											<rect id="SVGID_00000175286001943367076760000010406531643472341933_" x="-26.3" y="-16.2" width="0.8" height="0.1"/>
										</defs>
										<clipPath id="SVGID_00000067197164446721729180000009139449407572955532_">
											<use xlink:href="#SVGID_00000175286001943367076760000010406531643472341933_"  style="overflow:visible;"/>
										</clipPath>
										<g id="Grupo_349" style="clip-path:url(#SVGID_00000067197164446721729180000009139449407572955532_);">
											<path id="Trazado_155" class="st1" d="M-25.5-16.2c-0.3,0-0.5,0-0.8,0.1C-26.1-16.1-25.8-16.1-25.5-16.2"/>
										</g>
									</g>
								</g>
							</g>
							<g id="Grupo_354" transform="translate(21.665 43.3)">
								<g id="Grupo_353">
									<g>
										<defs>
											<rect id="SVGID_00000177452451581696370930000001852083025582850462_" x="-26.3" y="-16.2" width="1.1" height="0"/>
										</defs>
										<clipPath id="SVGID_00000056387472237341030340000000086063198609126830_">
											<use xlink:href="#SVGID_00000177452451581696370930000001852083025582850462_"  style="overflow:visible;"/>
										</clipPath>
										<g id="Grupo_352" style="clip-path:url(#SVGID_00000056387472237341030340000000086063198609126830_);">
											<path id="Trazado_156" class="st1" d="M-25.3-16.2c-0.4,0-0.7,0-1.1,0C-26-16.1-25.6-16.2-25.3-16.2"/>
										</g>
									</g>
								</g>
							</g>
							<g id="Grupo_358" transform="translate(19.627 43.231)">
								<g id="Grupo_357">
									<g>
										<defs>
											<rect id="SVGID_00000046338773303513053890000008093206148569733804_" x="-26.3" y="-16.2" width="1" height="0.1"/>
										</defs>
										<clipPath id="SVGID_00000103251311645141599390000005585727033586200507_">
											<use xlink:href="#SVGID_00000046338773303513053890000008093206148569733804_"  style="overflow:visible;"/>
										</clipPath>
										<g id="Grupo_356" style="clip-path:url(#SVGID_00000103251311645141599390000005585727033586200507_);">
											<path id="Trazado_157" class="st1" d="M-25.4-16.1c-0.3,0-0.7,0-1-0.1"/>
										</g>
									</g>
								</g>
							</g>
							<g id="Grupo_361" transform="translate(25.217 42.838)">
								<g id="Grupo_360">
									<g>
										<defs>
											<rect id="SVGID_00000034784122087726816830000003220205948933199018_" x="-26.3" y="-16.2" width="1" height="0.2"/>
										</defs>
										<clipPath id="SVGID_00000053531522176355715810000012402137019258787204_">
											<use xlink:href="#SVGID_00000034784122087726816830000003220205948933199018_"  style="overflow:visible;"/>
										</clipPath>
										<g id="Grupo_359" style="clip-path:url(#SVGID_00000053531522176355715810000012402137019258787204_);">
											<path id="Trazado_158" class="st1" d="M-25.3-16.2c-0.3,0.1-0.7,0.1-1,0.2"/>
										</g>
									</g>
								</g>
							</g>
							<g id="Grupo_371" transform="translate(8.633 30.624)">
								<g id="Grupo_370">
									<g>
										<defs>
											<rect id="SVGID_00000083805135429270867450000015508307911569939585_" x="-26.3" y="-16.2" width="26.7" height="12.7"/>
										</defs>
										<clipPath id="SVGID_00000038407899052228284850000011253675667602566327_">
											<use xlink:href="#SVGID_00000083805135429270867450000015508307911569939585_"  style="overflow:visible;"/>
										</clipPath>
										<g id="Grupo_369" style="clip-path:url(#SVGID_00000038407899052228284850000011253675667602566327_);">
											<path id="Trazado_161" class="st1" d="M-4-9.5c-0.6,0-1.1,0-1.7-0.1c-0.3,0-0.6-0.1-0.9-0.1c-0.2,0-0.3-0.1-0.5-0.1
												c-0.3-0.1-0.7-0.2-1-0.3c-0.8-0.3-1.6-0.6-2.4-0.9c-1.7,1.5-3.2,1.4-5.1,0.1c-1.2-0.8-1.9-1.5-1.6-3
												c0.1-0.8,0.1-1.5,0-2.3c-0.8,0-1.6,0-2.4,0c-3-0.1-5.7,1.9-6.5,4.9c-0.2,1.1-0.3,2.3-0.2,3.5c0.4,0.3,0.7,0.5,1.1,0.8
												c0.1,0,0.1,0.1,0.2,0.1c0.4,0.2,0.7,0.5,1.1,0.7l0.2,0.1c0.4,0.2,0.8,0.4,1.2,0.6l0.1,0c0.4,0.2,0.9,0.4,1.3,0.6h0
												c0.4,0.2,0.9,0.3,1.3,0.5l0.1,0c0.5,0.1,0.9,0.3,1.4,0.4l0.1,0c1,0.2,2,0.4,3,0.5c0.3,0,0.7,0.1,1,0.1h0c0.3,0,0.7,0,1,0
												c0.4,0,0.7,0,1.1,0c0.1,0,0.2,0,0.3,0c0.3,0,0.5,0,0.8-0.1c0.1,0,0.2,0,0.3,0c0.3,0,0.6-0.1,0.8-0.1l0.2,0
												c0.3-0.1,0.7-0.1,1-0.2c0.4-0.1,0.8-0.2,1.2-0.3l0.1,0C-7-4.4-6.7-4.5-6.3-4.6l0.2-0.1C-5.4-4.9-4.7-5.2-4-5.6l0.2-0.1
												C-3.5-5.8-3.2-6-2.9-6.1c0.1,0,0.1-0.1,0.2-0.1c0.3-0.2,0.7-0.4,1-0.6c0.1,0,0.1-0.1,0.2-0.1C-1.3-7.1-1-7.3-0.8-7.5
												c0.1-0.1,0.2-0.1,0.3-0.2c0.3-0.2,0.6-0.4,0.9-0.7c0-0.4,0-0.8,0-1.2C-1.1-9.6-2.6-9.5-4-9.5"/>
										</g>
									</g>
								</g>
							</g>
							<g id="Grupo_374" transform="translate(24.512 30.626)">
								<g id="Grupo_373">
									<g>
										<defs>
											<rect id="SVGID_00000006696497619304765570000002276534478437193091_" x="-26.3" y="-16.2" width="10.8" height="6.7"/>
										</defs>
										<clipPath id="SVGID_00000059267760900219293390000005222659232960673214_">
											<use xlink:href="#SVGID_00000006696497619304765570000002276534478437193091_"  style="overflow:visible;"/>
										</clipPath>
										<g id="Grupo_372" style="clip-path:url(#SVGID_00000059267760900219293390000005222659232960673214_);">
											<path id="Trazado_162" class="st1" d="M-23.9-10.1c0.3,0.1,0.7,0.2,1,0.3c0.2,0,0.3,0.1,0.5,0.1c0.3,0,0.6,0.1,0.9,0.1
												c0.6,0,1.1,0.1,1.7,0.1c1.4,0,2.9-0.1,4.3,0c0-2.7-1.6-5.1-4-6.1c-1.7-0.7-3.4-0.5-5.1-0.5c-0.1,0.9-0.1,1.7,0,2.6
												c0.3,1.1-0.4,2.2-1.5,2.4c0,0-0.1,0-0.1,0c0,0.1,0,0.1,0,0.2C-25.5-10.7-24.7-10.3-23.9-10.1"/>
										</g>
									</g>
								</g>
							</g>
							<g id="Grupo_377" transform="translate(15.301 11.713)">
								<g id="Grupo_376">
									<g>
										<defs>
											<rect id="SVGID_00000116940912241232397920000015849363698006334133_" x="-26.3" y="-16.2" width="13.3" height="7.5"/>
										</defs>
										<clipPath id="SVGID_00000118364478636871352920000009398039646178493372_">
											<use xlink:href="#SVGID_00000116940912241232397920000015849363698006334133_"  style="overflow:visible;"/>
										</clipPath>
										<g id="Grupo_375" style="clip-path:url(#SVGID_00000118364478636871352920000009398039646178493372_);">
											<path id="Trazado_163" class="st1" d="M-13-8.7h-13.3c-0.1-2.1,0-4.1,1.4-5.8c0.6-0.7,1.3-1.3,2.1-1.7
												c0.3,0.1,0.4,0.5,0.5,0.7c0.8,1.8,2.1,3.2,3.7,4.1c1.7,0.8,3.6,1.1,5.5,1C-13-9.8-13-9.2-13-8.7"/>
										</g>
									</g>
								</g>
							</g>
							<g id="Grupo_380" transform="translate(18.853 10.867)">
								<g id="Grupo_379">
									<g>
										<defs>
											<rect id="SVGID_00000181056136386208764090000011631032991533975984_" x="-26.3" y="-16.2" width="9.8" height="6.7"/>
										</defs>
										<clipPath id="SVGID_00000010307336343221904240000011322483768589041078_">
											<use xlink:href="#SVGID_00000181056136386208764090000011631032991533975984_"  style="overflow:visible;"/>
										</clipPath>
										<g id="Grupo_378" style="clip-path:url(#SVGID_00000010307336343221904240000011322483768589041078_);">
											<path id="Trazado_164" class="st1" d="M-16.6-9.5c-1.9,0.2-3.8-0.2-5.5-1c-1.7-0.9-3-2.4-3.7-4.1
												c-0.1-0.3-0.2-0.6-0.5-0.7c3.2-1.7,7.2-0.6,9,2.6C-16.9-11.7-16.6-10.6-16.6-9.5"/>
										</g>
									</g>
								</g>
							</g>
							<g id="Grupo_383" transform="translate(38.343 26.886)">
								<g id="Grupo_382">
									<g>
										<defs>
											<rect id="SVGID_00000039813060324218399080000009742325352056891035_" x="-26.3" y="-16.2" width="21.2" height="14.6"/>
										</defs>
										<clipPath id="SVGID_00000082357960124458924870000014932612974870217134_">
											<use xlink:href="#SVGID_00000039813060324218399080000009742325352056891035_"  style="overflow:visible;"/>
										</clipPath>
										<g id="Grupo_381" style="clip-path:url(#SVGID_00000082357960124458924870000014932612974870217134_);">
											<path id="Trazado_165" class="st1" d="M-5.2-7.8c-5.3-2.4-13.1-6-18.4-8.4c-0.6,2.1-1.5,4.2-2.8,6
												c5.5,2.5,13.5,6.2,19,8.6C-7.1-3.7-6.3-5.9-5.2-7.8"/>
										</g>
									</g>
								</g>
							</g>
						</g>
					</g>
				</g>
			</g>
		</g>
	</g>
	<g id="Grupo_574" transform="translate(49.864 14.308)">
		<path id="Trazado_356" class="st0" d="M122.1,58.1c-0.6-4.1-1.1-8.2-1.6-12.3c-0.5-4.5-0.9-9.1-1.2-13.6
			c-0.2-3.6-1.1-7.1-2.7-10.3c-4.6-9-14.6-11.9-22.9-9.6c-1.6,0.3-3,0.9-4.4,1.7c-5.3,2.9-8.3,7.6-9.7,13.4
			c-0.9,3.8-0.9,7.8-1.3,11.7c-0.6,6.3-1.2,12.7-2.2,19c-0.3,0.9,0.1,1.8,1,2.2h0.1c3.1,1.5,6.4,2.8,9.8,3.7c0.8-0.2,1.7-0.5,2.4-1
			c1.1-0.5,1.8-1.7,1.8-2.9c0-0.7,0.1-1.4,0.1-2.1c-0.2-1.2-0.2-2.4-0.1-3.6c-2.1-1.4-3.8-3.1-5.2-5.2c-1.9-3-2.8-6.5-2.5-10
			c0-0.8,0.5-1.6,1.2-2.1c2.3-1.6,4.3-3.6,6-5.9c0.4-0.7,0.8-1.3,1.2-2c0.5-1,1.4-1.7,2.5-1.8c0-0.2-0.1-0.3-0.3-0.4
			c0.2,0.1,0.3,0.2,0.3,0.4c6.7,0.6,13.1,3.1,18.3,7.3c0.4,0.3,0.8,0.7,0.9,1.2c0.4,0.5,0.6,1,0.7,1.6c0.5,3.7,0.4,7.4-1.5,10.9
			c-1.4,2.5-3.4,4.6-5.8,6.1c0.1,1.2,0,2.4-0.1,3.6v0.3c0,3.9,0.4,4.3,4.3,5.7c3.4-0.9,6.6-2.1,9.7-3.7
			C122,59.8,122.3,59.4,122.1,58.1z"/>
		<path id="Trazado_358" class="st43" d="M112.7,48.3c1.9-3.4,2-7.2,1.7-10.9c0-0.6-0.3-1.2-0.7-1.6c-0.2-0.5-0.5-0.9-0.9-1.2
			c-5.3-4.2-11.6-6.7-18.3-7.3c-1.1,0.2-2,0.8-2.5,1.8c-0.4,0.7-0.8,1.4-1.2,2c-1.6,2.3-3.6,4.3-6,5.9c-0.7,0.5-1.1,1.3-1.2,2.1
			c-0.3,3.5,0.6,7,2.5,10c1.4,2.1,3.1,3.8,5.2,5.2c-0.1,1.2-0.1,2.4,0.1,3.6c0,0.7-0.1,1.4-0.1,2.1c0,1.2-0.7,2.4-1.8,2.9
			c-0.8,0.4-1.6,0.8-2.4,1l-1,0.6c0.2,0.5,0.4,1,0.7,1.5c2,4,5.9,6.7,10.3,7.3c6.7,0.9,12.2-2.4,15-8.7l-0.9-0.5
			c-3.9-1.4-4.3-1.8-4.3-5.7v-0.3l0,0c0.1-1.2,0.2-2.4,0.1-3.6C109.4,52.9,111.3,50.8,112.7,48.3z"/>
	</g>
	<g id="Grupo_577">
		<path id="Trazado_366" class="st0" d="M127.6,37.1c-0.8-7.6-4.4-14.5-10.2-19.5c-2.8-2.4-6.2-4.1-9.9-4.8c-0.6,0-1.2-0.2-1.8-0.4
			h-4.6c-0.8,0.3-1.7,0.5-2.6,0.6c-5.9,1.5-10.9,5.2-14.2,10.3c-2.7,4-4.4,8.6-5,13.4c-0.7,5-0.3,10.1,1.2,14.9
			c0.9,2.7,2.1,5.3,3.7,7.7c0.7,1.4,2.3,2,3.7,1.4c2.6-0.8,5.2-1.5,7.9-2c0-0.4-0.3-0.4-0.6-0.6c-3.1-1.9-5.2-5.1-5.7-8.7
			c-0.1-0.7-0.3-0.9-1.1-0.9c-1.9-0.1-3.6-1.3-4.2-3.1c-1.3-2.8-0.3-6.1,2.4-7.6c0.8-0.4,1.6-0.6,2.5-0.5c0.3-0.8,1-1.4,1.8-1.5
			c4-1.3,7.7-3.3,10.9-6c0.7-0.8,1.9-0.9,2.7-0.2c0,0,0,0,0,0c0.9,0.6,1.7,1.3,2.4,2c2.8,2.1,6.1,3.6,9.5,4.4c0.6,0.1,1.1,0.3,1.2,1
			c0.1,0.3,0.2,0.3,0.5,0.3c2.9,0.1,5.1,2.3,5.2,5.2c0.2,2.4-1.1,4.6-3.2,5.6c-0.6,0.4-1.3,0.5-2,0.4c-0.4-0.1-0.6,0.1-0.6,0.5
			c-0.5,3.8-2.7,7.3-6,9.3c-0.2,0.1-0.4,0.2-0.4,0.4c2.7,0.5,5.3,1.1,7.9,2c1.3,0.5,2.7,0,3.4-1.1c0.7-0.9,1.3-1.9,1.8-3
			C127.3,50.6,128.5,43.8,127.6,37.1z"/>
		<path id="Trazado_367" class="st2" d="M123.3,42.4c-0.1-2.8-2.4-5.1-5.2-5.2c-0.2,0-0.4-0.1-0.5-0.3c-0.2-0.6-0.7-0.8-1.2-1
			c-3.4-0.8-6.7-2.3-9.5-4.4c-0.8-0.7-1.6-1.4-2.4-2c-0.8-0.6-2-0.6-2.7,0.2c-3.2,2.7-6.9,4.7-10.9,6c-0.8,0.2-1.5,0.7-1.8,1.5
			c-0.9-0.1-1.7,0.1-2.5,0.5c-2.7,1.5-3.8,4.8-2.4,7.6c0.7,1.8,2.3,3,4.2,3.1c0.8,0,1,0.3,1.1,0.9c0.6,3.6,2.6,6.7,5.7,8.7
			c0.2,0.2,0.6,0.2,0.6,0.6c1,0.1,1.1,0.2,1.1,1.2v4.1c0,0.5-0.1,0.8-0.7,0.9c-1.6,0.3-3.3,0.8-4.9,1.2c0.5,0.1,0.4,0.5,0.4,0.8
			l1.5,4.9c0.6,0.2,1.2,0.5,1.8,0.8c1.1,0.4,2.2,0.8,3.4,1c1.1,0.4,2.3,0.6,3.5,0.6c3.2,0.3,6.5-0.1,9.5-1.4
			c0.8-0.3,1.5-0.6,2.3-0.9h-0.3l0.1-0.1c0.6-1.9,1.1-3.9,1.6-5.8c-1.4-0.5-2.8-0.8-4.3-1.1c-0.6-0.1-0.8-0.3-0.8-1
			c0.1-1.3,0-2.7,0-4c0-1.1,0-1.1,1.1-1.3c0-0.3,0.2-0.3,0.4-0.4c3.3-2,5.5-5.4,6-9.3c0.1-0.4,0.2-0.6,0.6-0.5c0.7,0.1,1.4,0,2-0.4
			C122.3,47,123.5,44.8,123.3,42.4z"/>
		<g id="Grupo_576" transform="translate(0 49.505)">
			<path id="Trazado_368" class="st44" d="M93.1,22.6c0-0.1,0-0.3-0.1-0.4l-1.5-4.9l0,0c0-0.3,0-0.7-0.4-0.8c-3.1,0.8-6,1.8-8.9,3.1
				C77.6,21.7,74.5,26,74,31c-0.5,3.6-0.2,7.3-0.2,10.9c-0.1,1.5,1,2.8,2.5,2.9c0,0,0,0,0,0h22.9c-0.6-2.5-1.3-4.9-2-7.4
				C95.9,32.5,94.5,27.6,93.1,22.6z"/>
			<path id="Trazado_370" class="st44" d="M132.7,32.6c-0.1-4.8-2.5-9.3-6.5-12c-1.5-0.9-3.1-1.7-4.8-2.2c-2-0.8-4.1-1.4-6.2-1.8
				c-0.6,1.9-1.1,3.9-1.6,5.8c0,0.1,0,0.2-0.1,0.2c0,0.2-0.1,0.5-0.1,0.7c-1.3,4.8-2.7,9.5-4,14.3c-0.7,2.4-1.5,4.9-2,7.3h22.3
				c1.5,0.2,2.9-0.9,3.2-2.4v-0.6C132.7,38.7,132.8,35.6,132.7,32.6z"/>
		</g>
		<path id="Trazado_371" class="st45" d="M113.5,71.8C113.5,71.9,113.5,72,113.5,71.8L113.5,71.8z"/>
		<path id="Trazado_372" class="st46" d="M111.1,72.8c-3,1.2-6.3,1.7-9.5,1.4c-1.2-0.1-2.4-0.3-3.5-0.6c-1.2-0.3-2.3-0.6-3.4-1l0,0
			c-0.6-0.3-1.2-0.6-1.8-0.8c0,0.1,0,0.3,0.1,0.4c1.4,4.9,2.8,9.9,4.1,14.8c0.7,2.4,1.5,4.9,2,7.4c0.5,0,8,0.1,8,0
			c0.6-2.5,1.3-4.9,2-7.3c1.3-4.8,2.7-9.5,4-14.3c0-0.2,0.1-0.5,0.1-0.7C112.5,72.3,111.8,72.5,111.1,72.8z M94.7,73.2L94.7,73.2z
			 M94.6,73C94.6,73.1,94.7,73.1,94.6,73z"/>
		<path id="Trazado_373" class="st47" d="M111.1,72.8c-3,1.2-6.3,1.7-9.5,1.4c-1.2-0.1-2.4-0.3-3.5-0.6c-1.2-0.3-2.3-0.6-3.4-1l0,0
			c-0.6-0.3-1.2-0.6-1.8-0.8c0,0.1,0,0.3,0.1,0.4c1.4,4.9,2.8,9.9,4.1,14.8c0.7,2.4,1.5,4.9,2,7.4c0.5,0,8,0.1,8,0
			c0.6-2.5,1.3-4.9,2-7.3c1.3-4.8,2.7-9.5,4-14.3c0-0.2,0.1-0.5,0.1-0.7C112.5,72.3,111.8,72.5,111.1,72.8z M94.7,73.2L94.7,73.2z
			 M94.6,73C94.6,73.1,94.7,73.1,94.6,73z"/>
	</g>
	<g id="Grupo_2020">
		<path id="Trazado_3865" class="st3" d="M175.2,88.3c0-1.3-0.5-2.5-1.3-3.4L173,84l-11-5.1c-2.8,6.4-8.3,9.6-15,8.7
			c-4.4-0.6-8.3-3.3-10.3-7.3c-0.3-0.5-0.5-1-0.7-1.5c-0.3,0.2-0.7,0.3-1,0.4c-2.2,0.9-4.4,1.9-6.6,2.9c-1.1,0.7-5.7,2.1-5.7,6.3
			v8.2c-0.1,0.8,0.3,1.6,1,2h50.6c0.7-0.3,1.1-1,1-1.8C175.3,94,175.3,91.1,175.2,88.3z"/>
		<circle class="st7" cx="174.7" cy="100" r="12.8"/>
	</g>
	<path id="Trazado_3868" class="st1" d="M66.1,77L66.1,77c-0.2-0.7-0.8-1.1-1.5-1.1c-1.1,0.5-2.1,1-3,1.7l0,0
		c-0.9,0.6-1.9,1.2-2.8,1.7c-1.5,0.9-3,1.8-4.4,2.8l-0.1,0.1l0.3,0.2c0.7,0.8,1.9,1.9,2.9,2.9c0.9,0.9,1.8,1.7,2.1,2.1
		c0.1,0.1,0.1,0.2,0.2,0.2c0.3,0.2,0.6,0.3,0.9,0.2c0.3-0.1,0.6-0.2,0.8-0.5l0,0c0.6-0.7,1.2-1.4,1.7-2.2c0.3-0.4,0.7-0.9,1-1.3
		c1-1.4,2.1-2.7,3.2-4c-0.1-0.2-0.2-0.5-0.3-0.7C66.8,78.4,66.5,77.7,66.1,77z"/>
	<g>
		<path id="Trazado_360" class="st0" d="M77,38.1c0.2-1.9-1.2-3.6-3.1-3.8H65c-4,0-7.9,0-11.8,0.1c-5.2-0.1-9.9,2.8-12.1,7.5
			c-2.2,4.2-1.6,8.8-1.2,13.2c0.2,1.8,1.2,3.5,1.4,5.4c0.5-1,1.2-1.9,2-2.6c1-0.9,1.5-2.2,1.5-3.5v-3c0-1.5,0.4-2,1.9-2.3
			c0.4-0.1,0.7-0.2,1.1-0.2c1.8-0.3,3.6-0.5,5.5-0.8c4-0.3,8,0.1,11.8,1.2c1.9,0.6,3.8,1.5,5.5,2.5c1.2,0.5,1.8,1.8,1.5,3.1
			c0,1,0.4,2,1.2,2.7c0.9,0.9,1.7,1.8,2.4,2.9c0-0.8,0.2-1.5,0.5-2.2c0.8-2.3,1.2-4.7,1.2-7.1C77,46.9,76.9,42.5,77,38.1z"/>
		<path id="Trazado_3866" class="st47" d="M87.3,97c-0.1-1.4-0.8-2.7-1.8-3.7c-1-1.3-2.6-1.7-4-2.4l-1.8-0.6
			c-2.4-0.8-4.8-1.8-7.3-2.6l0,0c-0.5-1-1-2-1.5-3.1c-0.3-0.9-1.2-1.5-2.1-1.4c-1.1,0.5-2.1,1.1-3.1,1.8c-2.4,1.5-4.9,2.9-7.2,4.5
			c-1.2-0.9-2.5-1.7-3.9-2.4c-2.1-1.4-4.3-2.7-6.5-3.9c-1-0.1-1.9,0.5-2.2,1.5l-1.5,3l0,0c-2.8,0.9-5.6,2-8.3,3
			c-1.6,0.4-3.2,1.2-4.5,2.2l-0.2,0.4c-1.4,1.4-2.1,3.3-2,5.3v8.9c-0.1,1,0.3,2,1,2.7h55.8c0.8-0.4,1.3-1.2,1.2-2.1
			C87.3,104.5,87.6,100.7,87.3,97z"/>
		<path id="Trazado_3867" class="st1" d="M54.3,87.7L54.3,87.7c-2.1-1.4-4.2-2.6-6.4-3.8c-0.7,0-1.3,0.4-1.5,1.1v0.1
			c-0.3,0.7-0.7,1.4-1,2.1c-0.1,0.2-0.2,0.3-0.2,0.5c0.1,0.1,0.2,0.2,0.3,0.4c0.4,0.6,0.9,1.2,1.3,1.7c1.4,1.8,2.8,3.7,4.2,5.4l0,0
			c0.2,0.3,0.6,0.6,1,0.6c0.5,0,0.9-0.2,1.2-0.6c0.6-0.8,1.3-1.5,2.1-2.1c1-0.9,1.9-1.8,2.8-2.8l0.2-0.2L58.2,90
			C56.9,89.2,55.6,88.4,54.3,87.7z"/>
		<path id="Trazado_3869" class="st48" d="M48.3,82.9c2.3,1.2,4.5,2.5,6.6,3.9c1.2,0.7,2.4,1.4,3.6,2.2c1.4-0.9,2.8-1.8,4.2-2.6
			c0.9-0.5,1.8-1.1,2.7-1.7c1-0.7,2.1-1.3,3.3-1.8h0.1c0-0.8-0.1-1.6-0.1-2.4c0.1-1.3,0.1-2.6,0.1-3.9c0-0.5,0.4-0.7,0.7-0.9
			c1.3-1.1,2.5-2.4,3.4-3.9c2.4-3.7,2.8-7.7,2.7-11.9c-0.6-1.1-1.4-2.1-2.4-2.9c-0.7-0.7-1.1-1.7-1.2-2.7c-0.2,0-0.4-0.1-0.6-0.2
			c0.2,0.1,0.4,0.2,0.6,0.2c0.3-1.3-0.3-2.5-1.5-3.1c-1.7-1.1-3.6-1.9-5.5-2.5c-3.8-1.1-7.8-1.5-11.8-1.2l-5.5,0.8
			c-0.4,0-0.7,0.1-1.1,0.2c-1.5,0.3-1.9,0.8-1.9,2.3v3c0.1,1.3-0.5,2.6-1.5,3.5c-0.9,0.7-1.5,1.6-2,2.6c-0.1,1.5,0,3,0.1,4.5
			c0.4,4.5,2.6,8.6,6.1,11.4c0.3,0.2,0.6,0.4,0.6,0.8l0,0c-0.1,1.3-0.1,2.6,0.1,3.9c0,0.8-0.1,1.6-0.1,2.4L48.3,82.9z"/>
		<path id="Trazado_3870" class="st3" d="M72.9,87.6c-0.2-0.3-0.3-0.7-0.5-1c-0.3-0.7-0.7-1.4-1-2c-0.4-1.1-1.5-1.8-2.7-1.7h-0.1
			c-1.2,0.5-2.3,1.1-3.3,1.8c-0.9,0.6-1.8,1.1-2.7,1.7c-1.4,0.8-2.8,1.7-4.2,2.6c-1.1-0.8-2.4-1.5-3.6-2.2c-2.1-1.4-4.3-2.7-6.6-3.9
			H48c-1.2-0.1-2.4,0.7-2.8,1.8c-0.3,0.7-0.6,1.4-1,2c-0.2,0.3-0.3,0.6-0.5,0.9l-0.3,0.5l0.5,0.2c0.1,0,0.3,0.2,0.3,0.3l0,0
			c0.4,0.6,0.9,1.2,1.3,1.8c1.4,1.8,2.8,3.7,4.2,5.4c0.4,0.6,1.1,1,1.9,1.1l0,0c0.8-0.1,1.5-0.4,2-1l0,0l2-2l1.8-1.8v18.1h1.3v-18
			l1.8,1.8c0.9,0.9,1.7,1.6,2,2l0.4,0.4c0.5,0.4,1.1,0.5,1.7,0.4c0.6-0.1,1.1-0.4,1.5-0.9c0.6-0.7,1.2-1.5,1.8-2.2
			c0.3-0.4,0.7-0.9,1-1.3l0,0c1-1.5,2.1-2.9,3.4-4.2l0.3-0.3L72.9,87.6z M58,90.4c-0.7,0.8-1.8,1.8-2.8,2.8
			c-0.9,0.9-1.8,1.7-2.1,2.1c-0.3,0.4-0.7,0.6-1.2,0.6c-0.4,0-0.8-0.3-1-0.6l0,0l-4.2-5.4c-0.4-0.6-0.9-1.2-1.3-1.7
			c-0.1-0.1-0.2-0.3-0.3-0.4c0.1-0.2,0.2-0.3,0.2-0.5c0.3-0.7,0.7-1.4,1-2.1v-0.1c0.2-0.7,0.8-1.1,1.5-1.1c2.2,1.1,4.3,2.4,6.4,3.8
			l0,0c1.3,0.7,2.6,1.5,3.8,2.4l0.1,0.1L58,90.4z M68.5,91.8c-0.3,0.4-0.7,0.9-1,1.3c-0.6,0.7-1.1,1.5-1.7,2.2l0,0
			c-0.2,0.3-0.5,0.4-0.8,0.5c-0.3,0.1-0.6,0-0.9-0.2c-0.1-0.1-0.2-0.1-0.2-0.2c-0.6-0.8-1.3-1.5-2.1-2.1c-1-1-2.2-2.1-2.9-2.9
			l-0.2-0.2l0.1-0.1c1.4-1,2.9-1.9,4.4-2.8c0.9-0.6,1.8-1.1,2.8-1.7l0,0c0.9-0.7,1.9-1.3,3-1.7c0.7,0,1.3,0.4,1.5,1l0,0
			c0.3,0.7,0.7,1.4,1,2.1c0.1,0.2,0.2,0.5,0.3,0.7C70.6,89,69.5,90.4,68.5,91.8z"/>
	</g>
</g>
</svg>
