<?xml version="1.0" encoding="utf-8"?>
<!-- Generator: Adobe Illustrator 27.7.0, SVG Export Plug-In . SVG Version: 6.00 Build 0)  -->
<svg version="1.1" id="Capa_1" xmlns="http://www.w3.org/2000/svg" xmlns:xlink="http://www.w3.org/1999/xlink" x="0px" y="0px"
	 viewBox="0 0 211 129.1" style="enable-background:new 0 0 211 129.1;" xml:space="preserve">
<style type="text/css">
	.st0{fill:#FFFFFF;}
	.st1{fill:#133F69;}
	.st2{fill:#087CBD;}
	.st3{fill:#F7C531;}
</style>
<rect x="69.9" y="29.2" transform="matrix(0.9713 -0.2377 0.2377 0.9713 -13.0424 26.0028)" class="st0" width="62.9" height="75.8"/>
<g id="CHW_Integration_into_Healthcare" transform="translate(42.764 -8)">
	<path id="Trazado_3882" class="st1" d="M60.2,31.7c-8.1,1.9-16.1,3.8-24.2,5.8c-0.1,0-0.2,0.1-0.2,0.1c0.1,0,0.2-0.1,0.2-0.1
		C44.1,35.5,52.2,33.6,60.2,31.7z"/>
	<path id="Trazado_3883" class="st1" d="M100.4,101.3c-3-12.2-5.9-24.4-8.8-36.7l-0.5-2c-1.1-0.4-2.1-0.9-3.2-1.4
		c-0.9-0.5-1.8-1-2.8-1.6l-1-0.8l0.9,3.8h-0.1c0.2,0.6,0.3,1.3,0.4,1.9c1.7,7,3.3,13.9,5,20.8c0.1,0.3,0.2,0.7,0.2,1.1
		c-0.1,0.2-0.2,0.5-0.3,0.7c-3.9,6.3-7.8,12.8-11.7,19.1c-0.1,0.2-0.2,0.2-0.3,0.4c-0.2,0.1-0.4,0.2-0.6,0.2
		c-11.8,2.8-23.6,5.7-35.3,8.6c-0.2,0.1-0.4,0.1-0.6,0.1c-1,0.2-1.9,0.5-2.9,0.8c-0.1,0-0.1,0.1-0.2,0.1c-0.7,0.1-1.3-0.3-1.4-1
		c-0.1-0.2-0.1-0.5-0.2-0.8c-5.1-21.1-10.2-42.2-15.2-63.3c-0.4-1.8-0.2-2.1,1.5-2.5c0.8-0.2,1.4-0.3,2.2-0.5l6.4-1.6L35,46l0.3-0.1
		l1.5-0.3l0.6-0.2l-0.9-4.1l2.8-0.7l1,4l20.3-4.9c-0.3-1.3-0.7-2.8-0.9-4.1l2.8-0.7l1,4.1l1.3-0.3l0.2-0.1l5.1-1.2l5.7-1.3l2.8-0.7
		l0.7,2.9c1-0.7,2.1-1.3,3.3-1.6c0.7-0.2,1.5-0.2,2.2-0.2l-1-4.2l-0.7-2.6l0,0v-0.1c-0.7-2.7-2.5-4.2-4.9-4.2h-0.1
		c-0.3,0-0.7,0.1-1.1,0.1c-3.3,0.6-6.7,1.5-10,2.3l-2.2,0.5L64,28.5c0,0.2,0.1,0.3,0.1,0.5c-0.2,0-0.3,0.2-0.4,0.3
		c-0.3,0.8-0.9,1.4-1.7,1.7c0.8-0.3,1.4-0.9,1.7-1.7c0.1-0.2,0.2-0.3,0.4-0.3l0.2,0.6l0,0c0.1,0.5,0.2,1,0.3,1.6
		c0.5,2.1-0.2,3.2-2.2,3.8l-2.9,0.9l-20.3,4.9l-2.8,0.7c-2.1,0.3-3.1-0.2-3.6-2.3c-0.2-0.5-0.2-1.1-0.4-1.6
		c-0.1-0.2-0.1-0.6-0.2-0.8l0,0c0-0.1-0.1-0.2-0.1-0.2l-0.3,0.1L30.2,37l0,0c-3.8,0.9-7.6,1.8-11.3,2.7c-3.2,0.8-4.8,3.6-4,6.9
		c5.6,23.8,11.3,47.7,17.1,71.6c0.5,2.4,2.5,4.2,5,4.4h1c0.2,0,0.4-0.1,0.7-0.1c0.1,0,0.2-0.1,0.3-0.1c19-4.7,38.1-9.2,57.1-13.8
		l1-0.2c1.5-0.5,2.7-1.6,3.2-3C100.8,104,100.8,102.6,100.4,101.3z"/>
	<path id="Trazado_3884" class="st0" d="M41.2,49c0.2,0.7,0.5,0.8,1.1,0.7c1.1-0.3,2.2-0.6,3.3-0.8c5.1-1.3,10.1-2.4,15.2-3.7
		c0.8-0.2,1-0.4,0.8-1.2c-0.3-1-0.5-2-0.8-3c-0.1-0.3-0.2-0.7-0.2-1.1l-20.3,4.9l0.2,1.1C40.7,47,40.9,48,41.2,49z"/>
	<path id="Trazado_3885" class="st2" d="M76.8,68c-1.3,0.3-2.6,0.6-3.9,0.9h-0.1c-0.5,0.2-1-0.1-1.2-0.6c-1.2-2.1-2.5-4.2-3.8-6.2
		c-0.3-0.8-1.1-1.2-1.9-1c-0.9,0.2-1.1,1.1-1.1,1.8v1.8c-0.1,2.8-0.1,5.5-0.2,8.3c-0.3-0.1-0.4-0.3-0.6-0.6
		c-0.8-1.1-1.2-1.2-2.4-0.9s-2.6,0.6-3.8,0.9c-0.8,0.1-1.4,0.8-1.4,1.6L56,76.5c-0.2,1.6-0.3,3.2-0.6,5c-2.2-4-4.2-7.8-6.2-11.5
		c-1-1.8-2-3.8-3-5.6c-0.2-0.7-1-1.1-1.7-0.8c-0.7,0.2-1.2,0.8-1.2,1.5c0,0.3,0,0.5-0.1,0.8c-0.2,3.2-0.4,6.2-0.6,9.4
		c0.1,0.5-0.3,0.9-0.7,1h-0.1c-1.6,0.3-3.1,0.7-4.7,1.1c-0.8,0.2-1.3,0.7-1.3,1.3V79c0,0.1,0,0.2,0.1,0.3c0.2,0.8,1,1.2,2.1,0.9
		c2-0.5,4-1,6-1.4c0.9-0.1,1.6-0.9,1.5-1.8c0.1-1.8,0.2-3.6,0.3-5.4c0-0.4,0.1-0.7,0.2-1c0.1,0.2,0.2,0.3,0.2,0.5
		c2.8,5.2,5.6,10.3,8.3,15.6c0.4,0.8,0.9,1.4,1.8,1.2c1-0.2,1.2-1,1.2-1.8l1-8.8c0.2-2.1,0.2-2.1,2.2-2.6c0.5-0.2,1,0,1.2,0.5
		c0.8,1.2,1.5,2.2,2.2,3.4c0.4,0.8,1.3,1.1,2,0.8c0.6-0.3,1-0.9,0.9-1.6v-2.4c0.1-2.5,0.1-5,0.1-7.8l0,0c0.9,1.4,1.7,2.6,2.3,3.8
		c0.4,0.7,1.2,1.1,2,0.8c1.8-0.5,3.7-0.9,5.4-1.3c1-0.2,1.5-0.8,1.5-1.4V69C78.7,68.1,77.9,67.7,76.8,68z"/>
	<path id="Trazado_3886" class="st3" d="M110,38.4c-0.2-0.5-0.4-1-0.8-1.5c-1.8-3-5.2-4.7-8.7-4.2c-1.2,0.1-2.4,0.5-3.4,1.2
		c-1.8,1.1-3.2,2.8-3.8,4.7c-0.5,1.3-1.5,1.7-2.4,0.8c-0.9-0.8-1.9-1.5-2.9-2c-1-0.4-2.1-0.6-3.2-0.7c-0.8,0-1.5,0.1-2.2,0.2
		c-1.2,0.3-2.4,0.8-3.3,1.6c-1.5,1.2-2.7,2.9-3.2,4.8c-0.1,0.3-0.2,0.7-0.3,1C75.6,51,79.1,55.5,84.1,59l1,0.8
		c0.9,0.6,1.8,1.1,2.8,1.6s2.1,0.9,3.2,1.4c1.2,0.5,2.3,0.9,3.5,1.3l0,0l1,0.2c2,0.9,3.6,0.3,5.1-1.3l0.1-0.1
		c3.6-3.7,6.8-7.4,8.7-12.2C111.1,46.9,111.3,42.5,110,38.4z"/>
	<path id="Trazado_3888" class="st2" d="M35.8,37.6c-1.3,0.4-2.7,0-3.6-0.9l0,0C33.1,37.6,34.5,38,35.8,37.6z"/>
	<path id="Trazado_3889" class="st2" d="M60.2,31.7c0.4-0.1,0.8-0.2,1.2-0.3c0.2,0,0.4-0.1,0.6-0.2c-0.2,0.1-0.4,0.1-0.6,0.2
		C61,31.5,60.6,31.6,60.2,31.7z"/>
	<g id="Grupo_2023" transform="translate(59.519 40)">
		<path id="Trazado_3890" class="st2" d="M-16.9-9.9l9.1-2.2c-0.2-0.8-0.4-1.6-0.6-2.3v-0.1c-0.1-1.4-1.1-2.7-2.5-3l-5.8,1.4
			c-0.5,0.4-0.9,1-1,1.7c-0.1,0.5-0.1,0.9,0,1.4C-17.4-11.9-17.2-10.9-16.9-9.9L-16.9-9.9z"/>
		<path id="Trazado_3891" class="st2" d="M-23.7-2.4c0.1,0,0.2-0.1,0.2-0.1c8-2,16.1-3.9,24.2-5.8c0.4-0.1,0.8-0.2,1.2-0.3
			c0.2,0,0.4-0.1,0.6-0.2c0.8-0.3,1.4-0.9,1.7-1.7c0.1-0.2,0.2-0.3,0.4-0.3c-0.1-0.2-0.1-0.3-0.1-0.5c0-0.1-0.1-0.2-0.1-0.2
			C3.7-14,2.7-14.7,0.2-14c-2.7,0.7-5.3,1.3-8,1.9l-9.1,2.2l0,0c-2.5,0.6-4.9,1.3-7.4,1.8c-3,0.6-3.8,1.8-3,4.5
			c0,0.1,0.1,0.2,0.1,0.2l0,0C-26.4-2.4-25-2-23.7-2.4z"/>
		<path id="Trazado_3892" class="st2" d="M-20.3,0.8L0.1-4.1l2.8-0.7c2-0.7,2.7-1.8,2.2-3.8c-0.1-0.5-0.2-1-0.3-1.6l0,0l-0.2-0.6
			c-0.2,0-0.3,0.2-0.4,0.3C3.9-9.7,3.3-9,2.5-8.8C2.3-8.7,2.1-8.7,1.9-8.6c-0.4,0-0.8,0.2-1.2,0.3c-8.1,1.9-16.1,3.8-24.2,5.8
			c-0.1,0-0.2,0.1-0.2,0.1C-25-2-26.4-2.3-27.3-3.3c0.1,0.2,0.1,0.6,0.2,0.8c0.2,0.5,0.2,1.1,0.4,1.6c0.5,2.1,1.5,2.8,3.6,2.3
			L-20.3,0.8z"/>
		<path id="Trazado_3893" class="st2" d="M4.2,0.3L4.2,0.3L4-0.7L3-4.8L0.1-4.1C0.4-2.8,0.8-1.4,1,0c0.1,0.3,0.2,0.6,0.3,1L2,4
			c0.2,0.8,0,1-0.8,1.2c-5,1.3-10,2.5-15.1,3.8c-1.1,0.2-2.2,0.5-3.3,0.8c-0.7,0.2-1,0.1-1.1-0.7C-18.5,8.1-18.8,7-19,6l-0.2-1l-1-4
			L-23,1.6l0.9,4.1l0.2,1.1c0.2,1.1,0.6,2.3,0.8,3.3c0,0.2,0.1,0.5,0.2,0.7c0.4,1.1,1.3,1.8,2.4,2.1h1.1c0.2,0,0.4-0.1,0.6-0.2
			C-10.3,11.1-4,9.6,2.4,8c0.3,0,0.5,0,0.7-0.1c1.7-0.6,2.6-2.5,2-4.2C4.7,2.6,4.4,1.4,4.2,0.3z"/>
	</g>
</g>
</svg>
