<?xml version="1.0" encoding="utf-8"?>
<!-- Generator: Adobe Illustrator 27.5.0, SVG Export Plug-In . SVG Version: 6.00 Build 0)  -->
<svg version="1.1" id="Capa_1" xmlns="http://www.w3.org/2000/svg" xmlns:xlink="http://www.w3.org/1999/xlink" x="0px" y="0px"
	 viewBox="0 0 211 129.1" style="enable-background:new 0 0 211 129.1;" xml:space="preserve">
<style type="text/css">
	.st0{fill:#133F69;}
	.st1{fill:none;}
	.st2{fill:#D9D6D6;}
	.st3{fill:#087CBD;}
	.st4{fill:#F7C531;}
	.st5{fill:#FECD38;}
	.st6{fill:#1C3866;}
	.st7{fill:#EFBF2F;}
	.st8{fill:#FFFFFF;}
	.st9{fill:#0077B1;}
	.st10{clip-path:url(#SVGID_00000098942318619784714030000010125466195123863993_);}
	.st11{clip-path:url(#SVGID_00000008845016185657040090000002982602245712745395_);}
	.st12{clip-path:url(#SVGID_00000012446927442766815960000001367948057475523775_);}
	.st13{clip-path:url(#SVGID_00000080197286247615724330000000840522308579101876_);}
	.st14{clip-path:url(#SVGID_00000000923397174818506590000010100960029587070893_);}
	.st15{clip-path:url(#SVGID_00000079445291229924587190000012277905679890434953_);}
	.st16{clip-path:url(#SVGID_00000075156556859894605180000015986434142614251670_);}
	.st17{clip-path:url(#SVGID_00000122715612293426268650000011215745389469195407_);}
	.st18{clip-path:url(#SVGID_00000011021062572995608790000017449205048133733041_);}
	.st19{clip-path:url(#SVGID_00000171679734145977493350000003639280116115681463_);}
	.st20{clip-path:url(#SVGID_00000069389654239405560590000006391249391496391083_);}
	.st21{clip-path:url(#SVGID_00000178174191712175363930000004870150288602766740_);}
	.st22{clip-path:url(#SVGID_00000116945645367798391310000013906093917283550141_);}
	.st23{clip-path:url(#SVGID_00000016068784578348539660000011384558865693287099_);}
	.st24{clip-path:url(#SVGID_00000110434919502862691090000002760970849834357892_);}
	.st25{clip-path:url(#SVGID_00000075145863918263174880000005993579050530524320_);}
	.st26{clip-path:url(#SVGID_00000069367574539468845680000015148597150693250751_);}
	.st27{clip-path:url(#SVGID_00000169558532152947540640000004036863744030235265_);}
	.st28{clip-path:url(#SVGID_00000155116332004986383370000012200189422001216661_);}
	.st29{clip-path:url(#SVGID_00000166641420992130404670000015099057360647611814_);}
	.st30{clip-path:url(#SVGID_00000123421750260471825630000017580757052403482542_);}
	.st31{clip-path:url(#SVGID_00000026164837316513627680000000928058841194291103_);}
	.st32{clip-path:url(#SVGID_00000158709043824525983000000017905956353150340527_);}
	.st33{clip-path:url(#SVGID_00000039100440270713451600000015258265505491322781_);}
	.st34{clip-path:url(#SVGID_00000116954830038469520130000005146320447062789762_);}
	.st35{clip-path:url(#SVGID_00000010283543434532758970000017353310899908073905_);}
	.st36{clip-path:url(#SVGID_00000012432698044456282880000009975092935639172026_);}
	.st37{clip-path:url(#SVGID_00000065796560928430139510000002163692934010523017_);}
	.st38{clip-path:url(#SVGID_00000090297164031391421920000002034289088479354537_);}
	.st39{clip-path:url(#SVGID_00000055683447165479624880000014826916507538959009_);}
	.st40{clip-path:url(#SVGID_00000030449208184785721530000015775699895923158924_);}
	.st41{clip-path:url(#SVGID_00000070807485915963661130000006472881040771475590_);}
	.st42{clip-path:url(#SVGID_00000044142350755364619480000002344913757974969247_);}
	.st43{fill:#A4A1A1;}
	.st44{fill:#F4C230;}
	.st45{fill:#F4F4F6;}
	.st46{fill:#743E74;}
	.st47{fill:#143B64;}
	.st48{fill:#787777;}
	.st49{fill:#B3B4B3;}
	.st50{fill:#EFBF2F;enable-background:new    ;}
	.st51{fill:#325D86;}
</style>
<g id="CHWs_Promotores-3_00000165225425733903701820000014521196923021567624_" transform="translate(41.101 -6.133)">
	<path id="Trazado_3819_00000106139760402904042820000001923325127469011112_" class="st0" d="M103.5,108.8L103.5,108.8l-4-20.3
		c-0.5-2.7-1.4-5-3.8-6.7c-3.9-1.8-8-3.3-12.1-4.7l-0.2,0.3c-0.3,0.4-5.3,6.8-7.8,10.3L75.5,88l-1.2-0.9c-1.6,1.5-2.5,3.7-2.5,5.9
		v13h-5.8V95.2c-0.5-1.9-1.4-3.7-2.7-5.2c-1.1-1.2-2.5-2.3-3.9-3.2l-2.2,1.1L57,87.7c-2.4-3.8-6.2-9.7-6.5-10.1l-0.2-0.3
		c-4,1.3-8.6,2.9-9.3,3.3c-0.3,0.2-0.6,0.3-0.9,0.5c-2,1.5-3.3,3.6-3.8,6c-1.3,6.8-2.8,13.6-4.2,20.4c-0.1,0.5-0.2,1-0.3,1.5
		c-0.4,1.3-0.3,2.8,0.4,4l0.3,0.5c0.6,0.5,1.2,1,1.9,1.3l0.8,0.2h64.4l0.8-0.2C103.7,113.6,104.1,111.8,103.5,108.8z"/>
	<path id="Trazado_3820_00000000924953712793170660000002019959918886392707_" class="st1" d="M57.2,76c-0.4-0.5-0.7-0.8-0.7-0.8
		l0.4,0.5L57.2,76z"/>
	<path id="Trazado_3821_00000108308588256192995530000008623699207208595087_" class="st1" d="M57.2,76c-0.2-0.3-0.4-0.6-0.7-0.8
		l0.4,0.5L57.2,76z"/>
	<path id="Trazado_3822_00000093863822619599129420000001228158089535251609_" class="st0" d="M77.6,75.3L77.6,75.3l0.4,0.1
		C77.8,75.4,77.7,75.3,77.6,75.3z"/>
	<path id="Trazado_3824_00000152947258905617223420000011915099725147532974_" class="st2" d="M57.2,76c2.2,2.4,8.6,9.8,9.6,10.9
		c1.4-1.7,10.6-11.4,10.8-11.6L76,74.9v-6.2c0.3-0.3,0.7-0.5,1.1-0.7c5.5-3.2,8.9-9.1,9-15.4c0.2,0.1,0.4,0.1,0.7,0.2
		c2.5,0.5,5-1.1,5.5-3.6c0-0.8-0.1-1.6-0.3-2.4v0.8h-0.3c-0.8-1.3-2.3-2.1-3.8-2h-1.7v-0.9H86v-5.8c-0.1-0.5-0.6-0.8-1.1-0.8
		c-1.5,0-3-0.4-4.3-1.2c-1.6-1.1-2.3-3.4-2.6-3.2C75.9,35.3,67,39.7,62.6,40c-2.1,0.1-4.1-0.2-6.1-0.8c-0.8-0.2-1.6-0.2-2.3,0
		c-0.5,0-0.9,0-1.3,0.2c-1.8,0.7-3.2,2.2-3.8,4.1c-0.2,1.8-0.2,1.8-1.9,1.8c-1.7,0-3.2,0.9-3.9,2.4h-0.1v-0.9H43
		c-0.8,2.4-0.1,4.3,2.1,5.4c1.2,0.6,2.5,0.7,3.8,0.3c0.1,3.9,1.4,7.6,3.7,10.7c1.7,2.3,3.9,4.1,6.4,5.5v5.5l-2.6,0.9
		C56.5,75.2,56.8,75.4,57.2,76z"/>
	<path id="Trazado_3825_00000143581273858712337530000003187117130783744674_" class="st1" d="M57.2,76c0.1,0.1,0.2,0.2,0.2,0.3
		C57.3,76.2,57.2,76.1,57.2,76z"/>
	<path id="Trazado_3827_00000011724996681762735810000012525143034046727070_" class="st0" d="M51.3,76.9l5.3-1.8
		C56.5,75.2,54.1,76,51.3,76.9z"/>
	<path id="Trazado_3828_00000018922161416253856420000017778738829881261234_" class="st0" d="M58.8,86.4l3.8-1.8l0.5-0.2l-1.9-2.4
		l-1.8-2.3l-3-3.8l-5.1,1.7c1.1,1.6,5.3,8.2,6.2,9.6L58.8,86.4z"/>
	<path id="Trazado_3829_00000159457371994599673810000013288841735787035027_" class="st0" d="M71.2,92.9c0-2.3,0.9-4.6,2.6-6.3
		l-3.1-2.3l-0.3-0.2c-1.3,1.1-2.4,2.5-3.3,3.9c-0.4,0.7-0.7,1.5-0.8,2.3v15h4.8L71.2,92.9L71.2,92.9z"/>
	<path id="Trazado_3830_00000129889354108290800170000014721975169387403166_" class="st0" d="M71.1,84.1l3.2,2.3l0.4,0.3l0.8,0.5
		c0.3-0.4,1.1-1.5,2.1-2.8c0.2-0.2,0.3-0.4,0.5-0.7c1.8-2.4,4-5.3,4.8-6.3l-5.1-1.6l-4.3,5l-0.2,0.3l-2.3,2.7l0,0L71.1,84.1z"/>
	<path id="Trazado_3831_00000078757694165387510640000005922245337695814048_" class="st0" d="M82.9,76.9c-2.3-0.8-4.2-1.3-4.9-1.5
		l0,0L82.9,76.9z"/>
	<path id="Trazado_3832_00000030449765605596470750000002135013606232480422_" class="st3" d="M50.4,77.2L50.4,77.2
		c0.3-0.1,0.6-0.2,0.9-0.3L50.4,77.2z"/>
	<path id="Trazado_3833_00000087405527677389870430000002326571567375061669_" class="st3" d="M83.7,77.2l-0.8-0.2
		C83.1,77,83.4,77.1,83.7,77.2z"/>
	<path id="Trazado_3834_00000139973033024766684660000003231806694254507421_" class="st3" d="M77.9,75.4L77.9,75.4l-0.4-0.1l0,0
		c-0.2,0.2-9.4,9.9-10.8,11.6c-1-1.2-10.3-11.7-10.3-11.7s-5.8,1.9-6.2,2.1c0,0,4.3,6.5,6.8,10.3l0.2,0.2l2.2-1.1
		c1.5,0.9,2.8,1.9,3.9,3.2c1.3,1.5,2.2,3.3,2.7,5.2v10.8h5.8v-13c0-2.2,0.9-4.4,2.5-5.9l1.2,0.9l0.2-0.2c2.5-3.3,8-10.5,8-10.5
		C83.4,77.1,77.9,75.4,77.9,75.4z M62.6,84.7l-3.8,1.8l-1.4,0.7c-0.9-1.5-5.1-8.1-6.2-9.6l5.1-1.7l3,3.8l1.8,2.3l1.9,2.4L62.6,84.7z
		 M71.2,92.9v12.5h-4.8v-15c0.1-0.8,0.3-1.6,0.8-2.3c0.9-1.4,2-2.8,3.3-3.9l0.3,0.2l3.1,2.3C72.2,88.3,71.3,90.6,71.2,92.9
		L71.2,92.9z M78,83.7c-0.2,0.2-0.3,0.4-0.5,0.7c-0.9,1.2-1.8,2.3-2.1,2.8l-0.8-0.5l-0.4-0.3L71.1,84l-0.2-0.2l0,0l2.3-2.7l0.2-0.3
		l4.3-5l5.1,1.6C82.1,78.4,79.8,81.3,78,83.7L78,83.7z"/>
	<path id="Trazado_3836_00000122679253097566964510000017685587991177688759_" class="st0" d="M91.8,32.7L91.8,32.7
		c-0.1-3.1-1.4-6-3.7-8.2c-0.8-0.5-1.6-1.1-2.3-1.8c-4.2-4.8-9.6-7-15.8-7.6c-0.2-0.1-0.5-0.1-0.8-0.1c-3.7-0.3-7.4,0.3-10.8,1.8
		c-8.3,3.4-13.3,9.6-15,18.4c-0.8,3.8-0.4,7.8-0.4,11.7v0.9h0.1c0.8-1.4,2.3-2.4,3.9-2.4c1.8-0.1,1.8-0.1,1.9-1.8
		c0.5-1.9,1.9-3.4,3.8-4.1c0.4-0.2,0.9-0.3,1.3-0.2c0.8-0.1,1.6-0.1,2.3,0c2,0.6,4,0.8,6.1,0.8c4.4-0.2,13.3-4.7,15.5-6.3
		c0.3-0.2,1.1,2.1,2.6,3.2c1.3,0.7,2.8,1.1,4.3,1.2c0.5,0,1,0.3,1.1,0.8c0.1,0.2,0.1,0.4,0.1,0.6c-0.1,1.8,0,3.4,0,5.2v0.9h1.7
		c1.5-0.1,3,0.7,3.8,2h0.3v-0.8C91.9,42,92.1,37.3,91.8,32.7z"/>
	<g id="Grupo_2017_00000095301720248217506340000015816679065474007709_" transform="translate(98.163 115.459)">
		<path id="Trazado_3837_00000054252890762656369390000009481153073006048900_" class="st2" d="M-16.9-13.8L-16.9-13.8
			c0,0.4,0.3,0.6,0.7,0.7h9.8c0.4,0,0.6-0.3,0.7-0.7v-4.7h-11.1V-13.8z"/>
		<path id="Trazado_3838_00000111901392818603566470000002239855969238488715_" class="st3" d="M-17.8-21.1v2.8H-5v-2.8H-17.8z"/>
		<path id="Trazado_944_00000150801473126180555730000015265256681207284620_" class="st3" d="M-28.1-24c0,0.6-0.5,1.2-1.2,1.2
			s-1.2-0.5-1.2-1.2c0-0.6,0.5-1.2,1.2-1.2C-28.6-25.1-28.1-24.6-28.1-24C-28.1-24-28.1-24-28.1-24"/>
		<path id="Trazado_945_00000067204672233223756320000014648676044866957719_" class="st3" d="M-28.1-18.4c0,0.6-0.5,1.2-1.2,1.2
			s-1.2-0.5-1.2-1.2c0-0.6,0.5-1.2,1.2-1.2C-28.6-19.6-28.1-19.1-28.1-18.4C-28.1-18.4-28.1-18.4-28.1-18.4"/>
		<path id="Trazado_946_00000098911640154471638960000002714980060286613913_" class="st3" d="M-28.1-12.9c0,0.6-0.5,1.2-1.2,1.2
			s-1.2-0.5-1.2-1.2c0-0.6,0.5-1.2,1.2-1.2C-28.6-14.1-28.1-13.6-28.1-12.9C-28.1-12.9-28.1-12.9-28.1-12.9"/>
	</g>
	<path id="Trazado_3839_00000144310453404921088060000009850185759472572822_" class="st1" d="M67.2,88.2c-0.4,0.7-0.7,1.5-0.8,2.3
		v15h4.8V93c0-2.3,0.9-4.6,2.6-6.3l-3.4-2.4C69.2,85.4,68.1,86.7,67.2,88.2z"/>
	<path id="Trazado_3840_00000173879458353680058690000003600021922107811232_" class="st4" d="M40.2,81c-6.7-4.1-15.5-2.1-19.6,4.6
		c-4.1,6.7-2.1,15.5,4.6,19.6c2.2,1.3,4.6,2.1,7.2,2.1c1.3-6.8,2.8-13.6,4.2-20.4C37,84.5,38.3,82.4,40.2,81z"/>
	<path id="Trazado_3841_00000031187437025803123980000000339230797065763220_" class="st4" d="M47,93.2c0-4.9-2.6-9.5-6.8-12.2
		c-2,1.5-3.3,3.6-3.8,6c-1.3,6.8-2.8,13.6-4.2,20.4h0.3C40.5,107.4,46.9,101.1,47,93.2z"/>
</g>
</svg>
