<?xml version="1.0" encoding="utf-8"?>
<!-- Generator: Adobe Illustrator 27.7.0, SVG Export Plug-In . SVG Version: 6.00 Build 0)  -->
<svg version="1.1" id="Capa_1" xmlns="http://www.w3.org/2000/svg" xmlns:xlink="http://www.w3.org/1999/xlink" x="0px" y="0px"
	 viewBox="0 0 211 129.1" style="enable-background:new 0 0 211 129.1;" xml:space="preserve">
<style type="text/css">
	.st0{fill:#FFFFFF;}
	.st1{fill:#FECD38;}
	.st2{fill:#1C3866;}
	.st3{fill:#EFBF2F;}
	.st4{fill:none;}
	.st5{fill:#F7C531;}
	.st6{fill:#0077B1;}
</style>
<path class="st0" d="M148,25.1l-21.5,62.2l-5.8,2.6l-47.6,0v11.5c0,0,49.5-0.1,54.8,0s6.9-1.6,8.3-5.9s17.2-52,18.4-55.6
	C157.7,30.9,148,25.1,148,25.1z"/>
<g>
	<path id="Trazado_3842" class="st1" d="M107.5,92.2c-3.3,0-6.7,0.1-10,0.1c-1.3,0-2.7,0-4-0.1l-0.4,0.1l0,0
		c-0.9,2.6-1.8,5.2-2.8,7.8l0,0c0,0.1-0.1,0.3-0.2,0.4c-0.5,1.6-0.9,3.2-1.4,4.8l0,0c-0.4,1.5-0.6,3-0.8,4.5l0,0
		c-0.2,1.8-0.6,4.8,1.7,4.7c1.1-0.3,2.1-0.8,2.9-1.7v-0.2c0.1-1.5,0.2-3,0.5-4.5c0.1-0.9,0.3-1.8,0.8-2.6c0.3,0.6,0.7,1.1,1,1.7
		c0.5,0.8,1,1.6,1.5,2.2c0.1,0.1,0.2,0.2,0.2,0.2l0,0c0.3,0.4,0.6,0.9,0.9,1.2c0.6,0.7,1.4,1.3,2.2,1.8c2.2,0.9,4.7-0.2,5.6-2.3
		v-0.1c0.5-1.6,1-3.2,1.3-4.8c0.2-1.9,0.4-3.8,0.8-5.8l0,0l0.4-7.6l0,0L107.5,92.2z"/>
	<path id="Trazado_3843" class="st2" d="M154.3,38.4c-0.4,1.2-0.8,2.4-1.2,3.6c-3.2,9.4-6.2,18.8-9.4,28.2c-0.4,1.2-0.8,2.4-1.2,3.6
		c-2.3,7.1-4.8,14.2-7.1,21.2c-0.8,2.7-3.2,4.6-6,4.8c-4,0.1-8,0.1-11.9,0.2c-3.3,0.1-6.7,0.1-10,0.1c-0.4,1.9-0.6,3.8-0.8,5.8
		c1.6,0,3.2,0,4.8,0.1c1,0,17.1,0.2,18.1,0.2c1.2,0.1,2.3,0.1,3.5,0.1c2.7,0,5.1-1.7,6-4.2c0.6-1.4,1-2.8,1.5-4.2l3.5-10
		c1.6-4.3,3.2-8.7,4.8-13.1c1-2.8,2-5.6,3-8.3c0.8-2.1,1.5-4.2,2.2-6.2c0.5-1.6,1.1-3.2,1.7-4.8c0.8-2.6,1.8-5.1,2.8-7.6
		c0.8-2.4,1.7-4.8,2.6-7.2c0.7-1.5,1.1-3.1,1.2-4.7c0-3-2.2-5.5-5.1-6c-1.4-0.2-2.8-0.2-4.2-0.2l0,0
		C155.2,32.2,155.3,35.1,154.3,38.4z"/>
	<path id="Trazado_3844" class="st3" d="M96.3,109.5l-1.5-2.2c-0.4-0.7-0.8-1.2-1-1.7c-0.4,0.8-0.6,1.7-0.8,2.6
		c-0.3,1.5-0.4,3-0.5,4.5v0.2c1.4-0.9,2.7-1.9,3.9-3.1C96.4,109.7,96.4,109.6,96.3,109.5z"/>
	<path id="Trazado_3845" class="st1" d="M91.1,39.7c-2.8,4.8-4,10.1-2.6,15.7c0.7,2.9,2.2,5.6,4.3,7.7c3.1,2.9,7.2,4.6,11.4,4.6h0.4
		c2.2,0,4.5-0.4,6.6-1.1c6.1-2,11.2-6.2,14.4-11.7c2.7-4.3,3.7-9.4,2.9-14.3C127.1,32,121,27.8,113.4,27c-0.6-0.1-1.2-0.1-1.8-0.1
		c-2.5,0-5,0.6-7.3,1.6C98.8,30.4,94,34.4,91.1,39.7z M108.5,34.3c0.5-1.2,1.6-2,2.8-2.1h4.4c0.3,0,0.5,0.1,0.8,0.2
		c0.7,0.4,0.9,1.2,0.6,1.9l-2.9,7.9h7.9c0.3,0,0.5,0.1,0.8,0.2c0.7,0.4,0.9,1.2,0.6,1.9l-1.6,4.4c-0.5,1.2-1.6,2-2.8,2.1h-7.9
		l-2.9,7.9c-0.5,1.2-1.6,2-2.8,2.1h-4.4c-0.3,0-0.5-0.1-0.8-0.2c-0.7-0.4-0.9-1.2-0.6-1.9l2.9-7.9h-7.9c-0.3,0-0.5-0.1-0.8-0.2
		c-0.7-0.4-0.9-1.2-0.6-1.9l1.6-4.4c0.5-1.2,1.6-2,2.8-2.1h7.9L108.5,34.3z"/>
	<path id="Trazado_3846" class="st0" d="M94.8,44.2l-1.6,4.5c-0.4,0.7-0.1,1.5,0.5,1.9l0,0c0.2,0.1,0.5,0.2,0.8,0.2h7.9l-2.9,7.9
		c-0.4,0.7-0.1,1.5,0.5,1.9l0,0c0.2,0.1,0.5,0.2,0.8,0.2h4.4c1.3-0.1,2.4-0.9,2.8-2.1l2.9-7.9h7.9c1.3-0.1,2.4-0.9,2.8-2.1l1.6-4.4
		c0.4-0.7,0.1-1.5-0.5-1.9l0,0c-0.2-0.1-0.5-0.2-0.8-0.2h-7.8l2.9-7.9c0.4-0.7,0.1-1.5-0.5-1.9l0,0c-0.2-0.1-0.5-0.2-0.8-0.2h-4.4
		c-1.3,0.1-2.4,0.9-2.8,2.1l-2.9,7.9h-7.9C96.5,42.2,95.3,43,94.8,44.2z"/>
	<path id="Trazado_3847" class="st4" d="M146.2,16c-2.4,6.8-4.8,13.5-7.2,20.2c-0.4,1.2-0.9,2.5-1.3,3.8c0.4-1.2,0.9-2.5,1.3-3.8
		C141.4,29.5,143.8,22.8,146.2,16c0.1-0.3,0.2-0.8,0.2-1.1l0,0C146.4,15.3,146.3,15.7,146.2,16z"/>
	<path id="Trazado_3848" class="st4" d="M92.8,63c3.1,2.9,7.2,4.6,11.4,4.6h0.4c2.2,0,4.5-0.4,6.6-1.1c6.1-2,11.2-6.2,14.4-11.7
		c2.7-4.3,3.7-9.4,2.9-14.3c-1.4-8.6-7.5-12.8-15.1-13.6c-0.6-0.1-1.2-0.1-1.8-0.1c-2.5,0-5,0.6-7.3,1.6
		c-5.6,2.1-10.3,6.2-13.2,11.4c-2.8,4.8-4,10.1-2.6,15.7C89.2,58.4,90.7,61,92.8,63z"/>
	<path id="Trazado_3849" class="st4" d="M122.9,81.4c-0.9,2.8-3.5,4.6-6.4,4.7c-4.9,0.1-9.8,0-14.8,0.2c-6.7,0.2-13.2,0.1-19.9,0.2
		c-1.2,0-2.4,0.1-3.6,0.1l0,0c1.2,0,2.4,0,3.6-0.1c6.7-0.2,13.2,0,19.9-0.2c4.9-0.2,9.8-0.1,14.8-0.2
		C119.4,86.1,122,84.2,122.9,81.4c3.6-9.9,7.1-19.9,10.7-29.8c1.3-3.8,2.8-7.7,4.1-11.5c-1.3,3.8-2.8,7.7-4.1,11.5
		C130,61.5,126.5,71.5,122.9,81.4z"/>
	<path id="Trazado_3851" class="st5" d="M76.5,95.5c0.5-0.9,0.9-1.9,1.2-2.9c-0.1,0-0.2,0.1-0.2,0.1C76.5,93.2,76.1,94.4,76.5,95.5z
		"/>
	<path id="Trazado_3852" class="st2" d="M146.5,14.9L146.5,14.9c-0.1,0.4-0.2,0.8-0.2,1.1c-2.4,6.8-4.8,13.5-7.2,20.2
		c-0.4,1.2-0.9,2.5-1.3,3.8c-1.3,3.8-2.8,7.7-4.1,11.5c-3.6,9.9-7.1,19.9-10.7,29.8c-0.9,2.8-3.5,4.6-6.4,4.7
		c-4.9,0.1-9.8,0-14.8,0.2c-6.7,0.2-13.2,0.1-19.9,0.2c-1.2,0-2.4,0.1-3.6,0.1c-4.9,0-9.8,0-14.8,0.2c-0.5,0-0.8,0-0.8,0.7
		c0.1,0.7,0.3,1.5,0.8,2.1c2.8,3.9,5.4,7.9,8.2,11.8c0.3,0.5,0.8,1,1.1,1.5c1.1,1.6,3,2.5,4.9,2.5c3.8,0.1,7.6,0.2,11.3,0.2l0,0
		l1.4-4.8c0.1-0.1,0.1-0.3,0.2-0.4h-0.2c-2.6-0.1-5.1,0-7.7,0.1h-1.3c-1.2,0-2.2-0.6-2.8-1.6c-0.6-1-1.2-1.8-1.8-2.8
		c-0.1-0.2-0.2-0.2-0.2-0.4c-0.4-1.1,0-2.3,1-2.8c0.1-0.1,0.2-0.1,0.2-0.1c0.3-0.2,0.7-0.2,1-0.2h14.5V92c1.4,0,2.9,0.1,4.3,0.1
		c3.4,0,6.8-0.1,10.2-0.1v0.1h12.9c3,0,5.3-1.1,6.7-3.9c0.6-1.2,0.9-2.5,1.4-3.7l2-5.5c1-2.7,1.9-5.3,2.9-8.1c0.8-2.3,1.7-4.7,2.6-7
		c1-2.7,1.9-5.3,2.9-8c0.9-2.6,1.9-5.2,2.8-7.8c1.8-5.1,3.8-10.2,5.6-15.3c0.8-2.2,1.5-4.3,2.4-6.5l0,0c0-0.3,0.1-0.6,0.2-0.9
		c0.5-1.1,0.9-2.2,1.1-3.4C151.7,18.8,149.6,15.8,146.5,14.9z"/>
	<path id="Trazado_3853" class="st6" d="M145.3,14.5h-0.5c-4.5,0.2-9,0.8-13.5,1.2c-3.8,0.3-7.6,0.7-11.3,1l-11.2,1
		c-3.7,0.3-7.3,0.8-11.1,1c-2.7,0.1-5.1,1.7-6.2,4.2c-3.5,7.5-7,14.9-10.5,22.4c-2.2,4.8-4.5,9.5-6.8,14.3
		c-2.2,4.6-4.2,9.2-6.4,13.7c-1.8,3.8-3.6,7.7-5.3,11.5v2.5h0.2c0-0.6,0.4-0.6,0.8-0.7c4.9-0.2,9.8-0.1,14.7-0.2
		c1.2,0,2.4,0,3.6-0.1c6.7-0.2,13.2,0,19.9-0.2c4.9-0.2,9.8-0.1,14.8-0.2c2.9,0,5.5-1.9,6.4-4.7c3.6-9.9,7.1-19.9,10.7-29.8
		c1.3-3.8,2.8-7.7,4.1-11.5c0.4-1.2,0.9-2.5,1.3-3.8c2.4-6.8,4.8-13.5,7.2-20.2c0.1-0.3,0.2-0.8,0.2-1.1l0,0
		C146,14.7,145.7,14.5,145.3,14.5z M125.6,54.8c-3.2,5.6-8.3,9.8-14.4,11.8c-2.1,0.7-4.3,1.1-6.6,1.1h-0.4c-4.3,0-8.3-1.7-11.4-4.6
		c-2.2-2.1-3.7-4.7-4.3-7.7C87,49.8,88.3,44.5,91,39.7c2.9-5.2,7.6-9.3,13.2-11.4c2.3-1,4.8-1.5,7.3-1.6c0.6,0,1.2,0,1.8,0.1
		c7.6,0.8,13.7,5.1,15.1,13.6C129.3,45.4,128.3,50.5,125.6,54.8z"/>
	<circle class="st5" cx="64.8" cy="87.4" r="15.8"/>
</g>
</svg>
