<?xml version="1.0" encoding="utf-8"?>
<!-- Generator: Adobe Illustrator 27.5.0, SVG Export Plug-In . SVG Version: 6.00 Build 0)  -->
<svg version="1.1" id="Capa_1" xmlns="http://www.w3.org/2000/svg" xmlns:xlink="http://www.w3.org/1999/xlink" x="0px" y="0px"
	 viewBox="0 0 211 129.1" style="enable-background:new 0 0 211 129.1;" xml:space="preserve">
<style type="text/css">
	.st0{fill:#133F69;}
	.st1{fill:none;}
	.st2{fill:#D9D6D6;}
	.st3{fill:#087CBD;}
	.st4{fill:#F7C531;}
	.st5{fill:#FECD38;}
	.st6{fill:#1C3866;}
	.st7{fill:#EFBF2F;}
	.st8{fill:#FFFFFF;}
	.st9{fill:#0077B1;}
	.st10{clip-path:url(#SVGID_00000018928212427533588920000003006190027868845495_);}
	.st11{clip-path:url(#SVGID_00000085229518548981503300000009996040465051559076_);}
	.st12{clip-path:url(#SVGID_00000098900104728184705070000006509195564635661702_);}
	.st13{clip-path:url(#SVGID_00000101811344188007426800000009004852162588402084_);}
	.st14{clip-path:url(#SVGID_00000013871723777390865560000005924698814888480416_);}
	.st15{clip-path:url(#SVGID_00000108299874975521636960000005840442446082483609_);}
	.st16{clip-path:url(#SVGID_00000139270610904375290900000015639002031888496042_);}
	.st17{clip-path:url(#SVGID_00000011728560923133363210000000817068605682821818_);}
	.st18{clip-path:url(#SVGID_00000101818768928210568960000017327979196444621460_);}
	.st19{clip-path:url(#SVGID_00000147198050342585305090000016747057356556052618_);}
	.st20{clip-path:url(#SVGID_00000125575055642137970470000011057291544560842169_);}
	.st21{clip-path:url(#SVGID_00000032607407176534359880000011025600357214432954_);}
	.st22{clip-path:url(#SVGID_00000098916154410992468520000017885505067743085962_);}
	.st23{clip-path:url(#SVGID_00000059302991404384729700000010167123669010433459_);}
	.st24{clip-path:url(#SVGID_00000140710576400569017380000016811923738157874356_);}
	.st25{clip-path:url(#SVGID_00000112627772463412864350000013230348998309145251_);}
	.st26{clip-path:url(#SVGID_00000067227350684076711510000000927708815979368118_);}
	.st27{clip-path:url(#SVGID_00000030462403865778914690000018013567819025131152_);}
	.st28{clip-path:url(#SVGID_00000133504982293043000780000005094593698052317327_);}
	.st29{clip-path:url(#SVGID_00000046298862672935051980000000923431252556587949_);}
	.st30{clip-path:url(#SVGID_00000076603389623913875230000014631242758080256958_);}
	.st31{clip-path:url(#SVGID_00000176027159203890587800000012247663089610256809_);}
	.st32{clip-path:url(#SVGID_00000106110353801224882900000005799578539217392773_);}
	.st33{clip-path:url(#SVGID_00000006675002975035297870000004970411757035222956_);}
	.st34{clip-path:url(#SVGID_00000005965822194616226850000010662788157854428329_);}
	.st35{clip-path:url(#SVGID_00000154397592777752815890000003441598885240835746_);}
	.st36{clip-path:url(#SVGID_00000037677169053206457330000014724962060617193142_);}
	.st37{clip-path:url(#SVGID_00000145034859816295138550000008036095047680235406_);}
	.st38{clip-path:url(#SVGID_00000000182119373950965010000015171588317588626333_);}
	.st39{clip-path:url(#SVGID_00000070829485245729323320000017494224497753642921_);}
	.st40{clip-path:url(#SVGID_00000060025762611378544090000010186078768099744904_);}
	.st41{clip-path:url(#SVGID_00000015327644886798959400000008511389886702071475_);}
	.st42{clip-path:url(#SVGID_00000155112071340107754150000009549476189882536580_);}
	.st43{fill:#A4A1A1;}
	.st44{fill:#F4C230;}
	.st45{fill:#F4F4F6;}
	.st46{fill:#743E74;}
	.st47{fill:#143B64;}
	.st48{fill:#787777;}
	.st49{fill:#B3B4B3;}
	.st50{fill:#EFBF2F;enable-background:new    ;}
	.st51{fill:#325D86;}
</style>
<g id="Community_Based_Organizations-2" transform="translate(39 -12.077)">
	<path id="Trazado_554" class="st3" d="M69.3,53.4c21.5,0.1,39.2,17.8,39,39.1c-0.1,21.6-17.6,39-39.1,39.1
		c-21.5-0.1-39.2-17.8-39-39.1C30.2,70.9,47.7,53.4,69.3,53.4z M58.1,90.8h8.4c0.6,0,1-0.1,1-0.8V74.7c0-0.6-0.2-0.9-0.8-0.8h-14
		c-0.5-0.1-0.9,0.3-1,0.7c-0.4,1.4-0.8,2.8-1.2,4c-0.9,3.7-1.5,7.5-1.7,11.3c-0.1,0.7,0.3,0.9,0.9,0.9L58.1,90.8z M80.2,90.8h7.2
		c2.1,0,2.1,0,2-2.1c-0.2-4.7-1.1-9.4-2.6-13.9c-0.1-0.6-0.6-1-1.2-0.9c0,0-0.1,0-0.1,0H72.1c-0.8,0-1.1,0.2-1.1,1.1v14.8
		c0,0.8,0.2,1.1,1.1,1.1C74.7,90.8,77.5,90.8,80.2,90.8z M58.2,94.2h-7.1c-2.3,0-2.3,0-2.2,2.2c0.2,4.7,1.1,9.4,2.6,13.9
		c0.1,0.6,0.6,0.9,1.2,0.8h13.7c0.8,0,1-0.3,1-1V95.2c0-0.8-0.3-1-1.1-1H58.2z M80.3,94.2h-8.2c-0.7,0-1.1,0.2-1.1,1v15.1
		c0,0.6,0.2,0.9,0.9,0.9h14c0.4,0.1,0.8-0.2,0.9-0.6c0,0,0,0,0-0.1c0.4-1.3,0.8-2.7,1.2-3.9c0.9-3.7,1.5-7.5,1.7-11.4
		c0.1-0.7-0.2-1-0.9-1C85.9,94.2,83.1,94.2,80.3,94.2L80.3,94.2z M99,90.8h5.1c0.6,0,0.9-0.2,0.8-0.8c-0.2-0.9-0.2-1.9-0.4-2.8
		c-0.7-4.5-2.2-8.8-4.5-12.7c-0.2-0.5-0.6-0.7-1.1-0.6h-7.9c-0.7,0-0.8,0.3-0.6,0.9c0.4,1.1,0.6,2.2,0.9,3.3
		C92.3,82,92.9,86,93.1,90c0.1,0.7,0.4,0.9,1,0.9C95.6,90.8,97.4,90.8,99,90.8L99,90.8z M99,94.2h-4.9c-0.7,0-1.1,0.1-1.2,1
		c-0.1,1.2-0.1,2.4-0.2,3.6c-0.4,3.9-1.2,7.7-2.3,11.4c-0.3,0.8,0,1,0.7,1c2.2,0,4.5-0.1,6.7,0c1.2,0.2,2.3-0.5,2.7-1.6
		c2.4-4.5,3.9-9.5,4.3-14.6c0.1-0.7-0.2-0.8-0.8-0.8C102.4,94.2,100.8,94.2,99,94.2L99,94.2z M39.4,90.8L39.4,90.8
		c1.7,0,3.2,0,4.9,0.1c0.7,0,1.1-0.1,1.2-1c0.1-1.2,0.1-2.4,0.2-3.6c0.4-3.9,1.2-7.7,2.3-11.5c0.3-0.8,0-1-0.7-1
		c-2.3,0-4.5,0.1-6.8,0c-1.1-0.1-2.1,0.5-2.5,1.5c-2.5,4.6-4,9.6-4.4,14.8c-0.1,0.7,0.3,0.7,0.8,0.7L39.4,90.8z M39.5,94.2
		L39.5,94.2c-1.7,0-3.4,0.1-5.1,0c-0.6,0-0.9,0.2-0.7,0.9c0.2,0.9,0.2,1.9,0.4,2.8c0.6,4.4,2.2,8.7,4.5,12.5
		c0.2,0.5,0.6,0.8,1.1,0.7h8c0.6,0,0.7-0.2,0.6-0.8c-0.4-1.1-0.6-2.3-0.9-3.4c-0.9-3.9-1.5-7.9-1.7-11.9c-0.1-0.7-0.3-0.9-1-0.9
		C42.8,94.2,41.2,94.2,39.5,94.2L39.5,94.2z M60.4,70.4h6.2c0.6,0,0.9-0.2,0.9-0.8V57.7c0-0.7-0.3-0.8-0.9-0.6
		c-1.6,0.4-3.1,1-4.4,1.9c-3.9,2.7-6.4,6.3-8.4,10.5c-0.4,0.7-0.2,0.8,0.6,0.8L60.4,70.4z M78,70.4h6.1c0.9,0,0.9-0.3,0.6-0.9
		c-1.3-2.9-3.1-5.6-5.3-7.9c-2-2.2-4.6-3.7-7.4-4.5c-0.8-0.2-1,0-1,0.8v11.5c0,0.7,0.3,0.9,0.9,0.9H78z M78.1,114.7h-6.2
		c-0.6,0-0.9,0.2-0.9,0.9v11.6c0,0.6,0.2,0.8,0.8,0.7c1.6-0.4,3.1-1,4.5-1.9c3.9-2.7,6.5-6.4,8.5-10.6c0.3-0.6,0.1-0.8-0.6-0.8
		C82.2,114.7,80.2,114.7,78.1,114.7L78.1,114.7z M60.5,114.7h-6.1c-1.2,0-1.2,0-0.6,1.1c1.1,2.2,2.4,4.3,3.9,6.2
		c2.4,2.8,5,5,8.7,5.9c0.8,0.2,1-0.1,1-0.8v-11.5c0-0.7-0.3-1-1-1C64.6,114.7,62.5,114.7,60.5,114.7L60.5,114.7z M82.3,59.6
		c0,0.1,0.1,0.2,0.1,0.3c2.6,3,4.7,6.3,6.2,10c0.2,0.5,0.7,0.7,1.2,0.6h6.2c0.3,0,0.7,0.2,0.8-0.2c0.1-0.3-0.3-0.5-0.5-0.6
		c-3.5-4.2-7.9-7.5-12.9-9.6C83.3,59.6,82.8,59.4,82.3,59.6L82.3,59.6z M82.2,125.5c0.1,0,0.2,0.1,0.3,0.1c0.3-0.1,0.5-0.1,0.7-0.2
		c5.2-2.2,9.8-5.6,13.4-10c0.1-0.2,0.4-0.3,0.3-0.6s-0.5-0.2-0.6-0.2h-6.6c-0.5,0-1,0.3-1.1,0.8c-1.2,2.7-2.7,5.3-4.5,7.7
		C83.5,123.9,82.9,124.7,82.2,125.5z M56.2,59.6c-0.4-0.3-0.6-0.1-0.9,0.1c-5.2,2.3-9.9,5.7-13.6,10.1c-0.1,0.1-0.3,0.4-0.2,0.5
		c0.1,0.3,0.4,0.2,0.6,0.2c2.1,0,4.2,0,6.3,0.1c0.7,0.1,1.3-0.4,1.4-1c1.1-2.7,2.6-5.3,4.4-7.6C55,61.2,55.6,60.4,56.2,59.6z
		 M56.1,125.7c0-0.2,0-0.4-0.1-0.4c-2.5-2.8-4.5-6-6-9.4c-0.4-0.8-1.2-1.3-2-1.2h-5.9c-0.3,0-0.6-0.1-0.6,0.2s0.2,0.5,0.3,0.6
		c2.7,3.2,6,6,9.6,8.1C52.9,124.4,54.5,125.1,56.1,125.7L56.1,125.7z"/>
	<g id="Grupo_680" transform="translate(61.22 75.394)">
		<path id="Trazado_555" class="st47" d="M-3.1,15.4h-8.4c-0.6,0-1-0.2-0.9-0.9c0.2-3.8,0.7-7.6,1.7-11.3c0.4-1.4,0.8-2.8,1.2-4
			c0.1-0.5,0.5-0.8,1-0.7h14c0.6,0,0.8,0.3,0.8,0.8v15.3c0,0.7-0.4,0.8-1,0.8L-3.1,15.4z"/>
		<path id="Trazado_556" class="st47" d="M19,15.4h-8.2c-0.8,0-1.1-0.3-1.1-1.1V-0.5c0-0.8,0.4-1.1,1.1-1.1h13.6
			c0.6-0.1,1.2,0.3,1.3,0.9c1.5,4.5,2.4,9.2,2.6,13.9c0.1,2.1,0.1,2.1-2,2.1L19,15.4z"/>
		<path id="Trazado_557" class="st47" d="M-3,18.8h8.2c0.7,0,1.1,0.2,1.1,1v14.9c0,0.8-0.3,1.1-1,1H-8.3c-0.6,0.1-1.1-0.3-1.2-0.8
			c-1.5-4.5-2.4-9.2-2.6-13.9c-0.1-2.2-0.1-2.2,2.2-2.2L-3,18.8z"/>
		<path id="Trazado_558" class="st47" d="M19.1,18.8h8.4c0.7,0,1,0.3,0.9,1c-0.2,3.8-0.7,7.6-1.7,11.4c-0.4,1.3-0.8,2.7-1.2,3.9
			c-0.1,0.4-0.5,0.7-0.9,0.6h-14c-0.7,0-0.9-0.3-0.9-0.9V19.7c0-0.8,0.4-1,1.1-1C13.5,18.8,16.3,18.8,19.1,18.8z"/>
		<path id="Trazado_559" class="st47" d="M37.8,15.4h-4.9c-0.6,0-0.9-0.2-1-0.9c-0.2-4-0.7-8-1.7-11.9c-0.3-1.1-0.6-2.2-0.9-3.3
			c-0.2-0.6-0.1-0.9,0.6-0.9h7.9c0.5,0,0.9,0.2,1.1,0.6c2.3,3.9,3.8,8.2,4.5,12.7c0.1,0.9,0.2,1.9,0.4,2.8c0.1,0.7-0.2,0.9-0.8,0.8
			C41.2,15.4,39.4,15.4,37.8,15.4z"/>
		<path id="Trazado_560" class="st47" d="M37.8,18.8h4.9c0.6,0,0.8,0.1,0.8,0.8c-0.4,5.1-1.8,10.1-4.3,14.6
			c-0.4,1.1-1.5,1.8-2.7,1.6c-2.2-0.1-4.5-0.1-6.7,0c-0.8,0-1-0.2-0.7-1c1.1-3.7,1.9-7.5,2.3-11.4c0.1-1.2,0.1-2.4,0.2-3.6
			c0.1-0.9,0.5-1,1.2-1C34.6,18.8,36.2,18.8,37.8,18.8z"/>
		<path id="Trazado_561" class="st47" d="M-21.8,15.4h-4.9c-0.6,0-0.8-0.1-0.8-0.7c0.4-5.2,1.9-10.2,4.4-14.8c0.4-1,1.4-1.6,2.5-1.5
			c2.3,0.1,4.5,0,6.8,0c0.8,0,1,0.2,0.7,1c-1.1,3.7-1.9,7.6-2.3,11.5c-0.1,1.2-0.1,2.4-0.2,3.6c-0.1,0.9-0.5,1-1.2,1
			C-18.6,15.4-20.1,15.4-21.8,15.4z"/>
		<path id="Trazado_562" class="st47" d="M-21.7,18.8h4.9c0.6,0,0.9,0.2,1,0.9c0.2,4,0.7,8,1.7,11.9c0.3,1.1,0.6,2.3,0.9,3.4
			c0.2,0.6,0,0.8-0.6,0.8h-8c-0.5,0-0.9-0.3-1.1-0.7c-2.3-3.8-3.8-8.1-4.5-12.5c-0.2-0.9-0.2-1.9-0.4-2.8c-0.1-0.7,0.1-0.9,0.7-0.9
			C-25.1,18.9-23.4,18.8-21.7,18.8L-21.7,18.8z"/>
		<path id="Trazado_563" class="st47" d="M-0.8-5h-6.1c-0.7,0-0.9-0.1-0.6-0.8c2-4.1,4.6-7.9,8.4-10.5c1.3-0.9,2.8-1.6,4.4-1.9
			c0.6-0.2,0.9-0.1,0.9,0.6v11.8C6.3-5.2,6-5,5.3-5L-0.8-5z"/>
		<path id="Trazado_564" class="st47" d="M16.8-5h-6.1C10-5,9.7-5.2,9.7-5.9v-11.6c0-0.7,0.2-1,1-0.8c2.9,0.7,5.4,2.3,7.4,4.5
			c2.2,2.3,4,5,5.3,7.9c0.4,0.7,0.4,1-0.6,0.9H16.8z"/>
		<path id="Trazado_565" class="st47" d="M16.9,39.3H23c0.6,0,0.8,0.1,0.6,0.8c-2,4.2-4.6,8-8.5,10.6c-1.4,0.9-2.9,1.6-4.5,1.9
			c-0.6,0.2-0.8-0.1-0.8-0.7V40.3c0-0.7,0.3-0.9,0.9-0.9C12.8,39.3,14.9,39.3,16.9,39.3z"/>
		<path id="Trazado_566" class="st47" d="M-0.7,39.3h6.1c0.7,0,1,0.2,1,1c0,3.9-0.1,7.6,0,11.5c0,0.7-0.2,1-1,0.8
			c-3.7-0.9-6.3-3.1-8.7-5.9c-1.6-1.9-2.9-4-3.9-6.2c-0.6-1.1-0.6-1.1,0.6-1.1C-4.7,39.2-2.7,39.2-0.7,39.3z"/>
		<path id="Trazado_567" class="st47" d="M21.1-15.8c0.5-0.1,0.9,0.1,1.3,0.4c5,2.2,9.4,5.5,12.9,9.6c0.2,0.2,0.6,0.4,0.5,0.6
			C35.7-4.8,35.2-5,35-5h-6.2c-0.5,0.1-1-0.2-1.2-0.6c-1.5-3.7-3.6-7.1-6.2-10C21.1-15.6,21.1-15.7,21.1-15.8z"/>
		<path id="Trazado_568" class="st47" d="M21,50.1c0.6-0.8,1.3-1.6,1.8-2.3c1.8-2.4,3.3-5,4.5-7.7c0.3-0.6,0.5-0.8,1.1-0.8H35
			c0.2,0,0.6-0.1,0.6,0.2c0.1,0.2-0.1,0.4-0.3,0.6c-3.6,4.3-8.2,7.7-13.4,10c-0.2,0.1-0.5,0.2-0.7,0.2C21.2,50.2,21.1,50.1,21,50.1z
			"/>
		<path id="Trazado_569" class="st47" d="M-5-15.8c-0.6,0.7-1.3,1.6-1.8,2.3c-1.8,2.4-3.2,4.9-4.4,7.6c-0.2,0.6-0.7,1-1.4,1
			c-2.1-0.1-4.2,0-6.3-0.1c-0.3,0-0.6,0.1-0.6-0.2c0-0.2,0.1-0.3,0.2-0.5c3.7-4.4,8.3-7.9,13.6-10.1C-5.6-15.9-5.3-15.9-5-15.8z"/>
		<path id="Trazado_570" class="st47" d="M-5.1,50.3c-1.6-0.6-3.1-1.3-4.6-2.2c-3.7-2.1-6.9-4.8-9.6-8.1c-0.2-0.2-0.5-0.4-0.3-0.6
			c0.1-0.3,0.5-0.2,0.6-0.2h5.9c0.9,0,1.6,0.4,2,1.2c1.5,3.5,3.5,6.7,6.1,9.4C-5.1,49.9-5.1,50-5.1,50.3z"/>
	</g>
	<circle id="Elipse_24" class="st49" cx="81.2" cy="40.6" r="19"/>
	<circle id="Elipse_25" class="st50" cx="21.1" cy="105.9" r="17"/>
	<circle id="Elipse_26" class="st8" cx="112.3" cy="82.3" r="16.7"/>
	<path id="Trazado_3872" class="st7" d="M38.5,90.3h-0.2c-0.7-0.2-1.3-0.5-1.9-0.8c-0.4-0.3-0.5-0.8-0.3-1.2
		c0.3-0.4,0.8-0.5,1.2-0.3c0.4,0.3,0.9,0.5,1.4,0.6c0.5,0.1,0.7,0.6,0.6,1c0,0,0,0,0,0C39.2,90,38.9,90.3,38.5,90.3z M41.9,90
		c-0.4,0-0.7-0.2-0.8-0.6c-0.2-0.4,0.1-0.9,0.5-1.1c0,0,0,0,0,0c1-0.4,2-0.9,2.8-1.5c0.4-0.3,0.9-0.2,1.2,0.1
		c0.3,0.4,0.2,0.9-0.1,1.2c0,0,0,0,0,0c-1,0.7-2.1,1.2-3.2,1.7C42.2,90,42,90,41.9,90z M47.7,86.2c-0.2,0-0.4-0.1-0.6-0.3
		c-0.3-0.3-0.4-0.8-0.1-1.1c0,0,0.1-0.1,0.1-0.1l0.4-0.4c0.1-0.4,0.6-1.3,1.1-2.5c0.2-0.4,0.7-0.6,1.1-0.4c0.4,0.2,0.6,0.7,0.4,1.1
		c-0.4,0.8-0.8,1.6-1.1,2.4l-0.1,0.2l-0.1,0.1c-0.2,0.2-0.3,0.4-0.5,0.6C48.2,86.1,47.9,86.2,47.7,86.2L47.7,86.2z M51.1,80.2
		c-0.2,0-0.3-0.1-0.5-0.2c-0.4-0.3-0.5-0.8-0.2-1.2c0.6-1,1.4-1.9,2.2-2.8c0.3-0.4,0.8-0.4,1.2-0.1c0.4,0.3,0.4,0.8,0.1,1.2
		c0,0,0,0,0,0c-0.7,0.8-1.4,1.7-2,2.6C51.7,80,51.4,80.2,51.1,80.2L51.1,80.2z M55.8,75.2c-0.3,0-0.6-0.1-0.7-0.4
		c-0.3-0.4-0.2-0.9,0.2-1.2c1-0.7,2.1-1.3,3.2-1.7c0.5-0.1,0.9,0.1,1.1,0.6c0.1,0.4-0.1,0.9-0.5,1.1c-1,0.4-1.9,0.9-2.8,1.5
		C56.1,75.1,55.9,75.1,55.8,75.2L55.8,75.2z M69,73.8c-0.4,0-0.8-0.3-0.8-0.7c-0.1-0.4,0.2-0.8,0.6-0.9c0,0,0.1,0,0.1,0
		c1-0.1,2.1-0.4,3-0.8c0.4-0.2,0.9,0,1.1,0.4c0.2,0.4,0,0.9-0.4,1.1c0,0,0,0-0.1,0C71.5,73.4,70.3,73.7,69,73.8L69,73.8z M65.6,73.6
		h-0.2c-0.2-0.1-0.5-0.1-0.7-0.2c-0.8-0.2-1.6-0.3-2.5-0.4c-0.5,0-0.8-0.4-0.8-0.8c0-0.5,0.4-0.8,0.8-0.8l0,0c1,0,2,0.2,2.9,0.4
		c0.2,0.1,0.4,0.1,0.6,0.2c0.5,0.1,0.7,0.6,0.6,1c0,0,0,0,0,0C66.3,73.3,65.9,73.6,65.6,73.6z M75.4,71c-0.2,0-0.5-0.1-0.6-0.3
		c-0.3-0.4-0.3-0.9,0.1-1.2c0.8-0.7,1.6-1.5,2.3-2.3c0.3-0.4,0.8-0.4,1.2-0.1c0.4,0.3,0.4,0.8,0.1,1.2c-0.8,0.9-1.6,1.8-2.5,2.6
		C75.7,71,75.6,71,75.4,71z M79.8,65.7c-0.2,0-0.3,0-0.5-0.1c-0.4-0.3-0.5-0.8-0.3-1.2c0.6-0.9,1.1-1.9,1.5-2.9
		c0.2-0.4,0.7-0.6,1.1-0.4c0.4,0.2,0.6,0.6,0.4,1.1c-0.4,1.1-1,2.2-1.6,3.2C80.3,65.6,80.1,65.7,79.8,65.7L79.8,65.7z"/>
	<path id="Trazado_3873" class="st7" d="M63.5,124.8c-0.4,0-0.9,0-1.3-0.1c-0.5,0-0.9-0.4-0.8-0.9c0-0.5,0.4-0.9,0.9-0.8
		c1.1,0.1,2.1,0.1,3.2-0.1c0.5-0.1,0.9,0.3,1,0.8c0.1,0.5-0.3,0.9-0.7,1C65,124.8,64.2,124.9,63.5,124.8z M58.8,124.1h-0.3
		c-1.2-0.4-2.3-0.9-3.3-1.6c-0.4-0.3-0.5-0.8-0.3-1.2c0.3-0.4,0.8-0.5,1.2-0.3c0.9,0.6,1.8,1,2.8,1.4c0.5,0.1,0.7,0.6,0.6,1.1
		c0,0,0,0,0,0C59.5,123.9,59.1,124.1,58.8,124.1L58.8,124.1z M69,123.7c-0.4,0-0.7-0.2-0.8-0.6c-0.2-0.4,0-0.9,0.4-1.1
		c0,0,0,0,0.1,0c1-0.4,1.9-1,2.7-1.6c0.4-0.3,0.9-0.3,1.2,0.1c0.3,0.4,0.3,0.9-0.1,1.2c-0.9,0.8-2,1.5-3.1,1.9
		C69.3,123.7,69.1,123.7,69,123.7z M53.1,120.3c-0.2,0-0.5-0.1-0.6-0.3c-0.4-0.5-0.7-1-1.1-1.6c-0.3-0.4-0.6-0.8-0.9-1.2
		c-0.3-0.3-0.3-0.9,0-1.2c0.3-0.3,0.9-0.3,1.2,0c0,0,0,0,0,0c0.4,0.4,0.8,0.9,1.1,1.5c0.3,0.5,0.6,0.9,0.9,1.3
		c0.3,0.4,0.3,0.9-0.1,1.2C53.5,120.3,53.3,120.3,53.1,120.3z M74.2,119.2c-0.5,0-0.9-0.3-0.9-0.8c0-0.2,0-0.3,0.1-0.5
		c0.5-0.9,0.9-1.9,1-2.9c0.1-0.5,0.5-0.8,0.9-0.7c0.5,0.1,0.8,0.5,0.7,0.9c-0.1,1.2-0.6,2.4-1.2,3.5C74.8,119,74.5,119.2,74.2,119.2
		z M48.5,115.3c-0.2,0-0.4-0.1-0.6-0.3c-0.3-0.3-0.6-0.6-0.9-1c-0.4-0.5-0.9-0.9-1.4-1.4c-0.4-0.3-0.4-0.8-0.1-1.2
		c0.3-0.4,0.8-0.4,1.2-0.1c0.6,0.5,1.1,1.1,1.6,1.6c0.2,0.3,0.5,0.6,0.8,0.8c0.3,0.3,0.4,0.8,0.1,1.1c0,0-0.1,0.1-0.1,0.1
		C49,115.2,48.7,115.3,48.5,115.3L48.5,115.3z M75.3,112.6c-0.5,0-0.8-0.4-0.8-0.8c0,0,0,0,0,0v-1.3c0-0.8,0.1-1.5,0.2-2.3
		c0.1-0.5,0.5-0.8,1-0.8c0.5,0.1,0.8,0.5,0.8,1c0,0,0,0,0,0c-0.1,0.7-0.2,1.3-0.2,2v1.2C76.1,112.1,75.8,112.5,75.3,112.6
		L75.3,112.6z M43.6,110.4c-0.2,0-0.4-0.1-0.6-0.3c-0.9-0.8-1.7-1.8-2.3-2.8c-0.2-0.4,0-0.9,0.4-1.1c0.4-0.2,0.9,0,1.1,0.4
		c0.5,0.9,1.1,1.7,1.9,2.4c0.3,0.3,0.4,0.8,0.1,1.1c0,0-0.1,0.1-0.1,0.1C44,110.3,43.8,110.5,43.6,110.4z M96.9,108.2
		c-0.2,0-0.5-0.1-0.6-0.3c-0.8-0.8-1.5-1.6-2.4-2.3c-0.4-0.3-0.4-0.8-0.1-1.2s0.8-0.4,1.2-0.1c0,0,0,0,0,0c1.6,1.3,2.5,2.4,2.6,2.4
		c0.3,0.3,0.3,0.8,0,1.1c0,0-0.1,0.1-0.1,0.1C97.3,108.1,97.1,108.3,96.9,108.2z M76.7,105.9c-0.2,0-0.3,0-0.5-0.1
		c-0.4-0.3-0.5-0.8-0.3-1.2c0.4-0.6,0.8-1.2,1.3-1.7l1.1-1.1c0.4-0.3,0.9-0.3,1.2,0.1c0.3,0.4,0.3,0.9-0.1,1.2
		c-0.3,0.3-0.7,0.6-0.9,0.9c-0.4,0.4-0.8,0.9-1.1,1.5C77.2,105.7,77,105.8,76.7,105.9L76.7,105.9z M91.6,103.8
		c-0.2,0-0.3-0.1-0.5-0.1c-0.9-0.6-1.9-1.1-2.8-1.6c-0.4-0.2-0.6-0.7-0.4-1.1c0.2-0.4,0.6-0.6,1.1-0.4c1.1,0.5,2.1,1,3.1,1.7
		c0.4,0.3,0.5,0.8,0.3,1.2C92.2,103.6,91.9,103.8,91.6,103.8L91.6,103.8z M81.9,101.6c-0.4,0-0.7-0.3-0.8-0.6
		c-0.1-0.5,0.1-0.9,0.6-1.1c0.8-0.3,1.7-0.4,2.6-0.4l0,0c0.4,0,0.7,0,1.1,0.1c0.5,0.1,0.8,0.5,0.7,0.9c-0.1,0.5-0.5,0.8-0.9,0.7l0,0
		c-0.4,0-0.6-0.1-0.9-0.1l0,0c-0.7,0-1.4,0.1-2.1,0.3C82.1,101.5,82,101.5,81.9,101.6L81.9,101.6z"/>
	<g id="Grupo_2021" transform="translate(39.883 111.408)">
		<path id="Trazado_360-2" class="st0" d="M-12.9-17.2c0-0.6-0.4-1.1-1-1.2h-6.4c-1.6,0-3,0.9-3.7,2.3c-0.5,1.3-0.6,2.7-0.4,4
			c0.1,0.6,0.4,1.1,0.5,1.7c0.2-0.3,0.4-0.6,0.6-0.8c0.3-0.3,0.5-0.7,0.5-1.1v-0.9c0-0.5,0.1-0.6,0.5-0.7c0.1,0,0.2-0.1,0.4-0.1
			l1.7-0.3c1.2-0.1,2.4,0.1,3.6,0.4c0.6,0.2,1.1,0.4,1.7,0.7c0.4,0.2,0.5,0.5,0.5,0.9c0,0.3,0.1,0.6,0.4,0.8
			c0.3,0.3,0.5,0.6,0.7,0.9c0-0.2,0.1-0.4,0.2-0.6c0.3-0.7,0.4-1.5,0.4-2.2L-12.9-17.2z"/>
		<path id="Trazado_3874" class="st47" d="M-9.8,1.1c0-0.4-0.2-0.8-0.5-1.1c-0.4-0.3-0.8-0.6-1.3-0.7C-11.8-0.9-12-0.9-12.2-1
			l-2.2-0.8l0,0c-0.2-0.3-0.3-0.6-0.5-0.9c-0.1-0.3-0.4-0.5-0.6-0.5c-0.4,0.1-0.7,0.3-1,0.6c-0.7,0.5-1.5,0.8-2.2,1.4
			c-0.4-0.3-0.8-0.5-1.2-0.7c-0.6-0.5-1.3-0.8-2-1.2c-0.3,0-0.5,0.2-0.6,0.5c-0.1,0.3-0.3,0.6-0.5,0.9l0,0c-0.8,0.3-1.7,0.6-2.6,0.9
			c-0.5,0.1-1,0.3-1.4,0.6L-27-0.1c-0.4,0.4-0.7,1-0.6,1.6v2.8c0,0.3,0.1,0.6,0.4,0.8h17C-10,5-9.9,4.7-9.9,4.4
			C-9.8,3.3-9.7,2.2-9.8,1.1z"/>
		<path id="Trazado_3875" class="st1" d="M-19.9-1.8L-19.9-1.8c-0.6-0.5-1.3-0.8-2-1.2c-0.2,0-0.4,0.2-0.5,0.4l0,0
			c-0.1,0.2-0.2,0.5-0.3,0.6c0,0.1-0.1,0.1-0.1,0.2l0.1,0.1c0.1,0.2,0.3,0.4,0.4,0.6c0.4,0.6,0.8,1.1,1.3,1.6l0,0
			c0.1,0.1,0.2,0.2,0.4,0.2c0.1,0,0.3-0.1,0.4-0.2l0.6-0.6l0.8-0.8l0.1-0.1l0,0C-19.1-1.3-19.5-1.6-19.9-1.8z"/>
		<path id="Trazado_3876" class="st1" d="M-14.9-2.6L-14.9-2.6C-15-2.8-15.2-2.9-15.4-3c-0.4,0.1-0.7,0.3-0.9,0.6l0,0l-0.8,0.6
			l-1.4,0.8l0,0l0.1,0.1c0.3,0.3,0.6,0.6,0.9,0.9l0.6,0.6l0.1,0.1c0.1,0.1,0.2,0.1,0.3,0.1c0.1,0,0.2-0.1,0.3-0.2l0,0
			c0.2-0.2,0.4-0.5,0.5-0.6c0.1-0.1,0.2-0.3,0.4-0.4c0.3-0.4,0.6-0.8,1-1.2c0-0.1-0.1-0.1-0.1-0.2C-14.6-2-14.8-2.3-14.9-2.6z"/>
		<path id="Trazado_3877" class="st48" d="M-21.7-3.3c0.7,0.3,1.4,0.7,2,1.2c0.4,0.2,0.7,0.5,1.1,0.6c0.4-0.3,0.8-0.6,1.3-0.8
			l0.8-0.6c0.3-0.2,0.7-0.4,1-0.6l0,0v-0.7c0-0.4,0-0.8,0-1.2c0-0.1,0.1-0.2,0.2-0.3c1.4-1.2,2.1-3,1.8-4.9
			c-0.2-0.3-0.4-0.7-0.7-0.9c-0.2-0.2-0.3-0.5-0.4-0.8c-0.1,0-0.1,0-0.2-0.1c0.1,0,0.1,0,0.2,0.1c0.1-0.4-0.1-0.8-0.5-0.9
			c-0.5-0.3-1.1-0.6-1.7-0.7c-1.2-0.3-2.4-0.5-3.6-0.4l-1.7,0.3c-0.1,0-0.2,0.1-0.4,0.1c-0.5,0.1-0.5,0.3-0.5,0.7v0.9
			c0,0.4-0.1,0.8-0.5,1.1c-0.3,0.2-0.5,0.5-0.6,0.8v1.4c0.1,1.4,0.8,2.6,1.8,3.5c0.1,0.1,0.2,0.1,0.2,0.3l0,0v1.2
			C-21.8-3.8-21.8-3.5-21.7-3.3L-21.7-3.3z"/>
		<path id="Trazado_3878" class="st3" d="M-14.2-1.8c-0.1-0.1-0.1-0.2-0.2-0.3c-0.1-0.2-0.2-0.4-0.3-0.6c-0.1-0.4-0.5-0.6-0.8-0.6
			l0,0c-0.4,0.2-0.6,0.4-1,0.6l-0.8,0.6c-0.5,0.3-0.8,0.6-1.3,0.8c-0.3-0.2-0.7-0.5-1.1-0.6c-0.6-0.5-1.3-0.8-2-1.2l0,0
			c-0.4,0-0.7,0.2-0.8,0.6c-0.1,0.2-0.2,0.5-0.3,0.6c-0.1,0.1-0.1,0.2-0.1,0.3L-23-1.5l0.2,0.1l0.1,0.1l0,0c0.1,0.2,0.3,0.4,0.4,0.6
			c0.4,0.6,0.8,1.1,1.3,1.6c0.1,0.2,0.3,0.3,0.5,0.4l0,0c0.2,0,0.4-0.1,0.5-0.3l0,0l0.6-0.6l0.5-0.6v5.6h0.4v-5.5l0.5,0.6
			c0.3,0.3,0.5,0.6,0.6,0.6c0,0,0,0.1,0.1,0.1c0,0,0,0,0,0c0.2,0.1,0.4,0.2,0.5,0.1c0.2,0,0.4-0.1,0.5-0.3c0.2-0.2,0.4-0.5,0.5-0.6
			c0.1-0.1,0.2-0.3,0.3-0.4l0,0c0.3-0.5,0.6-0.9,1-1.3L-14.2-1.8L-14.2-1.8z M-18.8-1c-0.3,0.3-0.5,0.6-0.8,0.8l-0.6,0.6
			c-0.1,0.1-0.2,0.2-0.4,0.2c-0.1,0-0.3-0.1-0.4-0.2l0,0c-0.5-0.6-0.8-1.1-1.3-1.6c-0.1-0.2-0.3-0.4-0.4-0.6c0,0,0-0.1-0.1-0.1
			c0,0,0,0,0,0c0-0.1,0.1-0.1,0.1-0.2c0.1-0.2,0.2-0.5,0.3-0.6l0,0c0.1-0.2,0.3-0.3,0.5-0.4c0.7,0.4,1.3,0.8,1.9,1.2l0,0
			C-19.5-1.6-19.1-1.3-18.8-1L-18.8-1z M-15.6-0.6c-0.1,0.1-0.2,0.3-0.4,0.4c-0.2,0.2-0.4,0.5-0.5,0.6l0,0c-0.1,0.1-0.2,0.1-0.3,0.2
			c-0.1,0-0.2,0-0.3-0.1c0,0-0.1,0-0.1-0.1c0,0,0,0,0,0l-0.6-0.6l-0.9-0.9l-0.1-0.1l0,0l1.4-0.8l0.8-0.6l0,0
			c0.3-0.2,0.6-0.4,0.9-0.6c0.2,0,0.4,0.1,0.5,0.3l0,0c0.1,0.2,0.2,0.5,0.3,0.6c0,0.1,0.1,0.1,0.1,0.2C-14.9-1.5-15.2-1-15.6-0.6
			L-15.6-0.6z"/>
	</g>
	<g id="Grupo_577-2" transform="translate(98.985 43.942)">
		<path id="Trazado_366-2" class="st0" d="M-9.5-9.9c-0.2-2.6-1.5-4.9-3.5-6.6c-1-0.8-2.1-1.4-3.4-1.7c-0.2,0-0.4-0.1-0.6-0.2h-1.6
			c-0.3,0.1-0.6,0.2-0.9,0.2c-2,0.5-3.7,1.8-4.9,3.5c-1.9,2.8-2.4,6.3-1.4,9.5c0.3,0.9,0.7,1.8,1.3,2.6c0.2,0.5,0.8,0.7,1.3,0.5
			c0.9-0.3,1.8-0.5,2.7-0.6c0-0.1-0.1-0.1-0.2-0.2c-1-0.7-1.7-1.7-1.9-2.9c0-0.3-0.1-0.4-0.4-0.4c-0.6,0-1.2-0.4-1.5-1
			c-0.5-0.9-0.1-2.1,0.8-2.6c0.2-0.1,0.5-0.2,0.8-0.2c0.1-0.3,0.4-0.5,0.6-0.5c1.3-0.4,2.6-1.1,3.7-2c0.2-0.3,0.6-0.3,0.9-0.1
			c0.3,0.2,0.6,0.5,0.8,0.7c0.9,0.7,2,1.2,3.2,1.5c0.2,0.1,0.4,0.1,0.5,0.4c0,0.1,0.1,0.1,0.2,0.1c1,0,1.7,0.8,1.7,1.7c0,0,0,0,0,0
			c0.1,0.8-0.4,1.6-1.1,1.9c-0.2,0.1-0.4,0.2-0.6,0.1c-0.1,0-0.2,0-0.2,0.2c-0.2,1.3-0.9,2.4-2,3.1c-0.1,0-0.1,0.1-0.1,0.2
			c0.9,0.2,1.8,0.4,2.7,0.6c0.4,0.2,0.9,0,1.2-0.4c0.2-0.3,0.5-0.7,0.6-1C-9.6-5.5-9.1-7.7-9.5-9.9z"/>
		<path id="Trazado_367-2" class="st2" d="M-10.9-8.1c0-1-0.8-1.7-1.7-1.7c0,0,0,0,0,0c-0.1,0-0.1,0-0.2-0.1
			c-0.1-0.2-0.3-0.3-0.5-0.4c-1.2-0.2-2.3-0.7-3.2-1.5c-0.3-0.3-0.6-0.5-0.8-0.7c-0.3-0.2-0.7-0.2-0.9,0.1c-1.1,0.9-2.3,1.6-3.7,2
			c-0.3,0.1-0.5,0.3-0.6,0.5c-0.3,0-0.6,0-0.8,0.2c-0.9,0.5-1.3,1.6-0.8,2.6c0.2,0.6,0.8,1,1.5,1c0.3,0,0.4,0.1,0.4,0.4
			c0.2,1.2,0.9,2.3,1.9,2.9c0.1,0.1,0.2,0.1,0.2,0.2c0.4,0.1,0.4,0.1,0.4,0.4v1.4c0,0.2,0,0.3-0.3,0.3c-0.6,0.1-1.1,0.3-1.7,0.4
			c0.2,0,0.1,0.2,0.2,0.3l0.5,1.6c0.2,0.1,0.4,0.1,0.6,0.3c0.4,0.2,0.7,0.3,1.1,0.4c0.4,0.1,0.8,0.2,1.2,0.2
			c1.1,0.1,2.2-0.1,3.2-0.5l0.8-0.3l0,0l0.1-0.1c0.2-0.6,0.4-1.3,0.6-2c-0.5-0.2-1-0.3-1.5-0.4c-0.2-0.1-0.3-0.1-0.3-0.4v-1.4
			c0-0.4,0-0.4,0.4-0.5c0-0.1,0.1-0.1,0.1-0.2c1.1-0.7,1.8-1.8,2-3.1c0-0.1,0.1-0.2,0.2-0.2c0.2,0,0.4,0,0.6-0.1
			C-11.3-6.7-10.8-7.3-10.9-8.1z"/>
		<g id="Grupo_576-2" transform="translate(0 18.246)">
			<path id="Trazado_368-2" class="st44" d="M-21.1-16.3L-21.1-16.3l-0.5-1.7l0,0c0-0.1,0-0.3-0.2-0.3c-1,0.3-2,0.7-3,1.1
				c-1.5,0.7-2.6,2.2-2.8,3.8c-0.1,1.2-0.2,2.4-0.1,3.7c0,0.5,0.3,0.9,0.8,1h7.8c-0.2-0.8-0.5-1.6-0.6-2.5
				C-20.2-13-20.7-14.6-21.1-16.3z"/>
			<path id="Trazado_370-2" class="st44" d="M-7.8-12.9c0-1.7-0.8-3.2-2.2-4.1c-0.5-0.3-1.1-0.6-1.7-0.7c-0.7-0.3-1.4-0.5-2.1-0.6
				l-0.6,1.9v0.4c-0.5,1.6-0.9,3.2-1.4,4.9c-0.3,0.8-0.5,1.6-0.6,2.5h7.5c0.5,0.1,1-0.3,1.1-0.8c0,0,0,0,0-0.1v-0.2
				C-7.8-10.9-7.8-11.9-7.8-12.9z"/>
		</g>
		<path id="Trazado_372-2" class="st46" d="M-15.1,2.2c-1,0.4-2.1,0.6-3.2,0.5c-0.4,0-0.8-0.1-1.2-0.2c-0.4-0.1-0.7-0.2-1.1-0.4l0,0
			l-0.6-0.3v0.1c0.5,1.7,0.9,3.4,1.4,5c0.3,0.8,0.5,1.6,0.6,2.5h2.8c0.2-0.8,0.5-1.7,0.6-2.5c0.5-1.7,0.9-3.2,1.4-4.9V1.8
			C-14.6,2-14.8,2.1-15.1,2.2z"/>
		<path id="Trazado_373-2" class="st47" d="M-15.1,2.2c-1,0.4-2.1,0.6-3.2,0.5c-0.4,0-0.8-0.1-1.2-0.2c-0.4-0.1-0.7-0.2-1.1-0.4l0,0
			l-0.6-0.3v0.1c0.5,1.7,0.9,3.4,1.4,5c0.3,0.8,0.5,1.6,0.6,2.5h2.8c0.2-0.8,0.5-1.7,0.6-2.5c0.5-1.7,0.9-3.2,1.4-4.9V1.8
			C-14.6,2-14.8,2.1-15.1,2.2z"/>
	</g>
	<g id="Grupo_2022" transform="translate(132.375 90.034)">
		<g id="Grupo_574-2" transform="translate(0.859 0)">
			<path id="Trazado_356-2" class="st0" d="M-14.2-4.8c-0.2-1.2-0.4-2.4-0.5-3.6c-0.2-1.3-0.3-2.7-0.4-3.9c-0.1-1-0.4-2.1-0.8-3
				c-1.3-2.4-4.1-3.6-6.7-2.8c-0.4,0.1-0.9,0.3-1.3,0.5c-1.5,0.8-2.6,2.3-2.8,3.9c-0.2,1.1-0.3,2.3-0.4,3.4
				c-0.2,1.8-0.4,3.7-0.6,5.5c-0.1,0.3,0,0.5,0.3,0.6l0,0c0.9,0.5,1.9,0.8,2.8,1.1c0.3-0.1,0.5-0.2,0.7-0.3c0.3-0.1,0.6-0.5,0.6-0.8
				v-0.6c-0.1-0.4-0.1-0.7,0-1.1c-0.6-0.4-1.1-1-1.6-1.6c-0.6-0.9-0.8-1.9-0.7-2.9c0-0.3,0.1-0.5,0.4-0.6c0.7-0.5,1.3-1.1,1.7-1.7
				c0.1-0.2,0.3-0.4,0.4-0.6c0.1-0.3,0.4-0.5,0.7-0.6c0,0,0-0.1-0.1-0.1c0,0,0,0,0,0c0,0,0.1,0,0.1,0.1c0,0,0,0,0,0
				c1.9,0.2,3.8,0.9,5.3,2.1c0.1,0.1,0.2,0.2,0.3,0.4c0.1,0.1,0.2,0.3,0.2,0.5c0.2,1.1,0,2.2-0.6,3.2c-0.4,0.7-1,1.4-1.7,1.7v1.2
				c0,1.1,0.1,1.3,1.3,1.7c1-0.3,1.9-0.6,2.8-1.1C-14.3-4.3-14.1-4.4-14.2-4.8z"/>
			<path id="Trazado_358-2" class="st43" d="M-16.9-7.6c0.5-1,0.6-2.1,0.6-3.2c0-0.2-0.1-0.3-0.2-0.5c-0.1-0.1-0.2-0.3-0.3-0.4
				c-1.5-1.2-3.4-1.9-5.3-2.1c-0.3,0.1-0.6,0.3-0.7,0.6c-0.1,0.2-0.3,0.4-0.4,0.6c-0.5,0.7-1.1,1.3-1.7,1.7
				c-0.2,0.1-0.4,0.4-0.4,0.6c-0.1,1,0.2,2.1,0.7,2.9c0.4,0.6,1,1.1,1.6,1.6v1.7c0,0.4-0.2,0.7-0.6,0.8C-23.9-3.1-24.1-3-24.4-3
				l-0.3,0.2c0.1,0.1,0.1,0.3,0.2,0.5c0.6,1.2,1.7,2,3,2.1c1.9,0.3,3.7-0.8,4.4-2.6L-17.3-3c-1.1-0.4-1.3-0.6-1.3-1.7v-0.1l0,0
				c0-0.4,0-0.7,0-1.1C-17.9-6.3-17.3-6.9-16.9-7.6z"/>
		</g>
		<path id="Trazado_3879" class="st3" d="M-12.4-0.2c0-0.4-0.2-0.7-0.4-1L-13-1.5L-16.2-3c-0.8,2.1-3.2,3.2-5.3,2.3
			c-0.9-0.4-1.7-1-2.1-1.9c-0.1-0.1-0.1-0.3-0.2-0.5c-0.1,0-0.2,0.1-0.3,0.1L-26-2c-0.4,0.2-1.6,0.6-1.6,1.8v2.4
			c0,0.2,0.1,0.4,0.3,0.6h14.8c0.2-0.1,0.3-0.3,0.3-0.6C-12.4,1.5-12.4,0.7-12.4-0.2z"/>
	</g>
	<path id="Trazado_3880" class="st7" d="M116.9,103.5l-2.6-2.6c-0.1-0.1-0.2-0.3-0.4-0.4c-0.7-0.5-1.6-0.4-2.1,0.3c0,0,0,0-0.1,0.1
		l-2.5,2.5c-0.7,0.5-0.9,1.6-0.4,2.3c0.1,0.1,0.2,0.2,0.3,0.2c0.7,0.5,1.7,0.4,2.2-0.3c0.1-0.1,0.2-0.1,0.3-0.2v5.6
		c0,0.3-0.1,0.4-0.4,0.4h-7.9c-0.6,1-1.2,2-1.8,2.9h11.2c1.1-0.1,2-1.1,1.9-2.2c0,0,0,0,0-0.1v-6.5l0,0c0,0,0.1,0,0.1,0.1
		c0,0,0,0,0,0l0.1,0.1c0.6,0.6,1.5,0.6,2.1,0.1c0,0,0.1-0.1,0.1-0.1l0.1-0.1c0.5-0.6,0.5-1.5-0.1-2
		C117,103.5,116.9,103.5,116.9,103.5z"/>
	<path id="Trazado_3881" class="st7" d="M21.7,70.6h-0.4c-1.1,0.1-2,1.1-1.9,2.2c0,0,0,0,0,0.1v6.5c0,0-0.1,0-0.1-0.1c0,0,0,0,0,0
		l-0.1-0.1c-0.6-0.6-1.5-0.6-2.1-0.1c0,0-0.1,0.1-0.1,0.1c0,0,0,0.1-0.1,0.1c0,0,0,0,0,0c-0.5,0.7-0.4,1.6,0.3,2.1c0,0,0,0,0.1,0.1
		l2.6,2.6c0.1,0.1,0.2,0.3,0.4,0.4c0.7,0.5,1.6,0.4,2.1-0.3c0,0,0,0,0.1-0.1l2.5-2.5c0.7-0.5,0.9-1.6,0.4-2.3
		c-0.1-0.1-0.2-0.2-0.3-0.2c-0.7-0.5-1.7-0.4-2.2,0.3c-0.1,0.1-0.2,0.1-0.3,0.2l0,0V74c0-0.3,0.1-0.4,0.4-0.4h12.4
		c0.6-1,1.2-2,1.8-2.9C32.4,70.7,25.9,70.6,21.7,70.6z"/>
</g>
</svg>
