<svg id="Group_3639" data-name="Group 3639" xmlns="http://www.w3.org/2000/svg" xmlns:xlink="http://www.w3.org/1999/xlink" width="51.167" height="45" viewBox="0 0 51.167 45">
  <defs>
    <clipPath id="clip-path">
      <rect id="Rectangle_2018" data-name="Rectangle 2018" width="51.167" height="45" fill="#47bbc6"/>
    </clipPath>
  </defs>
  <g id="Group_3638" data-name="Group 3638" clip-path="url(#clip-path)">
    <path id="Path_5078" data-name="Path 5078" d="M51.166,23.607q0,8.679,0,17.357c0,1.073-.246,1.316-1.342,1.316q-9.451,0-18.9-.009c-.531,0-.8.085-.953.687a2.48,2.48,0,0,1-2.423,1.964,21.539,21.539,0,0,1-4.162-.046,2.511,2.511,0,0,1-2.2-2.088c-.1-.455-.3-.513-.694-.513q-9.322.013-18.645.006C.047,42.281,0,42.234,0,40.435Q0,23.309,0,6.184C0,5.138.21,4.931,1.272,4.93c.961,0,1.923-.011,2.884,0,.35.006.5-.1.485-.471-.021-.514-.016-1.03,0-1.545a.809.809,0,0,1,.873-.87,77.67,77.67,0,0,1,8.018.282A47.553,47.553,0,0,1,21.16,3.713c.447.117.613.026.683-.433a3.773,3.773,0,0,1,7.484.014c.065.413.2.546.643.427A45.463,45.463,0,0,1,36.93,2.389a70.987,70.987,0,0,1,8.736-.34.812.812,0,0,1,.86.884c.014.5.022,1,0,1.493-.018.378.114.517.5.51,1.03-.02,2.06-.01,3.09-.005.769,0,1.05.287,1.051,1.061q0,8.807,0,17.615m-6.419-3.451q0-7.826,0-15.652c0-.65-.026-.688-.663-.668-1.3.041-2.605.032-3.909.094A45.1,45.1,0,0,0,31.34,5.205c-.781.2-1.558.41-2.34.6a.723.723,0,0,0-.521.522c-.076.261.245.274.4.375a5.566,5.566,0,0,1,1.15.862,1.166,1.166,0,0,0,1.143.495,2.146,2.146,0,0,1,.858.127A3.775,3.775,0,0,1,34.145,14.1c-.2.287-.244.43.115.607a5.847,5.847,0,0,1,1.6,1.2.683.683,0,0,0,.585.25A3.594,3.594,0,0,1,40.1,18.041a3.6,3.6,0,0,1-.272,4.153c-.214.3-.116.393.137.535a6.543,6.543,0,0,1,3.408,4.822c.138.809-.19,1.253-1.008,1.313-.188.014-.377.007-.566.007-4.909,0-9.817.006-14.726-.009-.491,0-.647.14-.644.64.02,3.209.015,6.419,0,9.628,0,.4.063.531.482.328A21.159,21.159,0,0,1,30.342,38.2a52.518,52.518,0,0,1,13.675-1.742c.728-.012.73,0,.73-.749q0-7.775,0-15.549M6.419,20.138V20.4q0,7.7,0,15.4c0,.407.028.671.567.669a58.113,58.113,0,0,1,8.609.617A31.955,31.955,0,0,1,24.2,39.425c.514.231.525.226.525-.354q0-4.738,0-9.477c0-.72,0-.722-.749-.722H8.934c-.189,0-.378.007-.566-.007a.992.992,0,0,1-1.012-1.324,6.565,6.565,0,0,1,3.336-4.766c.341-.195.421-.3.161-.668a3.56,3.56,0,0,1-.19-4.113,3.613,3.613,0,0,1,3.585-1.852.723.723,0,0,0,.636-.245,5.423,5.423,0,0,1,1.555-1.173c.343-.166.409-.276.163-.623a3.581,3.581,0,0,1-.209-4.158,3.579,3.579,0,0,1,3.735-1.83.726.726,0,0,0,.69-.237A6.283,6.283,0,0,1,22.3,6.7c.151-.09.443-.119.392-.337a.707.707,0,0,0-.5-.54c-.133-.035-.266-.068-.4-.107A50.358,50.358,0,0,0,7.158,3.832c-.731.006-.739,0-.739.751q0,7.777,0,15.555M21.849,40.475l.01-.064c-.107-.041-.213-.087-.321-.124a41.851,41.851,0,0,0-10.694-1.913c-1.643-.118-3.29-.114-4.937-.137-1.011-.014-1.272-.295-1.272-1.3q0-14.647,0-29.294c0-.155-.011-.31,0-.463.027-.333-.12-.465-.45-.458-.583.012-1.167,0-1.75,0-.715,0-.717,0-.717.7q0,16.192,0,32.383c0,.664,0,.666.693.666H21.849m7.47,0H48.685c.761,0,.762,0,.762-.752q0-16.122,0-32.243c0-.1-.009-.207,0-.309.031-.341-.137-.456-.459-.449-.566.012-1.133,0-1.7,0-.758,0-.759,0-.759.764q0,14.654,0,29.307c0,.189.005.378-.005.566a.81.81,0,0,1-.67.8,3.068,3.068,0,0,1-.714.075,62.858,62.858,0,0,0-9.587.645,28.149,28.149,0,0,0-6.234,1.59M13.9,27.078h4.017c.667,0,.7-.043.377-.649a4.687,4.687,0,0,0-4.455-2.69,4.646,4.646,0,0,0-4.3,2.761c-.271.532-.238.576.347.577q2.009,0,4.017,0m22.864,0c1.39,0,2.78-.011,4.17.007.44.006.492-.127.328-.508a4.893,4.893,0,0,0-8.885,0c-.159.367-.134.518.32.511,1.355-.02,2.711-.007,4.067-.007m-11.382,0c1.373,0,2.746-.013,4.118.007.46.007.472-.151.316-.512a4.893,4.893,0,0,0-8.884,0c-.165.384-.105.513.331.507,1.372-.018,2.745-.007,4.118-.007m-5.764-8.037c.548,0,1.1-.009,1.643,0a.457.457,0,0,0,.525-.364,3.081,3.081,0,0,1,.891-1.418c.284-.249.209-.378-.051-.58a4.9,4.9,0,0,0-5.713-.166c-.558.386-.556.385-.111.915a1.271,1.271,0,0,1,.324.457c.264,1.231,1.156,1.261,2.133,1.155a3.512,3.512,0,0,1,.359,0m11.445,0c.548,0,1.1,0,1.643,0,.242,0,.422-.039.508-.315a3.459,3.459,0,0,1,.975-1.545c.157-.145.187-.263,0-.414a4.93,4.93,0,0,0-6.173-.011c-.172.14-.188.249-.029.415.211.222.512.442.574.71.293,1.264,1.2,1.261,2.192,1.16.1-.01.205,0,.308,0m-5.7-8.095c.531,0,1.061-.007,1.592,0a.521.521,0,0,0,.577-.39,3.392,3.392,0,0,1,.948-1.446c.244-.218.228-.358-.026-.56a4.98,4.98,0,0,0-5.926.149c-.235.2-.319.356-.065.619a3.16,3.16,0,0,1,.738,1.221.548.548,0,0,0,.621.407c.513-.012,1.027,0,1.541,0m5.726,14.218a6.827,6.827,0,0,1,2.721-2.507c.184-.09.225-.176.079-.342a3.225,3.225,0,0,1-.652-1.155.452.452,0,0,0-.5-.34c-1.1.006-2.193,0-3.289,0-.223,0-.4.05-.479.293a3.505,3.505,0,0,1-.671,1.2c-.114.132-.137.234.039.318a6.738,6.738,0,0,1,2.753,2.529m-11.44.007a6.574,6.574,0,0,1,2.345-2.306c.433-.236.66-.414.221-.87a2.5,2.5,0,0,1-.421-.818.484.484,0,0,0-.5-.355q-1.648,0-3.3,0a.43.43,0,0,0-.476.3,3.528,3.528,0,0,1-.675,1.205c-.126.147-.1.237.062.316a6.777,6.777,0,0,1,2.739,2.527m-7.734-5.292a2.008,2.008,0,0,0,1.994,2.049,2.024,2.024,0,0,0,.062-4.049,2.047,2.047,0,0,0-2.055,2M33.083,11.86a1.991,1.991,0,1,0-1.965,2.029,1.99,1.99,0,0,0,1.965-2.029m-7.72,10.067a2.024,2.024,0,1,0-2.012-2.053,2.05,2.05,0,0,0,2.012,2.053M25.6,1.8a2.031,2.031,0,0,0-2.039,1.971,2.024,2.024,0,1,0,4.048.033,2.045,2.045,0,0,0-2.009-2M21.644,11.869a1.992,1.992,0,1,0-2.028,2.019,1.995,1.995,0,0,0,2.028-2.019M36.817,21.927a2.024,2.024,0,1,0-2.029-2.044,2.066,2.066,0,0,0,2.029,2.044M28.524,40.7a11.069,11.069,0,0,0-1.986.923,1.579,1.579,0,0,1-1.907,0,10.121,10.121,0,0,0-2.011-.925,1.491,1.491,0,0,1,.259.774c.024.238.014.48.03.719a.906.906,0,0,0,.985.949q1.7.018,3.4,0a.964.964,0,0,0,1.041-1.072,3.074,3.074,0,0,1,.193-1.37m-3.8-24.526c0-1.149,0-2.155,0-3.161,0-.186-.1-.262-.285-.292-.767-.128-1,0-1.332.7a5.89,5.89,0,0,1-.481.788c-.114.168-.167.291.062.406a7.948,7.948,0,0,1,2.037,1.558m1.727-.446a9.149,9.149,0,0,1,1.628-1.115c.189-.09.208-.2.078-.359a4.326,4.326,0,0,1-.706-1.3c-.133-.362-.459-.209-.712-.226-.223-.015-.289.135-.289.333,0,.85,0,1.7,0,2.666" transform="translate(0 0)" fill="#47bbc6"/>
    <path id="Path_5079" data-name="Path 5079" d="M222.589,223.8c.785-.016,1.24.316,1.27.839.032.548-.41.928-1.1.962a44.606,44.606,0,0,0-10.773,1.689,2.54,2.54,0,0,1-.3.073.88.88,0,1,1-.45-1.7,31.116,31.116,0,0,1,3.228-.843,46.744,46.744,0,0,1,7.373-.937c.29-.013.578-.063.75-.083" transform="translate(-181.594 -193.003)" fill="#47bbc6"/>
    <path id="Path_5080" data-name="Path 5080" d="M65.843,223.839a47.249,47.249,0,0,1,11.176,1.768,1.2,1.2,0,0,1,.8.5.815.815,0,0,1-.022.92.826.826,0,0,1-.939.367c-.647-.162-1.286-.359-1.934-.518a43.117,43.117,0,0,0-7.807-1.153c-.444-.026-.887-.071-1.331-.091-.7-.032-1.137-.39-1.124-.94s.486-.884,1.179-.858" transform="translate(-55.765 -193.033)" fill="#47bbc6"/>
  </g>
</svg>
