<svg id="Group_3641" data-name="Group 3641" xmlns="http://www.w3.org/2000/svg" xmlns:xlink="http://www.w3.org/1999/xlink" width="48.212" height="45" viewBox="0 0 48.212 45">
  <defs>
    <clipPath id="clip-path">
      <rect id="Rectangle_2019" data-name="Rectangle 2019" width="48.212" height="45" fill="#47bbc6"/>
    </clipPath>
  </defs>
  <g id="Group_3640" data-name="Group 3640" clip-path="url(#clip-path)">
    <path id="Path_5081" data-name="Path 5081" d="M119.792,115.864c0-.768-.005-1.536,0-2.3.006-.657.288-.936.955-.94,1.085-.006,2.172-.026,3.256.009.5.016.624-.16.61-.631-.031-1.051-.012-2.1-.009-3.156,0-.771.257-1.034,1.01-1.036q2.254-.005,4.509,0c.69,0,.962.28.966.979,0,1.085.025,2.172-.009,3.256-.015.479.157.6.605.585,1.068-.028,2.137-.012,3.206-.008.736,0,1.009.266,1.011.985q.007,2.254,0,4.509c0,.722-.274.988-1.005.991-1.069,0-2.138.026-3.206-.009-.5-.017-.624.16-.61.631.031,1.051.012,2.1.009,3.156,0,.771-.258,1.034-1.011,1.036q-2.254.005-4.509,0c-.69,0-.962-.281-.965-.98,0-1.085-.025-2.171.009-3.256.015-.48-.159-.6-.606-.584-1.035.028-2.07.01-3.106.008-.889,0-1.11-.229-1.112-1.137q0-1.052,0-2.1m12.219,1.567c.584,0,1.169-.014,1.753.005.341.011.481-.1.472-.458-.019-.734-.021-1.47,0-2.2.011-.375-.124-.495-.493-.489-1.118.018-2.237.01-3.356,0-.692,0-.965-.279-.969-.976-.005-1.1-.018-2.2.007-3.306.01-.423-.14-.553-.549-.536-.667.027-1.336.031-2,0-.447-.021-.621.1-.606.583.034,1.068.013,2.137.01,3.205,0,.767-.26,1.029-1.015,1.032-1.119,0-2.237.009-3.356,0-.318,0-.452.1-.445.432.016.751.018,1.5,0,2.254-.009.351.123.467.468.462,1.119-.015,2.237-.008,3.356,0,.725,0,.991.272.994,1,0,1.1.017,2.2-.007,3.306-.009.4.137.524.524.51.667-.025,1.337-.033,2,0,.471.025.647-.111.631-.609-.035-1.1-.016-2.2-.008-3.306a.8.8,0,0,1,.888-.9c.567-.01,1.135,0,1.7,0" transform="translate(-103.743 -93.362)" fill="#47bbc6"/>
    <path id="Path_5082" data-name="Path 5082" d="M22.9,283.017c-1.287,0-2.573-.011-3.859,0a9.683,9.683,0,0,1-4.263-.951c-1.814-.851-3.624-1.713-5.411-2.619A11.869,11.869,0,0,0,4,278.206c-1-.008-2.005,0-3.007,0-.615,0-.948-.316-.938-.856a.8.8,0,0,1,.929-.811c1.718.037,3.44-.113,5.155.095A11.942,11.942,0,0,1,9.9,277.792c1.775.856,3.555,1.7,5.319,2.58a9.622,9.622,0,0,0,4.26.965c2.489.023,4.979,0,7.468.009a1.85,1.85,0,0,0,.73-.137c2.082-.864,4.164-1.729,6.253-2.574a.585.585,0,0,0,.424-.682,1.486,1.486,0,0,0-1.528-1.359,9.3,9.3,0,0,0-3.187.563c-.384.113-.76.254-1.145.364A.853.853,0,0,1,27.4,277a.8.8,0,0,1,.487-1.062,13.737,13.737,0,0,1,4.856-1.094,3.212,3.212,0,0,1,3.322,2.8,2.142,2.142,0,0,1-1.395,2.559q-3.149,1.3-6.3,2.6a2.787,2.787,0,0,1-1.117.221c-1.453-.012-2.907,0-4.361,0" transform="translate(-0.048 -238.022)" fill="#47bbc6"/>
    <path id="Path_5083" data-name="Path 5083" d="M103.956,0c1.27,0,2.54.012,3.809,0a9.869,9.869,0,0,1,4.4,1c1.794.854,3.591,1.7,5.365,2.6a11.753,11.753,0,0,0,5.22,1.21c1.019.014,2.038,0,3.057,0,.625,0,.96.3.961.833s-.335.836-.957.837c-1.42,0-2.842.037-4.26-.012a11.443,11.443,0,0,1-4.609-1.237c-1.834-.887-3.67-1.771-5.5-2.666a9.432,9.432,0,0,0-4.126-.89c-2.473-.022-4.945,0-7.418-.008a1.969,1.969,0,0,0-.778.147c-2.066.858-4.131,1.72-6.207,2.553a.625.625,0,0,0-.439.769,1.491,1.491,0,0,0,1.5,1.283,7.456,7.456,0,0,0,2.514-.362c.595-.165,1.179-.367,1.77-.546a.872.872,0,0,1,1.175.529.85.85,0,0,1-.611,1.094A18.473,18.473,0,0,1,94.8,8.172a3.478,3.478,0,0,1-3.834-2,3.03,3.03,0,0,1-.152-1.961A1.767,1.767,0,0,1,91.9,2.929c2.242-.915,4.477-1.845,6.713-2.773A2.1,2.1,0,0,1,99.445,0c1.5.006,3.007,0,4.511,0" transform="translate(-78.568 0)" fill="#47bbc6"/>
    <path id="Path_5084" data-name="Path 5084" d="M3.938,210.7c.367,0,.735-.01,1.1,0a11.641,11.641,0,0,0,3.447-.415,8.125,8.125,0,0,1,7.553,1.477,6.222,6.222,0,0,1,1.48,1.75,1.268,1.268,0,0,0,.669.559q1.925.782,3.84,1.59a6.982,6.982,0,0,1,3.066,2.177,4.453,4.453,0,0,1,.394,4.65c-.217.521-.693.642-1.321.384q-2.571-1.057-5.135-2.128c-1.233-.512-2.464-1.03-3.7-1.54a.923.923,0,0,1-.672-.845.867.867,0,0,1,1.252-.779c.473.163.929.373,1.392.565,2.127.883,4.258,1.759,6.378,2.659.4.17.5.117.515-.326a2.737,2.737,0,0,0-1.153-2.276,7.086,7.086,0,0,0-1.793-.988q-2.124-.891-4.257-1.762a1.261,1.261,0,0,1-.717-.588,5.569,5.569,0,0,0-5.391-3.134,6.824,6.824,0,0,0-2.512.372,4.781,4.781,0,0,1-1.763.273c-1.887-.014-3.775,0-5.662-.007-.659,0-1.045-.413-.93-1a.783.783,0,0,1,.861-.672q1.528,0,3.057,0" transform="translate(0 -181.819)" fill="#47bbc6"/>
    <path id="Path_5085" data-name="Path 5085" d="M188.169,40.757c-.351,0-.7.007-1.053,0a12.458,12.458,0,0,0-3.55.413,8.118,8.118,0,0,1-7.476-1.432,6.462,6.462,0,0,1-1.553-1.82,1.142,1.142,0,0,0-.589-.506q-1.926-.783-3.842-1.593a7.166,7.166,0,0,1-3.09-2.15,4.446,4.446,0,0,1-.439-4.691c.217-.527.691-.654,1.316-.4,1.515.621,3.025,1.251,4.537,1.878q1.99.825,3.979,1.653a3.431,3.431,0,0,1,.629.307.773.773,0,0,1,.337.918.793.793,0,0,1-.815.613,1.705,1.705,0,0,1-.673-.174q-3.747-1.558-7.5-3.112c-.5-.207-.491-.2-.509.357a2.707,2.707,0,0,0,1.261,2.319,13.444,13.444,0,0,0,2.923,1.417c1,.43,2,.838,3.01,1.243a1.449,1.449,0,0,1,.786.723,5.389,5.389,0,0,0,4.627,2.967,8.1,8.1,0,0,0,3.692-.5,1.534,1.534,0,0,1,.535-.1c2.156-.007,4.312,0,6.467-.006a.79.79,0,0,1,.857.618.813.813,0,0,1-.382.952,1.034,1.034,0,0,1-.583.1h-2.908" transform="translate(-143.863 -24.64)" fill="#47bbc6"/>
    <path id="Path_5086" data-name="Path 5086" d="M53.8,100.772a16.935,16.935,0,0,1,2.971-10.011,5.67,5.67,0,0,1,.355-.485.853.853,0,0,1,1.2-.223.84.84,0,0,1,.18,1.237,17.325,17.325,0,0,0-1.88,3.358,15.388,15.388,0,0,0-.814,8.693c.117.64-.13,1.088-.659,1.2-.5.108-.9-.251-1.038-.9a13.131,13.131,0,0,1-.312-2.873" transform="translate(-46.584 -77.854)" fill="#47bbc6"/>
    <path id="Path_5087" data-name="Path 5087" d="M274.368,140.82a16.906,16.906,0,0,1-2.945,9.946c-.122.179-.244.36-.381.527a.86.86,0,1,1-1.392-1c.2-.309.418-.6.615-.914a14.841,14.841,0,0,0,2.344-7.246,17.6,17.6,0,0,0-.252-3.928.893.893,0,0,1,.67-1.107.876.876,0,0,1,1.022.788,13.085,13.085,0,0,1,.32,2.937" transform="translate(-233.369 -118.713)" fill="#47bbc6"/>
    <path id="Path_5088" data-name="Path 5088" d="M96.735,73.109a.866.866,0,0,1-.829-.891,1.051,1.051,0,0,1,.989-.948.919.919,0,0,1,.846.893,1.1,1.1,0,0,1-1.006.947" transform="translate(-83.058 -61.723)" fill="#47bbc6"/>
    <path id="Path_5089" data-name="Path 5089" d="M252.548,251.6a.824.824,0,0,1,.819.874.98.98,0,0,1-.921.874.865.865,0,0,1-.846-.866.909.909,0,0,1,.948-.882" transform="translate(-217.896 -217.9)" fill="#47bbc6"/>
  </g>
</svg>
