<?xml version="1.0" encoding="utf-8"?>
<!-- Generator: Adobe Illustrator 27.7.0, SVG Export Plug-In . SVG Version: 6.00 Build 0)  -->
<svg version="1.1" xmlns="http://www.w3.org/2000/svg" xmlns:xlink="http://www.w3.org/1999/xlink" x="0px" y="0px"
	 viewBox="0 0 36 36" style="enable-background:new 0 0 36 36;" xml:space="preserve">
<style type="text/css">
	.st0{display:none;}
	.st1{display:inline;fill:#DBDBDB;}
	.st2{opacity:0.5;}
	.st3{fill:#FFFFFF;}
	.st4{fill:none;}
	.st5{fill:#133F69;}
	.st6{fill-rule:evenodd;clip-rule:evenodd;fill:#45BBC6;}
	.st7{fill:#45BBC6;}
	.st8{opacity:0.5;fill:#FFFFFF;enable-background:new    ;}
	.st9{fill:#C6CAD1;}
	.st10{clip-path:url(#SVGID_00000127037461327710238510000011508376703415132559_);}
</style>
<g id="Capa_3" class="st0">
	<rect x="-68" y="-259" class="st1" width="391" height="313.2"/>
</g>
<g id="Capa_1">
	<g>
		<path class="st6" d="M18,9.4c-2.7,0-4.8,2.2-4.8,4.8c0,2.7,2.2,4.8,4.8,4.8s4.8-2.2,4.8-4.8C22.8,11.6,20.7,9.4,18,9.4z M18,16.9
			c-1.4,0-2.6-1.2-2.6-2.6c0-1.4,1.2-2.6,2.6-2.6s2.6,1.2,2.6,2.6C20.6,15.7,19.4,16.9,18,16.9z"/>
		<path class="st6" d="M31.5,12.5C28.3-1.5,7.7-1.5,4.5,12.5c-0.7,3.8,0,7.6,2.1,10.9c1.8,2.9,3.9,5.5,6.4,7.8l0.4,0.3l0.1,0.1l0,0
			C15,33,16.4,34,18,34c1.6,0,3.1-1,4.6-2.5c2.5-2.3,4.8-5,6.6-7.8C31.4,20.4,32.2,16.4,31.5,12.5z M27.3,22.5
			c-1.8,2.7-3.9,5.2-6.3,7.4c-1.4,1.4-2.3,1.8-3,1.8c-0.7,0-1.6-0.4-3-1.8l-0.4-0.4c-2.3-2.2-4.4-4.6-6-7.3
			c-1.8-2.7-2.4-6.1-1.8-9.3C9.4,1.3,26.6,1.3,29.3,13C29.9,16.3,29.2,19.7,27.3,22.5z"/>
	</g>
</g>
<g id="Capa_2">
</g>
</svg>
