<svg xmlns="http://www.w3.org/2000/svg" width="52.019" height="52.044" viewBox="0 0 52.019 52.044">
  <path id="Path_4112" data-name="Path 4112" d="M91.667,79.156c-.728.441-1.412.839-2.074,1.265a.538.538,0,0,0-.228.375,3.482,3.482,0,0,1-3.891,3.377.614.614,0,0,0-.184.022,3.576,3.576,0,0,1-3.369,3.678,3.621,3.621,0,0,1-4.083,4.046c-.051.331-.074.677-.154,1a3.435,3.435,0,0,1-4.921,2.236,1.179,1.179,0,0,0-1.1-.074A3.426,3.426,0,0,1,67.6,93.809c-.081-.118-.162-.235-.257-.39a3.511,3.511,0,0,1-5.657-1.964,3.46,3.46,0,0,1-3.354-.691,3.415,3.415,0,0,1-1.162-3.193c-.338-.051-.669-.081-1-.154a3.345,3.345,0,0,1-2.648-3.163,2.185,2.185,0,0,0-.677-1.721c-.2-.206-.368-.441-.581-.7l-.265.36a.813.813,0,0,1-1.221.265c-1.295-.883-2.6-1.773-3.84-2.729a1.425,1.425,0,0,1-.36-1c-.022-5.672-.015-11.351-.015-17.022,0-1.376-.007-2.744,0-4.119.007-.971.64-1.339,1.471-.853Q54.507,60.552,61,64.355c.706.412.8.809.412,1.523-.088.154-.169.309-.25.471a3.267,3.267,0,0,0,2.435.765c1.53-.015,3.068-.11,4.6-.2a1.356,1.356,0,0,0,.655-.331,20.855,20.855,0,0,1,7.04-3.722c1.28-.353,2.619-.486,3.928-.714.14-.022.28-.029.419-.051.015-.059.029-.118.044-.184a2.782,2.782,0,0,0-.706-.184c-3.34-.015-6.687-.081-10.027.015a3.621,3.621,0,0,1-3.928-3.928c.007-.125,0-.25,0-.537a3.133,3.133,0,0,0-.772.383c-.934.9-1.846,1.832-2.766,2.759-.309.309-.633.559-1.1.375-.486-.184-.574-.589-.574-1.059.007-4.208,0-8.423.007-12.631a3.458,3.458,0,0,1,3.634-3.6Q69.878,43.5,75.7,43.5a3.482,3.482,0,0,1,3.788,3.766v.566H81a3.473,3.473,0,0,1,3.693,3.7V62.2H87.15c-.059-.25-.11-.471-.169-.691-.228-.868-.081-1.148.794-1.464q3.84-1.39,7.68-2.788c.559-.206,1.118-.412,1.677-.611.942-.338,1.434,0,1.442.993V76.883c0,.934-.074,1.037-.949,1.405-1.368.566-2.729,1.14-4.1,1.707C92.373,80.494,92.109,80.377,91.667,79.156Zm-31.4-11.292c-2.391,4.142-4.752,8.224-7.121,12.322.383.471.75.927,1.155,1.427.125-.2.221-.346.309-.5.508-.875.993-1.758,1.523-2.619a3.457,3.457,0,0,1,6.363,1.192,11.093,11.093,0,0,1,.088,1.221,3.542,3.542,0,0,1,3.627,3.376,3.628,3.628,0,0,1,4.024,2.773c1.471-.53,2.663.169,3.855.89,1.081.655,2.185,1.273,3.281,1.9a1.744,1.744,0,1,0,1.736-3c-.9-.53-1.81-1.052-2.722-1.574a.876.876,0,0,1-.522-.92.863.863,0,0,1,1.368-.589c1.177.662,2.332,1.376,3.524,2.016a2.52,2.52,0,0,0,1.28.294,1.631,1.631,0,0,0,1.442-1.346,1.715,1.715,0,0,0-.853-1.839c-.978-.581-1.971-1.133-2.942-1.721a.839.839,0,0,1-.36-1.2.88.88,0,0,1,1.228-.287c.125.066.25.14.375.213,1.346.772,2.685,1.56,4.031,2.325a1.734,1.734,0,1,0,1.721-3.009q-5.616-3.255-11.248-6.5a1.7,1.7,0,0,0-1.832-.015c-1.545.861-3.1,1.692-4.664,2.523a8.1,8.1,0,0,1-1.17.559,3.4,3.4,0,0,1-4.281-1.545,3.467,3.467,0,0,1,1.1-4.473c.338-.257.677-.508,1.133-.853C63.758,68.842,61.9,69.078,60.263,67.864ZM84.708,63.95c.007.574-.081.986-.566,1.177-.522.206-.853-.1-1.177-.441a2.389,2.389,0,0,1-.3-.309,1.457,1.457,0,0,0-1.317-.559,16.851,16.851,0,0,0-7.239,1.56,36.657,36.657,0,0,0-6.054,3.965c-.861.633-1.721,1.251-2.567,1.905a1.683,1.683,0,0,0-.537,1.994,1.489,1.489,0,0,0,1.618,1,4.312,4.312,0,0,0,1.317-.456c1.692-.883,3.377-1.795,5.054-2.707a3.134,3.134,0,0,1,3.244.051c.552.309,1.118.6,1.64.949a3.962,3.962,0,0,0,4.745-.552.779.779,0,0,1,1.118-.154.825.825,0,0,1,.265,1.14,3.349,3.349,0,0,1-1.817,1.464c-.169.066-.338.132-.6.228.5.287.92.508,1.309.758,2,1.295,4.289,2.148,6.054,3.84.647-.39,1.3-.8,1.979-1.184a.466.466,0,0,0,.265-.64c-.39-1.368-.743-2.751-1.111-4.127-.758-2.825-1.508-5.642-2.28-8.46-.044-.169-.221-.419-.338-.427C86.518,63.928,85.635,63.95,84.708,63.95ZM62.154,57.889c.647-.647,1.206-1.184,1.736-1.751a1.493,1.493,0,0,1,1.2-.493c3.553.015,7.113.007,10.667.007a1.771,1.771,0,0,0,2.008-1.986V47.222A1.755,1.755,0,0,0,75.8,45.243q-5.848,0-11.7.007a1.759,1.759,0,0,0-1.949,1.942v10.7ZM59.6,65.547C55.82,63.325,52.083,61.133,48.28,58.9v9.063c0,3.4-.007,6.8.007,10.188a.863.863,0,0,0,.213.6c.787.6,1.611,1.148,2.464,1.751C53.841,75.522,56.7,70.571,59.6,65.547Zm33.655,12.7c1.089-.456,2.1-.9,3.119-1.295a.633.633,0,0,0,.463-.706c-.015-5.686-.007-11.373-.007-17.059v-.559c-2.722.986-5.37,1.942-8.055,2.913C90.277,67.121,91.755,72.645,93.256,78.251ZM67.4,57.389c-.257,1.685.5,2.663,2.288,2.626,3.391-.074,6.79-.007,10.188-.037a1.786,1.786,0,0,1,1.479.611c.478.544,1.015,1.03,1.611,1.633,0-3.781.007-7.408-.007-11.042a1.557,1.557,0,0,0-1.3-1.53,16.147,16.147,0,0,0-2.155-.022v4.039a3.476,3.476,0,0,1-3.73,3.715c-1.39.007-2.781,0-4.171,0S68.811,57.389,67.4,57.389ZM55.136,84A1.848,1.848,0,0,0,56.468,85.7a1.673,1.673,0,0,0,1.949-.787c.721-1.206,1.42-2.428,2.111-3.649a1.736,1.736,0,1,0-3-1.721c-.684,1.162-1.361,2.332-2.016,3.509A6.971,6.971,0,0,0,55.136,84Zm9.387.419a1.821,1.821,0,0,0-1.331-1.692,1.67,1.67,0,0,0-1.942.8c-.721,1.206-1.42,2.428-2.111,3.649a1.737,1.737,0,1,0,2.994,1.751c.706-1.192,1.4-2.4,2.074-3.6A7.3,7.3,0,0,0,64.523,84.415ZM63.28,90.734a1.857,1.857,0,0,0,1.309,1.67,1.668,1.668,0,0,0,1.964-.758c.588-.971,1.148-1.957,1.707-2.95a1.732,1.732,0,0,0-.559-2.45,1.714,1.714,0,0,0-2.442.721c-.552.934-1.1,1.868-1.618,2.81A7.939,7.939,0,0,0,63.28,90.734Zm7.3,2.854a1.6,1.6,0,0,0,1.273-.743,19.183,19.183,0,0,0,1-1.729,1.716,1.716,0,0,0-.662-2.258,1.668,1.668,0,0,0-2.288.5,14.193,14.193,0,0,0-1.023,1.773A1.741,1.741,0,0,0,70.584,93.589Zm4.384-3.1c-.486,1.059-.949,2.082-1.405,3.1a1.653,1.653,0,0,0,2.3-.721A1.7,1.7,0,0,0,74.969,90.484Z" transform="translate(-46.556 -43.5)" fill="#fff"/>
</svg>
