<svg xmlns="http://www.w3.org/2000/svg" width="35.75" height="32" viewBox="0 0 35.75 32">
  <path id="message" d="M16.125,13.375H29.25m-13.125,7.5c0,1.875,13.125,0,13.125,0m-18.75-7.5h.019m-.019,7.5h.019M36.75,34l-6.233-3.117a7.8,7.8,0,0,0-.956-.438,3.763,3.763,0,0,0-.676-.16,7.828,7.828,0,0,0-1.051-.036H9c-2.1,0-3.15,0-3.952-.409A3.75,3.75,0,0,1,3.409,28.2C3,27.4,3,26.35,3,24.25V10c0-2.1,0-3.15.409-3.952A3.75,3.75,0,0,1,5.048,4.409C5.85,4,6.9,4,9,4H30.75c2.1,0,3.15,0,3.953.409a3.75,3.75,0,0,1,1.639,1.639c.409.8.409,1.852.409,3.952Z" transform="translate(-2 -3)" fill="none" stroke="#47bbc6" stroke-linecap="round" stroke-linejoin="round" stroke-width="2"/>
</svg>
