<svg xmlns="http://www.w3.org/2000/svg" xmlns:xlink="http://www.w3.org/1999/xlink" width="45.015" height="45" viewBox="0 0 45.015 45">
  <defs>
    <clipPath id="clip-path">
      <rect id="Rectangle_2020" data-name="Rectangle 2020" width="45.015" height="45" fill="#47bbc6"/>
    </clipPath>
  </defs>
  <g id="Group_3642" data-name="Group 3642" clip-path="url(#clip-path)">
    <path id="Path_5090" data-name="Path 5090" d="M39.616,0a8.113,8.113,0,0,1,1.951.639c.507.276.68.652.465,1.062-.19.362-.59.454-1.073.223a5.289,5.289,0,0,0-2.333-.511c-10.744.007-21.488.026-32.232-.011A4.979,4.979,0,0,0,1.479,5.234,4.865,4.865,0,0,0,5.62,11.052a1.291,1.291,0,0,0,.3.041c.953-.138,1.412.412,1.718,1.2a4.542,4.542,0,0,0,.33.62c.055.1.07.26.211.248s.149-.166.2-.266c.234-.439.463-.881.692-1.322a.771.771,0,0,1,.743-.449c1.142,0,2.284,0,3.425,0a.688.688,0,0,1,.747.642.665.665,0,0,1-.641.744,19.429,19.429,0,0,1-2.631.036.741.741,0,0,0-.809.5,8.962,8.962,0,0,1-.629,1.205,1.27,1.27,0,0,1-2.234-.038c-.255-.444-.492-.9-.724-1.355a.55.55,0,0,0-.5-.357A6.259,6.259,0,0,1,.056,7.457,1.322,1.322,0,0,0,0,7.291V5.27A6.64,6.64,0,0,1,1.691,1.912,6.591,6.591,0,0,1,5.358,0Z" fill="#47bbc6"/>
    <path id="Path_5091" data-name="Path 5091" d="M84.834,83.535c0-1.3-.03-2.607.008-3.908a5.408,5.408,0,0,1,2.209-4.342,1.18,1.18,0,0,1,1.984.443.805.805,0,0,0,.853.5q2.349-.036,4.7-.006a5.062,5.062,0,0,1,4.887,3.027,4.527,4.527,0,0,1,.431,1.955c0,2.02.012,4.04,0,6.061a7.376,7.376,0,0,1-3.195,6.183,1.022,1.022,0,0,0-.431.783,2.233,2.233,0,0,0,1.141,2.349c1.661,1.171,3.235,2.467,4.834,3.725a7.749,7.749,0,0,1,3.114,5.94c.066,1.3.021,2.6.041,3.906a1.616,1.616,0,0,1-.041.348.7.7,0,0,1-1.386-.107c-.011-.79,0-1.581,0-2.372a13.212,13.212,0,0,0-.16-2.753,6.143,6.143,0,0,0-2.213-3.638c-1.729-1.376-3.488-2.715-5.225-4.082-.24-.189-.326-.175-.464.11a3.989,3.989,0,0,1-7.258.023c-.153-.311-.253-.305-.5-.112C86.44,98.917,84.7,100.238,83,101.6a6.307,6.307,0,0,0-2.41,5.009c-.032,1.229,0,2.459-.008,3.689,0,.5-.247.8-.654.829a.686.686,0,0,1-.75-.739,26.873,26.873,0,0,1,.154-5.342,7.563,7.563,0,0,1,2.9-4.671q2.832-2.223,5.689-4.415a.918.918,0,0,0,.358-.739,2.141,2.141,0,0,0-1.044-2.437,1.857,1.857,0,0,1-.539-.57.677.677,0,0,1,.058-.952.694.694,0,0,1,.99.015c.078.066.144.146.217.218A5.866,5.866,0,0,0,94.231,93.1a5.8,5.8,0,0,0,4.17-4.911,21.043,21.043,0,0,0,.06-3.025c0-.366,0-.732,0-1.1,0-.608-.015-.6-.631-.694a39.518,39.518,0,0,0-7.615-.341,33.831,33.831,0,0,0-3.486.368c-.331.048-.461.188-.454.543.023,1.2.009,2.4.011,3.6a6.11,6.11,0,0,0,.216,1.427c.136.56-.049.94-.5,1.048-.384.092-.734-.167-.874-.669a7.715,7.715,0,0,1-.3-2.033c-.007-1.259,0-2.518,0-3.777m1.451-3.047c0,.351.014.7,0,1.053s.079.484.479.421a32.079,32.079,0,0,1,4.4-.4,37.55,37.55,0,0,1,6.9.418c.249.042.406-.01.4-.3a5.688,5.688,0,0,0-.068-1.179,3.647,3.647,0,0,0-3.561-2.833q-2.874-.016-5.747,0a.918.918,0,0,1-.883-.449c-.463-.771-.48-.769-1.056-.039-.063.08-.121.165-.179.249a4.578,4.578,0,0,0-.681,3.062M94.842,95.6c0-.336-.007-.586,0-.834.008-.233-.067-.321-.312-.249A7.452,7.452,0,0,1,90,94.445c-.213-.07-.3-.01-.292.215.009.527-.025,1.056.012,1.581a2.565,2.565,0,0,0,3.933,1.934A2.631,2.631,0,0,0,94.842,95.6" transform="translate(-69.834 -66.126)" fill="#47bbc6"/>
    <path id="Path_5092" data-name="Path 5092" d="M12.838,173.381a9.645,9.645,0,0,1-.076,1.573,3.3,3.3,0,0,1-.762,1.7c-.774.789-.389,1.732-.46,2.615-.01.121.12.193.208.269.265.23.541.449.793.693a.707.707,0,0,1-.9,1.089c-.459-.362-.9-.749-1.327-1.148a1.234,1.234,0,0,1-.245-.991c0-.307.1-.706-.051-.9-.19-.237-.552.069-.848.08a4.53,4.53,0,0,1-1.695-.131c-.286-.1-.4,0-.346.278a2.422,2.422,0,0,1-1.169,2.512c-1.3,1-2.492,2.126-3.739,3.19a.7.7,0,0,0-.29.6c.013.483.017.966,0,1.449-.012.335.134.45.453.5a46.411,46.411,0,0,0,5.406.515c.5.027.823.315.8.738a.764.764,0,0,1-.871.673,41.093,41.093,0,0,1-5.84-.559,1.42,1.42,0,0,1-1.391-1.589c0-.644.011-1.288,0-1.932a1.542,1.542,0,0,1,.572-1.271c1.431-1.231,2.853-2.472,4.29-3.7a.756.756,0,0,0,.33-.71,1.824,1.824,0,0,1,0-.307,2.771,2.771,0,0,0-.605-2.187,3.366,3.366,0,0,1-.711-2.347,15.553,15.553,0,0,1,.068-2.409,4.233,4.233,0,0,1,8.412.684c0,.307,0,.615,0,1.011m-1.451-.119c0-.337.007-.674,0-1.01a2.727,2.727,0,0,0-2.794-2.675,2.745,2.745,0,0,0-2.782,2.691q-.016.988,0,1.976a2.749,2.749,0,0,0,2.779,2.7,2.733,2.733,0,0,0,2.8-2.67c.008-.336,0-.673,0-1.01" transform="translate(-0.425 -148.397)" fill="#47bbc6"/>
    <path id="Path_5093" data-name="Path 5093" d="M286.59,173.261a4.333,4.333,0,0,1-.713,3.18,2.994,2.994,0,0,0-.623,2.094,1.31,1.31,0,0,0,.58,1.264,1.3,1.3,0,0,1,.166.143c.4.357.466.794.179,1.112s-.714.308-1.129-.047a.878.878,0,0,0-.1-.087,2.184,2.184,0,0,1-1.126-2.4c.046-.274-.031-.4-.364-.309a3.883,3.883,0,0,1-2.207,0c-.3-.089-.431-.015-.372.29a2.28,2.28,0,0,1-1.22,2.521c-.122.077-.217.2-.337.281a.734.734,0,0,1-.961-.082.717.717,0,0,1,.04-.992,2.825,2.825,0,0,1,.494-.434,1.059,1.059,0,0,0,.535-1.146,1.7,1.7,0,0,1,0-.395,2.088,2.088,0,0,0-.526-1.721,3.29,3.29,0,0,1-.765-2.066,12.354,12.354,0,0,1,.064-2.933,4.23,4.23,0,0,1,8.385.719c0,.337,0,.673,0,1.01m-1.443-.029c0-.337.01-.674,0-1.01a2.787,2.787,0,0,0-5.508-.5,11.579,11.579,0,0,0-.071,2.451,2.745,2.745,0,0,0,2.74,2.739,2.717,2.717,0,0,0,2.839-2.67c.012-.336,0-.673,0-1.01" transform="translate(-245.452 -148.368)" fill="#47bbc6"/>
    <path id="Path_5094" data-name="Path 5094" d="M262.27,30.765c.615,0,1.23.014,1.844,0a.881.881,0,0,1,.9.554c.209.435.451.854.666,1.286.128.258.222.277.359.006.217-.431.468-.845.675-1.281a.964.964,0,0,1,.986-.569,4.853,4.853,0,0,0,4.842-3.867,4.714,4.714,0,0,0-.493-3.353,1.183,1.183,0,0,1-.221-.566.712.712,0,0,1,1.337-.344,5.756,5.756,0,0,1,.882,2.593,6.171,6.171,0,0,1-5.236,6.839,1.626,1.626,0,0,0-1.454,1.107,4.665,4.665,0,0,1-.4.732,1.266,1.266,0,0,1-2.186.029,13.158,13.158,0,0,1-.715-1.358.586.586,0,0,0-.618-.373c-.907.015-1.815.005-2.722,0-.073,0-.146,0-.22,0-.672-.024-.991-.263-.989-.742s.29-.691,1-.692h1.756" transform="translate(-229.06 -19.638)" fill="#47bbc6"/>
    <path id="Path_5095" data-name="Path 5095" d="M322.941,288.11c0,.337,0,.673,0,1.01a1.3,1.3,0,0,1-1.172,1.445c-.876.156-1.76.273-2.644.381-1.1.134-2.213.18-3.323.217-.544.018-.885-.214-.911-.658-.029-.485.252-.722.85-.754a48.063,48.063,0,0,0,5.406-.52c.3-.05.456-.169.416-.485a.322.322,0,0,1,0-.044c.026-1.735.026-1.734-1.307-2.853a3.562,3.562,0,0,1-.479-.449.649.649,0,0,1-.008-.884.617.617,0,0,1,.9-.161,18.04,18.04,0,0,1,1.99,1.719,1.083,1.083,0,0,1,.288.807c-.006.41,0,.819,0,1.229" transform="translate(-277.936 -250.87)" fill="#47bbc6"/>
    <path id="Path_5096" data-name="Path 5096" d="M121.773,344.99c0-.526-.008-1.052,0-1.577.01-.5.267-.793.677-.809a.711.711,0,0,1,.761.776q.026,1.6,0,3.2a.733.733,0,0,1-.728.818c-.425,0-.7-.317-.711-.828s0-1.051,0-1.577" transform="translate(-107.48 -302.398)" fill="#47bbc6"/>
    <path id="Path_5097" data-name="Path 5097" d="M249.777,345.034c0,.511.008,1.022,0,1.533s-.287.824-.712.827a.732.732,0,0,1-.727-.819q-.024-1.6,0-3.2a.71.71,0,0,1,.761-.775c.409.016.667.314.677.81.01.54,0,1.081,0,1.621" transform="translate(-219.183 -302.398)" fill="#47bbc6"/>
    <path id="Path_5098" data-name="Path 5098" d="M87.859,44.251a.911.911,0,1,1-.043-1.822.912.912,0,1,1,.043,1.822" transform="translate(-76.713 -37.449)" fill="#47bbc6"/>
    <path id="Path_5099" data-name="Path 5099" d="M217.064,44.249a.889.889,0,0,1-.93-.89.9.9,0,0,1,.9-.926.927.927,0,0,1,.96.92.905.905,0,0,1-.931.9" transform="translate(-190.771 -37.453)" fill="#47bbc6"/>
    <path id="Path_5100" data-name="Path 5100" d="M281.4,44.248a.885.885,0,0,1-.911-.906.9.9,0,0,1,.912-.91.934.934,0,0,1,.945.934.914.914,0,0,1-.945.882" transform="translate(-247.575 -37.452)" fill="#47bbc6"/>
    <path id="Path_5101" data-name="Path 5101" d="M152.191,44.249a.92.92,0,0,1-.935-.894.941.941,0,0,1,.96-.921.9.9,0,0,1,.9.923.89.89,0,0,1-.926.892" transform="translate(-133.506 -37.454)" fill="#47bbc6"/>
  </g>
</svg>
