<svg xmlns="http://www.w3.org/2000/svg" width="44.438" height="47" viewBox="0 0 44.438 47">
  <g id="settings" transform="translate(-1.566 -1)">
    <circle id="Ellipse_178" data-name="Ellipse 178" cx="6.75" cy="6.75" r="6.75" transform="translate(17.035 17.75)" fill="none" stroke="#47bbc6" stroke-width="2"/>
    <path id="Path_5114" data-name="Path 5114" d="M5.023,21.438a3.556,3.556,0,0,1,0,6.123A5.544,5.544,0,0,0,3.5,28.812a4.5,4.5,0,0,0-.891,3.327c.117.887.641,1.8,1.689,3.611s1.573,2.724,2.283,3.269a4.5,4.5,0,0,0,3.327.891,5.546,5.546,0,0,0,1.843-.692,3.556,3.556,0,0,1,5.3,3.062,5.547,5.547,0,0,0,.322,1.943,4.5,4.5,0,0,0,2.435,2.435C20.64,47,21.688,47,23.785,47s3.145,0,3.972-.342a4.5,4.5,0,0,0,2.435-2.435,5.55,5.55,0,0,0,.322-1.942,3.556,3.556,0,0,1,5.3-3.062,5.55,5.55,0,0,0,1.843.692,4.5,4.5,0,0,0,3.327-.891c.71-.545,1.234-1.453,2.283-3.269.467-.808.83-1.437,1.1-1.964m-1.822-6.224a3.556,3.556,0,0,1,0-6.124,5.542,5.542,0,0,0,1.521-1.25,4.5,4.5,0,0,0,.891-3.327c-.117-.887-.641-1.8-1.69-3.611S41.7,10.526,40.988,9.981a4.5,4.5,0,0,0-3.327-.891,5.546,5.546,0,0,0-1.843.692,3.556,3.556,0,0,1-5.3-3.062,5.55,5.55,0,0,0-.322-1.943,4.5,4.5,0,0,0-2.435-2.435C26.93,2,25.882,2,23.785,2s-3.145,0-3.972.343a4.5,4.5,0,0,0-2.435,2.435,5.546,5.546,0,0,0-.322,1.942,3.556,3.556,0,0,1-5.3,3.062A5.546,5.546,0,0,0,9.909,9.09a4.5,4.5,0,0,0-3.327.891c-.71.545-1.234,1.453-2.283,3.269-.467.808-.83,1.437-1.1,1.964" fill="none" stroke="#47bbc6" stroke-linecap="round" stroke-width="2"/>
  </g>
</svg>
