<svg xmlns="http://www.w3.org/2000/svg" width="20" height="19" viewBox="0 0 20 19">
  <path id="computer" d="M7.788,2h8.424c.819,0,1.494,0,2.044.046a4.087,4.087,0,0,1,1.588.4A4,4,0,0,1,21.55,4.156a4.088,4.088,0,0,1,.4,1.588C22,6.294,22,6.969,22,7.788v3.424c0,.819,0,1.494-.046,2.044a4.088,4.088,0,0,1-.4,1.588,4,4,0,0,1-1.706,1.706,4.09,4.09,0,0,1-1.588.4c-.55.046-1.226.046-2.044.046H13v2h4a1,1,0,0,1,0,2H7a1,1,0,0,1,0-2h4V17H7.788c-.819,0-1.494,0-2.044-.046a4.09,4.09,0,0,1-1.588-.4A4,4,0,0,1,2.45,14.844a4.087,4.087,0,0,1-.4-1.588C2,12.706,2,12.031,2,11.212V7.788c0-.819,0-1.494.046-2.044a4.087,4.087,0,0,1,.4-1.588A4,4,0,0,1,4.156,2.45a4.087,4.087,0,0,1,1.588-.4C6.294,2,6.969,2,7.788,2ZM16.17,15c.871,0,1.463,0,1.92-.039a2.154,2.154,0,0,0,.831-.186,2,2,0,0,0,.853-.853,2.154,2.154,0,0,0,.186-.831C20,12.633,20,12.041,20,11.17V7.83c0-.871,0-1.463-.039-1.921a2.155,2.155,0,0,0-.186-.831,2,2,0,0,0-.853-.853,2.155,2.155,0,0,0-.831-.186C17.633,4,17.041,4,16.17,4H7.83c-.871,0-1.463,0-1.921.039a2.156,2.156,0,0,0-.831.186,2,2,0,0,0-.853.853,2.156,2.156,0,0,0-.186.831C4,6.367,4,6.959,4,7.83v3.34c0,.871,0,1.463.039,1.92a2.155,2.155,0,0,0,.186.831,2,2,0,0,0,.853.853,2.155,2.155,0,0,0,.831.186C6.367,15,6.959,15,7.83,15Z" transform="translate(-2 -2)" fill="#143f6a" fill-rule="evenodd"/>
</svg>
