<svg xmlns="http://www.w3.org/2000/svg" width="60.003" height="60" viewBox="0 0 60.003 60">
  <g id="nutrition" transform="translate(-105.696 -105.4)">
    <path id="Path_4084" data-name="Path 4084" d="M165.7,289.308c-.1.454-.186.918-.3,1.362a12.331,12.331,0,0,1-6.653,7.9,16.673,16.673,0,0,1-6.168,1.785c0,.34.01.681,0,1.031a2.793,2.793,0,0,1-2.806,2.8q-14.065.015-28.119,0a2.792,2.792,0,0,1-2.826-2.826c-.01-.309,0-.619,0-.908-1.124-.237-2.218-.4-3.28-.722a13.742,13.742,0,0,1-8.727-6.839,9.92,9.92,0,0,1-1.114-4.446c-.01-.763.34-1.114,1.1-1.114.815-.01,1.63,0,2.548,0l-.505-.774a20.293,20.293,0,0,1-2.909-8.262,15.058,15.058,0,0,1-.01-5.354c.743-3.517,3.92-6.612,7.272-6.983a19.512,19.512,0,0,1,2.455.01c.382.01.774.052,1.238.093a4.928,4.928,0,0,0-1.64-3.6,2.742,2.742,0,0,0-1.124-.423c-.609-.124-.99-.526-.918-1.073a.948.948,0,0,1,1.166-.794A4.538,4.538,0,0,1,118.054,263c.134-.155.237-.268.34-.392a6.511,6.511,0,0,1,4.92-2.455c.784-.031,1.155.351,1.124,1.145a6.376,6.376,0,0,1-1.547,4.013c-.124.144-.258.289-.382.444a.062.062,0,0,0-.01.041c5.209,1.423,7.685,4.889,7.6,10.315.939-.144,1.846-.32,2.775-.423,4.58-.505,9.149-1.042,13.729-1.454a7.745,7.745,0,0,1,6.117,2.311,3.048,3.048,0,0,1,.382.629,6.565,6.565,0,0,1,5.188-3.848,19.575,19.575,0,0,1,2.806-.052c.547.01.866.433.846,1.062-.041,1.32-.124,2.63-.2,4.074a8.9,8.9,0,0,1,3.951,2.929v.7a9.061,9.061,0,0,1-4.105,2.981c.144.794.279,1.516.423,2.29.763,0,1.537.031,2.321-.01a1.416,1.416,0,0,1,1.362.6C165.7,288.369,165.7,288.833,165.7,289.308Zm-58-.1a8.353,8.353,0,0,0,2.28,5,13.458,13.458,0,0,0,10.212,4.322c10.346.052,20.692.021,31.038.01a14.3,14.3,0,0,0,5.745-1.2,11.007,11.007,0,0,0,6.3-6.168,20.224,20.224,0,0,0,.536-1.97Zm17.082-2.94c-.186-.052-.34-.093-.485-.134-1.558-.423-3.146-.774-4.673-1.3a13.767,13.767,0,0,1-3.177-1.558,1.871,1.871,0,0,1-.021-3.167,7.872,7.872,0,0,1,1.712-.99,40.786,40.786,0,0,1,8.314-2.321c1.795-.361,1.805-.34,1.754-2.166-.1-3.579-3.3-7.468-7.767-6.839a20.883,20.883,0,0,1-5.075.021,6.8,6.8,0,0,0-7.767,6.983,21.663,21.663,0,0,0,1.186,7.293,12.6,12.6,0,0,0,2.651,4.7,1.525,1.525,0,0,0,1.207.536c3.394-.031,6.787-.052,10.191.01A2.057,2.057,0,0,0,124.779,286.265Zm13.74.351c1.919.2,3.755.413,5.6.557a13.38,13.38,0,0,0,4.487-.083,5.71,5.71,0,0,0,4.477-5.632c-.165-3.321-3.538-5.88-7.066-5.312v5.3c0,.743-.34,1.176-.928,1.176s-.939-.423-.949-1.155v-5.333c-3.817.464-7.52.918-11.254,1.382v4.9c0,.722-.371,1.166-.959,1.145-.567-.01-.918-.433-.918-1.124-.01-1.331,0-2.651,0-3.982,0-.186-.021-.371-.031-.712-3.28.732-6.488,1.393-9.655,2.176a18.256,18.256,0,0,0-3.352,1.32c-.629.3-.588.609,0,1.011l.248.155a28.229,28.229,0,0,0,6.168,1.888c.031-.083.052-.124.062-.155.01-.413.01-.815.01-1.228.01-.784.351-1.217.949-1.207.578.01.918.433.918,1.186v1.867c3.445.557,6.849,1.1,10.315,1.661v-.671c0-1-.031-1.991.021-2.981a1.192,1.192,0,0,1,.392-.846,1,1,0,0,1,.9-.083,1.405,1.405,0,0,1,.547.918C138.55,284.006,138.519,285.275,138.519,286.615Zm-17.773,13.843c-.134,1.63.072,1.857,1.619,1.857h26.871a5.6,5.6,0,0,0,.588-.01.9.9,0,0,0,.866-.8,8.733,8.733,0,0,0,.01-1.042Zm42.694-18.773a5.968,5.968,0,0,0-8.252-.361c-.309.3-.248.505.041.763A5.957,5.957,0,0,0,163.44,281.685Zm-8.85-2.29a8.545,8.545,0,0,1,4.848-1.465.519.519,0,0,0,.361-.34c.144-.794.248-1.589.361-2.383C157.23,274.784,154.445,276.9,154.59,279.395Zm5.529,7.912c-.093-.5-.186-.928-.248-1.351s-.289-.536-.722-.536a7.582,7.582,0,0,1-4.1-1.166L154.6,284a4.175,4.175,0,0,0,1.661,3.239.525.525,0,0,0,.217.062C157.653,287.307,158.84,287.307,160.119,287.307Zm-37.7-25.127a4.323,4.323,0,0,0-3.373,3.373A4.453,4.453,0,0,0,122.417,262.179Zm7.437,25.117a.657.657,0,0,0,.021-.072c-.877-.165-1.743-.32-2.62-.5-.474-.093-.64.165-.763.557C127.647,287.3,128.751,287.3,129.854,287.3Zm23.4-.825c-.3.258-.6.526-.908.794h1.372C153.527,286.946,153.383,286.688,153.259,286.471Z" transform="translate(0 -138.79)" fill="#fff"/>
    <path id="Path_4085" data-name="Path 4085" d="M366.553,105.4c.887.2,1.795.33,2.672.588a14.051,14.051,0,1,1-5.632-.474,2.309,2.309,0,0,0,.382-.1C364.831,105.4,365.7,105.4,366.553,105.4Zm10.893,14.028a12.182,12.182,0,1,0-12.316,12.213A12.2,12.2,0,0,0,377.446,119.428Z" transform="translate(-220.185)" fill="#fff"/>
    <path id="Path_4086" data-name="Path 4086" d="M428.8,203.535c.248-.309.413-.578.629-.794q2.909-2.924,5.838-5.838a2.611,2.611,0,0,1,.433-.392.929.929,0,0,1,1.289,1.289,2.511,2.511,0,0,1-.351.392l-6.994,6.994c-.712.7-1.114.7-1.826-.01l-3.229-3.229c-.609-.609-.691-1.114-.258-1.568s.97-.382,1.609.258C426.84,201.555,427.748,202.473,428.8,203.535Z" transform="translate(-285.526 -81.549)" fill="#fff"/>
  </g>
</svg>
