<svg id="curriculum-resume" xmlns="http://www.w3.org/2000/svg" width="34.032" height="45" viewBox="0 0 34.032 45">
  <g id="Group_3798" data-name="Group 3798" transform="translate(4.714 37.241)">
    <g id="Group_3797" data-name="Group 3797">
      <path id="Path_5115" data-name="Path 5115" d="M112.277,324.849H90.206a1.252,1.252,0,0,0,0,2.5h22.078a1.252,1.252,0,1,0-.007-2.5Z" transform="translate(-88.954 -324.849)" fill="#47bbc6"/>
    </g>
  </g>
  <g id="Group_3800" data-name="Group 3800" transform="translate(4.714 31.757)">
    <g id="Group_3799" data-name="Group 3799">
      <path id="Path_5116" data-name="Path 5116" d="M112.277,277.01H90.206a1.252,1.252,0,0,0,0,2.5h22.078a1.252,1.252,0,1,0-.007-2.5Z" transform="translate(-88.954 -277.01)" fill="#47bbc6"/>
    </g>
  </g>
  <g id="Group_3802" data-name="Group 3802" transform="translate(11.613 5.254)">
    <g id="Group_3801" data-name="Group 3801" transform="translate(0)">
      <path id="Path_5117" data-name="Path 5117" d="M154.527,45.834a5.384,5.384,0,1,0,5.388,5.38A5.4,5.4,0,0,0,154.527,45.834Zm0,8.256a2.876,2.876,0,1,1,2.876-2.876A2.888,2.888,0,0,1,154.527,54.09Z" transform="translate(-149.139 -45.834)" fill="#47bbc6"/>
    </g>
  </g>
  <g id="Group_3804" data-name="Group 3804" transform="translate(7.367 17.394)">
    <g id="Group_3803" data-name="Group 3803" transform="translate(0)">
      <path id="Path_5118" data-name="Path 5118" d="M128.883,153.06a19.8,19.8,0,0,0-14.289,0,3.991,3.991,0,0,0-2.5,3.713v5.084a1.245,1.245,0,0,0,1.245,1.252h16.786a1.251,1.251,0,0,0,1.252-1.252v-5.084A3.991,3.991,0,0,0,128.883,153.06Zm0,7.552H114.594V156.78a1.474,1.474,0,0,1,.9-1.378,17.341,17.341,0,0,1,12.48,0,1.474,1.474,0,0,1,.9,1.378v3.832Z" transform="translate(-112.096 -151.726)" fill="#47bbc6"/>
    </g>
  </g>
  <g id="Group_3806" data-name="Group 3806">
    <g id="Group_3805" data-name="Group 3805" transform="translate(0)">
      <path id="Path_5119" data-name="Path 5119" d="M78.246,0H57.428a3.575,3.575,0,0,0-2.549,1.052L48.89,7.041A3.576,3.576,0,0,0,47.838,9.59V41.383A3.621,3.621,0,0,0,51.455,45h26.8a3.621,3.621,0,0,0,3.617-3.617V3.617A3.652,3.652,0,0,0,78.246,0ZM55.2,4.269v3.1H52.1ZM79.35,13.392H74.7a1.252,1.252,0,0,0,0,2.5H79.35V18.12h-1.7a1.252,1.252,0,0,0,0,2.5h1.7V41.391a1.109,1.109,0,0,1-1.1,1.112H51.432a1.107,1.107,0,0,1-1.1-1.1V9.864H56.45A1.251,1.251,0,0,0,57.7,8.612V2.49H78.246a1.107,1.107,0,0,1,1.1,1.1Z" transform="translate(-47.838)" fill="#47bbc6"/>
    </g>
  </g>
</svg>
