<svg xmlns="http://www.w3.org/2000/svg" width="32.003" height="32" viewBox="0 0 32.003 32">
  <g id="ask" transform="translate(-215.05 -215.334)">
    <path id="Path_5185" data-name="Path 5185" d="M218.172,241.915a4.895,4.895,0,0,1-1.257-1.722,4.6,4.6,0,0,1,.482-4.53.988.988,0,0,0,.181-.594c-.009-2.334-.009-4.659,0-6.993a8.425,8.425,0,0,1,1.386-4.59,1.371,1.371,0,0,1,.129-.181.563.563,0,0,1,.749-.146.542.542,0,0,1,.164.741c-.1.189-.224.362-.336.551a7.744,7.744,0,0,0-1.016,3.944q-.013,3.514,0,7.027a1.167,1.167,0,0,1-.25.741,3.579,3.579,0,0,0,.818,5.184.544.544,0,0,0,.534.069c1.059-.388,2.118-.766,3.186-1.145.155-.052.327-.095.3-.31-.034-.25.112-.525-.215-.706a6.578,6.578,0,0,1-2.8-3.066,6.371,6.371,0,0,1-.594-2.583v-3.16c0-.413.1-.56.5-.68a4.111,4.111,0,0,0,2.635-2.248c.146-.31.3-.62.465-.921.284-.543.758-.577,1.094-.052a5.655,5.655,0,0,0,3.462,2.506c.87.224,1.783.284,2.67.422.654.1,1.318.181,1.972.276.534.077.663.233.663.766,0,.964.017,1.938,0,2.9a6.577,6.577,0,0,1-3.333,5.813c-.344.207-.258.474-.276.741s.2.276.362.336c1.033.37,2.067.732,3.092,1.111a.591.591,0,0,0,.594-.069,3.579,3.579,0,0,0,.809-5.141,1.232,1.232,0,0,1-.267-.8c.009-1.516,0-3.031.009-4.547a.659.659,0,0,0-.284-.594,8.194,8.194,0,0,1-3.315-7.363c.017-.258.069-.508.112-.766a.356.356,0,0,0-.2-.422,7.709,7.709,0,0,0-3.427-1.111,7.6,7.6,0,0,0-5.606,1.817.578.578,0,0,1-.878-.009c-.215-.276-.146-.568.2-.861a8.787,8.787,0,0,1,10-.956c.241.138.319.112.431-.146a8.275,8.275,0,0,1,14.158-1.929.594.594,0,0,1,0,.887c-.258.207-.577.138-.861-.2l-.078-.1a7.028,7.028,0,0,0-3.815-2.437,7.178,7.178,0,0,0-4.228,13.7c.689.241.766.37.654,1.094-.017.086-.077.189-.009.241.095.078.181-.026.25-.086a4.99,4.99,0,0,1,2.738-.939,7.112,7.112,0,0,0,5.916-5.856,7.471,7.471,0,0,0-.448-3.979c-.2-.5.069-.913.534-.853a.593.593,0,0,1,.474.431,8.432,8.432,0,0,1,.62,2.454,8.3,8.3,0,0,1-7.234,8.956c-.017,0-.043.009-.06.009a3.076,3.076,0,0,0-1.972.723c-.379.258-.784.491-1.171.732a.57.57,0,0,1-.921-.586c.043-.37.1-.741.155-1.12.026-.189-.388-.525-.568-.448-.077.034-.069.1-.069.164v4a.579.579,0,0,0,.146.31,4.641,4.641,0,0,1-.6,6.157c-.138.138-.164.181.043.267a4.167,4.167,0,0,1,2.5,2.885c.146.543.31,1.076.448,1.61s-.077.8-.629.8H232.7c-.431,0-.654-.189-.654-.534s.224-.534.654-.534c1.145,0,2.3-.009,3.445.009.3,0,.353-.086.258-.353-.086-.241-.146-.491-.215-.741a3.071,3.071,0,0,0-2.058-2.213c-.878-.31-1.765-.62-2.635-.947a.3.3,0,0,0-.431.164c-.5.887-1.008,1.774-1.516,2.661-.284.491-.543.551-1.033.258-.611-.362-1.223-.723-1.817-1.1a.5.5,0,0,0-.611.009c-.586.37-1.171.715-1.765,1.068-.551.327-.784.267-1.094-.276-.491-.853-.99-1.714-1.464-2.575-.129-.233-.241-.3-.5-.2-.818.319-1.653.611-2.489.887a3.162,3.162,0,0,0-2.2,2.325c-.06.241-.121.482-.2.715-.069.215-.043.336.215.3.086-.009.172,0,.258,0h13.374a2.914,2.914,0,0,1,.388.009.505.505,0,0,1,.448.508.513.513,0,0,1-.439.551,1.97,1.97,0,0,1-.319.009H215.8c-.68,0-.87-.25-.689-.913.155-.568.31-1.137.482-1.705a4.147,4.147,0,0,1,2.325-2.652A.485.485,0,0,0,218.172,241.915Zm2.549-9.516a10.87,10.87,0,0,0,.077,1.851,5.634,5.634,0,0,0,11.178-.327c.077-.921.009-1.843.052-2.764.009-.293-.086-.4-.37-.431-.965-.129-1.929-.293-2.9-.4a7.025,7.025,0,0,1-4.676-2.317c-.189-.215-.267-.155-.37.069a5.087,5.087,0,0,1-2.747,2.54.336.336,0,0,0-.25.388C220.729,231.409,220.721,231.822,220.721,232.4Zm3.608,7.682a.438.438,0,0,0,.155.4c.551.56,1.1,1.111,1.645,1.679.172.181.293.189.474,0,.525-.551,1.059-1.094,1.593-1.636a.869.869,0,0,0,.146-.164.439.439,0,0,0,.026-.456c-.069-.121-.215-.009-.319.017a6.831,6.831,0,0,1-3.436-.017C224.441,239.857,224.295,239.8,224.329,240.081Zm-.809,1.145c-.233.086-.525.189-.809.3-.112.043-.043.129-.009.189.388.689.784,1.378,1.171,2.067.077.138.172.172.31.086.362-.224.732-.448,1.1-.663.164-.095.155-.172.034-.293-.508-.517-1.016-1.042-1.524-1.567A.275.275,0,0,0,223.52,241.226Zm5.718,0a.3.3,0,0,0-.267.077c-.534.543-1.059,1.094-1.585,1.636-.112.112-.06.181.052.25.379.224.758.448,1.128.68a.175.175,0,0,0,.284-.077l1.188-2.093c.043-.069.077-.146-.026-.181C229.737,241.407,229.453,241.312,229.238,241.226Z" transform="translate(0 0)" fill="#544abd"/>
    <path id="Path_5186" data-name="Path 5186" d="M451.1,258.433v-.68c.009-.439.155-.6.586-.646a2.58,2.58,0,0,0,2.377-1.808,2.536,2.536,0,1,0-4.934-1.1c-.017.121-.034.233-.052.353a.526.526,0,0,1-.551.543.535.535,0,0,1-.525-.6,3.433,3.433,0,0,1,1.455-2.85,3.639,3.639,0,1,1,3.16,6.416c-.353.086-.491.224-.448.586a2.9,2.9,0,0,1,0,.611.522.522,0,0,1-.534.491.511.511,0,0,1-.525-.5v-.06C451.1,258.924,451.1,258.683,451.1,258.433Z" transform="translate(-212.889 -32.51)" fill="#544abd"/>
    <path id="Path_5187" data-name="Path 5187" d="M483.909,359.675a2.577,2.577,0,0,1,0-.258.529.529,0,0,1,.543-.517.511.511,0,0,1,.525.525,5.155,5.155,0,0,1,0,.517.52.52,0,0,1-.543.543.527.527,0,0,1-.534-.56c0-.078.009-.164.009-.25Z" transform="translate(-245.698 -131.203)" fill="#544abd"/>
    <path id="Path_5188" data-name="Path 5188" d="M324.311,456.7a2.192,2.192,0,0,1-1.981-1.206.575.575,0,0,1,.164-.844c.293-.164.586-.052.8.3a1.111,1.111,0,0,0,2.015.009c.224-.362.5-.474.792-.327s.379.491.172.87A2.164,2.164,0,0,1,324.311,456.7Z" transform="translate(-97.941 -218.639)" fill="#544abd"/>
    <path id="Path_5189" data-name="Path 5189" d="M293.79,400.9a1.538,1.538,0,0,1,1.55,1.55.537.537,0,0,1-1.068.095.146.146,0,0,1-.009-.06c-.043-.276-.189-.474-.474-.482-.3-.009-.448.2-.508.482-.077.379-.284.551-.611.517-.31-.034-.482-.267-.474-.654A1.558,1.558,0,0,1,293.79,400.9Z" transform="translate(-70.503 -169.585)" fill="#544abd"/>
    <path id="Path_5190" data-name="Path 5190" d="M365.764,400.9a1.539,1.539,0,0,1,1.567,1.533.528.528,0,0,1-.491.568.511.511,0,0,1-.577-.474c-.052-.293-.181-.534-.5-.525s-.448.241-.5.534a.536.536,0,0,1-1.068-.095A1.546,1.546,0,0,1,365.764,400.9Z" transform="translate(-136.302 -169.586)" fill="#544abd"/>
  </g>
</svg>
