<svg xmlns="http://www.w3.org/2000/svg" width="33.229" height="32" viewBox="0 0 33.229 32">
  <g id="audio-book" transform="translate(-208 -216.184)">
    <path id="Path_5173" data-name="Path 5173" d="M208,244.3v-18.89a2.055,2.055,0,0,1,1.57-1.709c.356-.087.416-.252.416-.572a1.532,1.532,0,0,1,1.587-1.665c1.1-.061,2.2-.121,3.3-.156a.806.806,0,0,0,.7-.382,10.705,10.705,0,0,1,10.685-4.623,10.517,10.517,0,0,1,7.485,4.762.514.514,0,0,0,.451.243c1.171.043,2.333.1,3.5.165a1.5,1.5,0,0,1,1.44.971,2.365,2.365,0,0,1,.113.859c0,.234.078.312.295.373a2.059,2.059,0,0,1,1.683,2.22c0,5.993.009,11.986-.009,17.979a3.839,3.839,0,0,1-.217,1.206,3.6,3.6,0,0,1-3.912,2.35c-.867-.078-1.752-.113-2.619-.139a33.041,33.041,0,0,0-8.057.668,7.317,7.317,0,0,1-3.244.069,32.72,32.72,0,0,0-7.8-.755c-1.232.017-2.463.121-3.695.156a3.409,3.409,0,0,1-3.183-1.761A10.742,10.742,0,0,1,208,244.3Zm1.969-19.7a1.086,1.086,0,0,0-1,1.206c-.009,1.8,0,3.617,0,5.421v12.5a2.6,2.6,0,0,0,1.492,2.463,3.028,3.028,0,0,0,1.613.234c.885-.052,1.769-.113,2.654-.139a33.766,33.766,0,0,1,7.875.607,7.619,7.619,0,0,0,3.339.139,36.292,36.292,0,0,1,10.061-.694c.52.026,1.032.078,1.552.087a2.589,2.589,0,0,0,2.7-2.6q.013-8.99,0-17.979a2,2,0,0,0-.052-.451.99.99,0,0,0-.945-.789v13.66a1.962,1.962,0,0,1-.017.39.479.479,0,0,1-.954-.017c-.009-.121-.009-.234-.009-.356V223.1c0-.46-.191-.65-.642-.676-.954-.052-1.9-.1-2.853-.147-.1-.009-.182,0-.295,0,.2.8.4,1.552.572,2.316a8.023,8.023,0,0,1,.252,1.561c.043,1.969.069,3.938.052,5.906a2.882,2.882,0,0,1-2.333,2.784,7.7,7.7,0,0,1-1.483.078,1.523,1.523,0,0,1-1.657-1.657V228.2a1.537,1.537,0,0,1,1.674-1.674h.8c-.165-.685-.312-1.3-.468-1.908a.34.34,0,0,0-.087-.139c-.191-.278-.382-.546-.564-.824-.252-.382-.486-.763-.746-1.136a.366.366,0,0,0-.286-.139,29.641,29.641,0,0,0-4.77.737c-.269.069-.356.173-.356.451q.013,10.5.009,21v.382c.147-.026.252-.035.356-.061a32.173,32.173,0,0,1,6.626-.789c1.8-.009,3.591.078,5.386.121.676.017.833-.121.833-.8,0-.833-.009-1.665.009-2.5.009-.4.321-.624.642-.494a.532.532,0,0,1,.33.572c0,.859.009,1.709,0,2.567a1.509,1.509,0,0,1-1.709,1.622c-1.11-.043-2.229-.13-3.339-.147a33.443,33.443,0,0,0-7.936.677,6.348,6.348,0,0,1-2.853.1,28.079,28.079,0,0,0-6.366-.755c-1.769-.009-3.547.087-5.317.121a2.266,2.266,0,0,1-.642-.043,1.541,1.541,0,0,1-1.127-1.683V225.023A2.946,2.946,0,0,1,209.969,224.607Zm14.163,20.373v-.39q0-10.512.009-21.032a.37.37,0,0,0-.338-.434,29.881,29.881,0,0,0-4.64-.737.468.468,0,0,0-.512.217,9.449,9.449,0,0,1-.919,1.44,3.045,3.045,0,0,0-.633,1.457c-.069.33-.1.668-.165,1.041.373,0,.676-.017.98,0a1.49,1.49,0,0,1,1.44,1.509q.026,2.68,0,5.351a1.5,1.5,0,0,1-1.535,1.518c-.269.009-.538,0-.815,0a3,3,0,0,1-3.148-3.14c0-1.526-.017-3.053.009-4.579a10.285,10.285,0,0,1,.173-1.934c.2-1,.477-1.986.72-2.966a.425.425,0,0,0-.087-.035c-1.067.052-2.142.1-3.209.165a.517.517,0,0,0-.5.538c-.017.217-.009.434-.009.65v19.8c0,.694.156.841.85.807.954-.043,1.9-.113,2.853-.139a37.466,37.466,0,0,1,7.754.529C222.961,244.728,223.516,244.85,224.132,244.98Zm.8-27.867a10.032,10.032,0,0,0-7.676,3.27,16.2,16.2,0,0,0-1.587,2.281.732.732,0,0,0,.312,1.032.754.754,0,0,0,1.032-.312c.061-.1.1-.191.156-.286a8.458,8.458,0,0,1,13.435-1.934,8.882,8.882,0,0,1,1.631,2.29.751.751,0,0,0,1.006.451.759.759,0,0,0,.356-1.162A9.835,9.835,0,0,0,224.93,217.113Zm-8.552,16.756v-2.715c0-.46.165-.694.494-.685s.477.234.477.7v2.437c0,.113.009.225.017.338.841.061,1.006-.1,1.006-.876v-4.735c0-.711-.3-.945-1.023-.763v1.032c-.009.347-.2.572-.486.572s-.477-.226-.486-.572c-.009-.33,0-.659,0-1a1.929,1.929,0,0,0-1.544,1.839c-.026.867-.026,1.735,0,2.593A1.918,1.918,0,0,0,216.378,233.87Zm3.4-12.42a.992.992,0,0,0,.226.043,26.854,26.854,0,0,1,4.371.781,1.281,1.281,0,0,0,.572-.017c1.058-.2,2.116-.425,3.174-.616.434-.078.867-.121,1.327-.182A7.356,7.356,0,0,0,219.778,221.45Zm13.1,6.149v6.271a1.906,1.906,0,0,0,1.526-1.83c.026-.867.026-1.735,0-2.593A1.926,1.926,0,0,0,232.883,227.6Zm-1.006-.069c-.815-.087-1.006.087-1.006.867v4.735c0,.72.26.928,1.006.789Zm-15.664-2.723c-.321-.121-.65-.252-1-.39a9.6,9.6,0,0,0-.39,2.827c.356-.182.694-.356,1.015-.538a.35.35,0,0,0,.13-.234C216.057,225.916,216.135,225.361,216.213,224.806Zm17.927-.225c-.416.156-.746.278-1.067.39l.208,1.561a.23.23,0,0,0,.1.156c.338.182.676.356,1.1.572C234.357,226.341,234.245,225.465,234.141,224.581Z" transform="translate(0 0)" fill="#544abd"/>
    <path id="Path_5174" data-name="Path 5174" d="M425.323,508.884a33.938,33.938,0,0,0-6.427.5c-.382.069-.616-.035-.7-.295a.489.489,0,0,1,.442-.65c.98-.139,1.969-.295,2.958-.39a42.469,42.469,0,0,1,6.644-.069.777.777,0,0,1,.494.173.522.522,0,0,1,.078.486.6.6,0,0,1-.442.286c-.494.017-1-.035-1.492-.052C426.364,508.875,425.844,508.884,425.323,508.884Z" transform="translate(-191.937 -266.402)" fill="#544abd"/>
    <path id="Path_5175" data-name="Path 5175" d="M426,479c.581.026,1.509.061,2.437.113.373.017.59.234.564.529s-.269.468-.642.442a42.315,42.315,0,0,0-7.485.156c-.642.069-1.284.182-1.925.278-.347.052-.6-.087-.642-.373s.121-.512.468-.572A40.137,40.137,0,0,1,426,479Z" transform="translate(-192.056 -240.022)" fill="#544abd"/>
    <path id="Path_5176" data-name="Path 5176" d="M425.541,451.33a38.664,38.664,0,0,0-6.487.529.693.693,0,0,1-.442-.009.785.785,0,0,1-.312-.434.4.4,0,0,1,.356-.468c.477-.1.954-.173,1.44-.243a44.059,44.059,0,0,1,8.283-.26c.468.026.72.33.564.676a.5.5,0,0,1-.555.295C427.44,451.39,426.495,451.364,425.541,451.33Z" transform="translate(-192.051 -213.87)" fill="#544abd"/>
    <path id="Path_5177" data-name="Path 5177" d="M268.372,480.19c0,.33-.26.52-.624.468-.737-.1-1.474-.225-2.212-.312a40.543,40.543,0,0,0-7.034-.147,1.419,1.419,0,0,0-.191.017c-.373.017-.616-.156-.633-.451s.191-.494.572-.52a40.733,40.733,0,0,1,9.471.425C268.19,479.748,268.372,479.886,268.372,480.19Z" transform="translate(-45.367 -240.154)" fill="#544abd"/>
    <path id="Path_5178" data-name="Path 5178" d="M261.137,509.474H258.6c-.147,0-.3.017-.451.017a.5.5,0,0,1-.564-.451.486.486,0,0,1,.512-.512c1.743-.017,3.487-.1,5.221-.026,1.483.061,2.966.3,4.441.468.269.026.52.147.5.442a.735.735,0,0,1-.278.486c-.1.078-.312.035-.468.017-.746-.1-1.492-.243-2.246-.3-1.379-.113-2.758-.182-4.137-.269Z" transform="translate(-45.288 -266.94)" fill="#544abd"/>
    <path id="Path_5179" data-name="Path 5179" d="M261.09,450.2a40.246,40.246,0,0,1,6.618.555c.286.052.538.13.564.477.026.33-.217.546-.59.5-.685-.087-1.37-.208-2.056-.286a40.181,40.181,0,0,0-6.539-.2c-.312.009-.624.035-.937.043-.338.009-.555-.165-.572-.442a.506.506,0,0,1,.538-.529C259.1,450.269,260.1,450.235,261.09,450.2Z" transform="translate(-45.276 -213.72)" fill="#544abd"/>
  </g>
</svg>
