<svg id="calm" xmlns="http://www.w3.org/2000/svg" width="32" height="32" viewBox="0 0 32 32">
  <g id="Group_3867" data-name="Group 3867">
    <g id="Group_3866" data-name="Group 3866">
      <path id="Path_5196" data-name="Path 5196" d="M328.348,201.9a.533.533,0,0,0-.753.047,1.6,1.6,0,0,1-2.4,0,.533.533,0,1,0-.8.706,2.667,2.667,0,0,0,4,0A.533.533,0,0,0,328.348,201.9Z" transform="translate(-303.995 -189.158)" fill="#544abd"/>
      <path id="Path_5197" data-name="Path 5197" d="M123.61,202.662a.533.533,0,1,0-.8-.706,1.6,1.6,0,0,1-2.4,0,.533.533,0,0,0-.8.706,2.667,2.667,0,0,0,4,0Z" transform="translate(-112.01 -189.165)" fill="#544abd"/>
      <path id="Path_5198" data-name="Path 5198" d="M16,0A16,16,0,1,0,32,16,16,16,0,0,0,16,0Zm0,30.933A14.933,14.933,0,1,1,30.933,16,14.933,14.933,0,0,1,16,30.933Z" fill="#544abd"/>
      <path id="Path_5199" data-name="Path 5199" d="M175.28,341.49a6.793,6.793,0,0,1-9.584,0,.533.533,0,1,0-.752.757,7.86,7.86,0,0,0,11.087,0,.533.533,0,0,0-.752-.757Z" transform="translate(-154.488 -320.002)" fill="#544abd"/>
      <path id="Path_5200" data-name="Path 5200" d="M114.673,112.455a3.2,3.2,0,0,1,3.3,0,.533.533,0,1,0,.551-.913,4.268,4.268,0,0,0-4.4,0,.533.533,0,1,0,.55.914Z" transform="translate(-106.748 -103.998)" fill="#544abd"/>
      <path id="Path_5201" data-name="Path 5201" d="M323.32,111.543a4.268,4.268,0,0,0-4.4,0,.533.533,0,0,0,.55.914,3.2,3.2,0,0,1,3.3,0,.533.533,0,0,0,.551-.913Z" transform="translate(-298.748 -103.999)" fill="#544abd"/>
    </g>
  </g>
</svg>
