<svg xmlns="http://www.w3.org/2000/svg" width="22.815" height="32" viewBox="0 0 22.815 32">
  <g id="touch" transform="translate(-218.389 -145)">
    <path id="Path_5193" data-name="Path 5193" d="M277.807,188.994a1.2,1.2,0,0,1-.425-.525c-.725-1.475-1.462-2.949-2.181-4.424a2.353,2.353,0,0,1,1.956-3.474,2.181,2.181,0,0,1,2.031,1.006c.262.381.494.787.75,1.2a.455.455,0,0,0,.044-.319q0-4.1.006-8.186a.579.579,0,0,0-.375-.619,6.3,6.3,0,0,1-3.656-4.793,6.42,6.42,0,1,1,8.93,4.837.5.5,0,0,0-.344.537c.013.844.006,1.687.006,2.531,0,.337.037.362.362.281a9.541,9.541,0,0,0,6.811-7.567,9.676,9.676,0,0,0-1.325-6.742.428.428,0,0,0-.594-.231,2.4,2.4,0,0,1-2.849-3.318,2.293,2.293,0,0,1,2.2-1.387,2.4,2.4,0,0,1,2.15,3.424.529.529,0,0,0,.05.594,10.3,10.3,0,0,1,1.812,6.411,10.721,10.721,0,0,1-5.968,9.329.941.941,0,0,0-.137.069c-.069.056-.275.05-.15.219.087.125.2.131.344.025a2.25,2.25,0,0,1,3.506.794c.094.175.181.187.344.125a2.3,2.3,0,0,1,3.106,2.231c-.044,2.387-.019,4.768-.006,7.155a.846.846,0,0,1-.4.819h-.5a.91.91,0,0,1-.437-.931V181.1a1.417,1.417,0,0,0-.069-.581.978.978,0,0,0-1.025-.556.924.924,0,0,0-.775.894c-.012.612-.006,1.231-.006,1.843a2.51,2.51,0,0,1-.019.375.658.658,0,1,1-1.312-.094c-.006-1.094,0-2.187-.006-3.281a.952.952,0,1,0-1.9-.006c-.006.906,0,1.812,0,2.718,0,.187.006.375-.006.562a.657.657,0,0,1-1.312.056,2.109,2.109,0,0,1-.012-.344c0-1.019.006-2.043-.006-3.062a.932.932,0,1,0-1.862.037c-.013.956.006,1.918-.006,2.874-.006.581-.25.881-.669.881s-.656-.306-.656-.906V171.2c0-.125.006-.25-.006-.375a.971.971,0,0,0-.837-.875.941.941,0,0,0-1.019.656,1.656,1.656,0,0,0-.037.525v13.747a2.912,2.912,0,0,1-.013.406.659.659,0,0,1-.5.581.614.614,0,0,1-.687-.256,3.882,3.882,0,0,1-.219-.337c-.569-.931-1.131-1.868-1.712-2.8a1.027,1.027,0,0,0-1.181-.544,1.042,1.042,0,0,0-.619,1.556c.725,1.475,1.462,2.949,2.193,4.424a.716.716,0,0,1-.275,1.094C278.138,188.994,277.976,188.994,277.807,188.994Zm9.567-21.152a5.092,5.092,0,1,0-9.717,2.131,4.952,4.952,0,0,0,2.037,2.256c.225.131.3.081.281-.162-.006-.094,0-.187,0-.281a4.594,4.594,0,0,1,.156-1.7.353.353,0,0,0-.081-.419,2.748,2.748,0,0,1-.656-1.868,2.889,2.889,0,1,1,5.1,1.9c-.075.094-.2.162-.144.319a5.671,5.671,0,0,1,.187,1.943c0,.119-.062.275.081.337.112.05.212-.056.306-.119A4.988,4.988,0,0,0,287.374,167.842Zm-3.518.031a1.542,1.542,0,0,0-1.006-1.5,1.57,1.57,0,0,0-1.775.469,1.589,1.589,0,0,0-.162,1.781c.119.212.231.3.487.175a2.048,2.048,0,0,1,1.606-.05c.487.175.575.131.756-.356A1.237,1.237,0,0,0,283.856,167.873Zm4.205-7.661a1.059,1.059,0,0,0,1.05,1.081,1.078,1.078,0,1,0,.025-2.156A1.037,1.037,0,0,0,288.061,160.212Z" transform="translate(-53.006 -12)" fill="#544abd"/>
    <path id="Path_5194" data-name="Path 5194" d="M228.926,145a.683.683,0,0,1,.394.775.67.67,0,0,1-.694.519,9.174,9.174,0,0,0-3.731,1.05,9.6,9.6,0,0,0-3.668,13.666c.119.187.212.275.462.187a2.391,2.391,0,0,1,2.849,1.087,2.419,2.419,0,0,1-.45,2.949,2.4,2.4,0,0,1-3.074.181,2.363,2.363,0,0,1-.762-2.924.566.566,0,0,0-.056-.644,10.881,10.881,0,0,1,7.736-16.8.87.87,0,0,0,.119-.037C228.344,145,228.632,145,228.926,145Zm-6.5,19.546a1.078,1.078,0,1,0,.012-2.156,1.078,1.078,0,0,0-.012,2.156Z" transform="translate(0)" fill="#544abd"/>
    <path id="Path_5195" data-name="Path 5195" d="M418.356,149.225a.662.662,0,0,1,0-1.325.662.662,0,0,1,0,1.325Z" transform="translate(-186.856 -2.719)" fill="#544abd"/>
  </g>
</svg>
