<svg xmlns="http://www.w3.org/2000/svg" width="31.988" height="19.193" viewBox="0 0 31.988 19.193">
  <g id="look-svgrepo-com" transform="translate(-0.006 -6.404)">
    <path id="Path_5129" data-name="Path 5129" d="M16,6.4C10.153,6.4,5.6,10.064.006,16,4.822,21.07,8.863,25.6,16,25.6s12.382-5.73,15.994-9.492C28.3,11.7,23.051,6.4,16,6.4ZM16,24.53C9.664,24.53,5.84,20.6,1.476,16,6.668,10.584,10.8,7.471,16,7.471c6.161,0,10.975,4.443,14.558,8.591C27.035,19.736,22.265,24.531,16,24.531Z" fill="#544abd"/>
    <path id="Path_5130" data-name="Path 5130" d="M16,9.6A6.4,6.4,0,1,0,22.4,16,6.4,6.4,0,0,0,16,9.6Zm0,11.728A5.331,5.331,0,1,1,21.331,16,5.337,5.337,0,0,1,16,21.331Z" fill="#544abd"/>
    <path id="Path_5131" data-name="Path 5131" d="M16,12.268A3.732,3.732,0,1,0,19.732,16,3.736,3.736,0,0,0,16,12.268Zm0,6.4A2.666,2.666,0,1,1,18.666,16,2.669,2.669,0,0,1,16,18.666Z" fill="#544abd"/>
  </g>
</svg>
