<svg xmlns="http://www.w3.org/2000/svg" width="27.135" height="32" viewBox="0 0 27.135 32">
  <g id="face" transform="translate(-237.525 -209.156)">
    <path id="Path_5214" data-name="Path 5214" d="M241.739,241.123a.964.964,0,0,1-.4-.825,8.624,8.624,0,0,1,1.434-5.292,9.266,9.266,0,0,1,3.451-2.992,21.381,21.381,0,0,1,4.326-1.75.348.348,0,0,0,.292-.367,1.445,1.445,0,0,0-.433-1.158,12.039,12.039,0,0,1-2.109-3.509.615.615,0,0,0-.417-.417,1.312,1.312,0,0,1-.742-.675c-.55-1.058-1.117-2.117-1.659-3.184a1.911,1.911,0,0,1,1.058-2.709c.225-.083.292-.175.242-.425a7.283,7.283,0,0,1,5.934-8.551,4.419,4.419,0,0,1,2.009.008,2.645,2.645,0,0,1,.933.492c.108.083.208.125.333.017a3.072,3.072,0,0,1,2.75-.517,5.012,5.012,0,0,1,3.959,4.817,13.612,13.612,0,0,1-.342,3.809c-.058.217.05.267.208.333a1.946,1.946,0,0,1,1.334,1.717,1.566,1.566,0,0,1-.175.908q-.863,1.663-1.725,3.317a1.287,1.287,0,0,1-.758.658.51.51,0,0,0-.35.35,14.987,14.987,0,0,1-1.817,3.225,1.8,1.8,0,0,1-.3.358,1.17,1.17,0,0,0-.442,1.15.348.348,0,0,0,.292.367,19.718,19.718,0,0,1,4.809,2.034,8.42,8.42,0,0,1,4.309,6.2,10.6,10.6,0,0,1,.075,1.992.812.812,0,0,1-.383.642H257.142a.7.7,0,0,1-.342-.825c.125-.383.442-.467.792-.475.117-.008.225,0,.342,0h8.3c.183.008.267-.083.25-.267-.017-.217-.025-.433-.058-.65a6.9,6.9,0,0,0-2.7-4.817,16.652,16.652,0,0,0-5.267-2.5c-.225-.067-.242.075-.283.208a3.633,3.633,0,0,1-1.1,1.742,3.724,3.724,0,0,1-6.068-1.717c-.083-.258-.183-.283-.417-.208a19.186,19.186,0,0,0-4.434,1.967,7.068,7.068,0,0,0-3.467,5.709c-.05.525-.025.525.483.533h8.143a3.15,3.15,0,0,1,.558.042.64.64,0,0,1,.358,1.083,2.182,2.182,0,0,1-.208.183C248.6,241.123,245.165,241.123,241.739,241.123Zm12.827-11.868h.558a1.382,1.382,0,0,0,.183-.025,4.263,4.263,0,0,0,2.859-1.834,13.3,13.3,0,0,0,1.684-3.192c.15-.417.35-.733.867-.667.142.017.167-.092.217-.183.158-.292.308-.592.458-.883.358-.683.717-1.359,1.067-2.042a.65.65,0,0,0-.025-.758.613.613,0,0,0-.758-.167l-.15.05a.656.656,0,0,1-.842-.567,2.842,2.842,0,0,0-1.659-2.192,2.569,2.569,0,0,1-.875-.633c-.175-.2-.242-.15-.375.042a4.082,4.082,0,0,1-3.284,1.867,4.319,4.319,0,0,1-2.95-.967,1.9,1.9,0,0,0-2.967.933,3.785,3.785,0,0,0-.108.858.663.663,0,0,1-.933.608.667.667,0,0,0-.792.158.65.65,0,0,0-.008.783c.508.967,1.008,1.934,1.517,2.9.05.092.083.2.217.183.492-.058.708.233.858.642a12.6,12.6,0,0,0,1.775,3.317A4.073,4.073,0,0,0,254.566,229.254ZM248,216.419a3.776,3.776,0,0,1,1.384-.883,3.265,3.265,0,0,1,3.109.6,2.786,2.786,0,0,0,3.025.325,2.873,2.873,0,0,0,1.675-2.55.713.713,0,0,1,.65-.742.7.7,0,0,1,.692.733,1.98,1.98,0,0,0,1.175,1.742,4.026,4.026,0,0,1,1.384,1.092c.033.042.058.083.133.075a.414.414,0,0,0,.025-.108,13.05,13.05,0,0,0,.117-2.55,3.612,3.612,0,0,0-2.959-3.617,1.853,1.853,0,0,0-1.75.383,1.216,1.216,0,0,1-1.7-.042,1.571,1.571,0,0,0-1.142-.392,5.814,5.814,0,0,0-5.359,3.634A5.7,5.7,0,0,0,248,216.419Zm4.176,14.219a2.423,2.423,0,1,0,4.834-.125c-.008-.417,0-.417-.383-.275a5.608,5.608,0,0,1-3.967.042C252.166,230.1,252.174,230.1,252.174,230.638Z" transform="translate(-3.491)" fill="#544abd"/>
    <path id="Path_5215" data-name="Path 5215" d="M393.051,578.583a.775.775,0,0,1-.383-.5.647.647,0,0,1,.392-.733.653.653,0,0,1,.692,1.083,1.785,1.785,0,0,1-.2.15Z" transform="translate(-142.202 -337.46)" fill="#544abd"/>
    <path id="Path_5216" data-name="Path 5216" d="M239.807,209.2H241.3a.651.651,0,1,1,.067,1.3c-.692.067-1.392.025-2.084.025-.308,0-.425.083-.417.408.025.667.017,1.325,0,1.992a.666.666,0,0,1-.925.675.64.64,0,0,1-.408-.608c-.008-1.042-.008-2.075,0-3.117a.639.639,0,0,1,.7-.667C238.765,209.2,239.29,209.2,239.807,209.2Z" transform="translate(0 -0.04)" fill="#544abd"/>
    <path id="Path_5217" data-name="Path 5217" d="M511.611,209.2H513.1a.66.66,0,0,1,.733.733c.008,1,.008,1.992,0,2.992a.665.665,0,1,1-1.325.025c-.017-.675-.025-1.35,0-2.025.008-.325-.108-.417-.417-.4-.567.017-1.142.008-1.717,0a2.4,2.4,0,0,1-.492-.042.632.632,0,0,1-.508-.683.62.62,0,0,1,.608-.592c.55-.008,1.092,0,1.625-.008Z" transform="translate(-249.193 -0.04)" fill="#544abd"/>
    <path id="Path_5218" data-name="Path 5218" d="M239.973,419.657h-1.467a.689.689,0,0,1-.775-.767q-.012-1.463,0-2.925c0-.475.267-.775.675-.767a.683.683,0,0,1,.658.758c.008.642,0,1.284,0,1.934,0,.433,0,.433.425.433.65,0,1.309-.008,1.959.008a.669.669,0,1,1,.017,1.334C240.965,419.657,240.465,419.657,239.973,419.657Z" transform="translate(-0.183 -188.869)" fill="#544abd"/>
    <path id="Path_5219" data-name="Path 5219" d="M513.957,417.327c0,.492.008.975,0,1.467a.693.693,0,0,1-.775.767q-1.463.012-2.925,0a.673.673,0,0,1-.758-.65.679.679,0,0,1,.733-.683c.683-.017,1.367-.017,2.059,0,.258.008.342-.092.342-.342-.017-.675-.008-1.35,0-2.025a.711.711,0,0,1,.475-.733.664.664,0,0,1,.858.675C513.965,416.31,513.957,416.819,513.957,417.327Z" transform="translate(-249.305 -188.773)" fill="#544abd"/>
  </g>
</svg>
