<svg id="happy-cute" xmlns="http://www.w3.org/2000/svg" width="32" height="32" viewBox="0 0 32 32">
  <g id="Group_3869" data-name="Group 3869">
    <g id="Group_3868" data-name="Group 3868">
      <path id="Path_5202" data-name="Path 5202" d="M16,0A16,16,0,1,0,32,16,16.018,16.018,0,0,0,16,0Zm0,30.856A14.856,14.856,0,1,1,30.856,16,14.873,14.873,0,0,1,16,30.856Z" fill="#544abd"/>
    </g>
  </g>
  <g id="Group_3871" data-name="Group 3871" transform="translate(5.995 9.794)">
    <g id="Group_3870" data-name="Group 3870">
      <path id="Path_5203" data-name="Path 5203" d="M102.828,158.647a3.979,3.979,0,0,0-6.831,0,.572.572,0,0,0,.982.587,2.835,2.835,0,0,1,4.867,0,.572.572,0,0,0,.982-.587Z" transform="translate(-95.916 -156.709)" fill="#544abd"/>
    </g>
  </g>
  <g id="Group_3873" data-name="Group 3873" transform="translate(19.012 9.794)">
    <g id="Group_3872" data-name="Group 3872">
      <path id="Path_5204" data-name="Path 5204" d="M311.112,158.647a3.979,3.979,0,0,0-6.831,0,.572.572,0,0,0,.982.587,2.835,2.835,0,0,1,4.867,0,.572.572,0,0,0,.982-.587Z" transform="translate(-304.2 -156.709)" fill="#544abd"/>
    </g>
  </g>
  <g id="Group_3875" data-name="Group 3875" transform="translate(10.545 17.224)">
    <g id="Group_3874" data-name="Group 3874">
      <path id="Path_5205" data-name="Path 5205" d="M179.059,275.582a.572.572,0,0,0-.572.572,1.87,1.87,0,0,1-3.739,0,.572.572,0,1,0-1.144,0,1.87,1.87,0,0,1-3.739,0,.572.572,0,0,0-1.144,0,3.012,3.012,0,0,0,5.455,1.764,3.012,3.012,0,0,0,5.455-1.764A.572.572,0,0,0,179.059,275.582Z" transform="translate(-168.721 -275.582)" fill="#544abd"/>
    </g>
  </g>
</svg>
