<svg xmlns="http://www.w3.org/2000/svg" width="32.246" height="32" viewBox="0 0 32.246 32">
  <g id="search-map" transform="translate(-208.5 -210.74)">
    <path id="Path_5180" data-name="Path 5180" d="M208.517,224.347a19.729,19.729,0,0,1,.487-2.621,14.638,14.638,0,0,1,1.227-3.092c.176-.328.454-.437.723-.294a.493.493,0,0,1,.193.7c-.244.487-.479.975-.681,1.487a13.821,13.821,0,0,0-.941,4.436,13.882,13.882,0,0,0,22.608,11.451,13.336,13.336,0,0,0,4.974-8.712,13.889,13.889,0,0,0-11.544-15.786,12.783,12.783,0,0,0-3.755-.076c-.378.05-.647-.126-.689-.428-.042-.319.176-.554.58-.588a14.7,14.7,0,0,1,11.359,3.487,14.4,14.4,0,0,1,5.024,8.864,14.611,14.611,0,0,1-2.4,10.888.323.323,0,0,0,.059.5q2.155,2.142,4.293,4.285a2.01,2.01,0,0,1,0,3.075,2.223,2.223,0,0,1-1.756.823,1.905,1.905,0,0,1-1.252-.512c-.613-.6-1.218-1.21-1.823-1.823a.507.507,0,0,1-.034-.756.482.482,0,0,1,.748.05c.555.546,1.1,1.092,1.647,1.638a.975.975,0,0,0,1.579,0,1.864,1.864,0,0,0,.512-.63.94.94,0,0,0-.227-1.042c-1.462-1.47-2.932-2.941-4.394-4.411-.118-.118-.2-.109-.3.017a14.245,14.245,0,0,1-1.4,1.445c-.151.143-.16.235-.008.386.378.361.748.739,1.109,1.117a.474.474,0,0,1,.084.6.48.48,0,0,1-.538.244.606.606,0,0,1-.336-.218c-.361-.361-.731-.714-1.084-1.092a.292.292,0,0,0-.47-.034,14.322,14.322,0,0,1-7.015,2.714,14.5,14.5,0,0,1-10.619-2.89,14.69,14.69,0,0,1-5.822-9.729c-.05-.3-.084-.6-.126-.9C208.517,226.061,208.517,225.2,208.517,224.347Z" fill="#544abd"/>
    <path id="Path_5181" data-name="Path 5181" d="M247.172,264.928a11.03,11.03,0,0,0,13.417.05.505.505,0,0,0-.328-.042h-3.9a1.924,1.924,0,0,1-.437-.042.444.444,0,0,1-.37-.5.466.466,0,0,1,.428-.462,1.562,1.562,0,0,1,.344-.008h5.192a.65.65,0,0,0,.546-.235,11.244,11.244,0,0,0,2.8-5.671c.05-.26.008-.378-.3-.37-1.008.017-2.016.008-3.016.008a.57.57,0,0,1-.613-.336c-.143-.361.118-.681.571-.689,1.017-.008,2.033,0,3.05,0,.462,0,.462,0,.462-.47,0-.252-.017-.5-.008-.756.008-.286-.109-.378-.395-.378q-2.546.013-5.091.008h-.286c-.244.008-.47-.017-.588-.26a.609.609,0,0,1,.126-.672c.445-.6.891-1.218,1.336-1.823.714-.983,1.428-1.966,2.159-2.941.16-.21.16-.353-.034-.529-.218-.21-.437-.428-.639-.655-.185-.21-.294-.218-.47.034-1.529,2.1-3.075,4.192-4.587,6.3a1.2,1.2,0,0,1-1.117.563c-1.655-.034-3.31-.008-4.965-.008a1.923,1.923,0,0,1-.311-.008.494.494,0,0,1-.008-.966,1.554,1.554,0,0,1,.344-.017c1.579,0,3.167-.008,4.747.008a.654.654,0,0,0,.6-.311q2.268-3.113,4.554-6.217c.16-.21.134-.319-.076-.47a11.05,11.05,0,0,0-5.091-1.916c-.37-.042-.731-.05-1.1-.059a1.929,1.929,0,0,1-.311-.017.509.509,0,0,1-.47-.538.5.5,0,0,1,.529-.47,10.7,10.7,0,0,1,2.588.26,12.113,12.113,0,0,1,3.319,22.474,11.947,11.947,0,0,1-6.125,1.5,12.121,12.121,0,0,1-11.115-16.181,1.513,1.513,0,0,1,.067-.176.514.514,0,0,1,.63-.328.488.488,0,0,1,.319.63c-.059.244-.16.479-.227.714s-.134.487-.193.731c-.084.361-.084.37.294.37h1.134c.353.008.571.2.571.487a.5.5,0,0,1-.563.5c-.437.008-.882.017-1.319,0-.286-.017-.378.109-.37.37,0,.3.008.6-.008.916-.017.244.084.328.328.328.891-.008,1.781,0,2.672-.008a.637.637,0,0,1,.647.286c.143.277-.008.487-.16.689-.739,1.017-1.479,2.033-2.235,3.041a.435.435,0,0,0-.05.563c.193.311.37.63.546.949.126.227.21.235.37.017.647-.907,1.311-1.8,1.966-2.7.6-.832,1.218-1.655,1.815-2.487a.846.846,0,0,1,.748-.37c3.235.008,6.478,0,9.712.008a.844.844,0,0,1,.4.059.465.465,0,0,1,.286.479.452.452,0,0,1-.311.428,1.409,1.409,0,0,1-.529.059q-4.562,0-9.116-.008a.712.712,0,0,0-.655.328q-1.827,2.52-3.671,5.024a.346.346,0,0,0,.008.512,1.064,1.064,0,0,0,.916.42c1.806-.025,3.6-.008,5.411-.008a1.9,1.9,0,0,1,.378.017.469.469,0,0,1,.4.462.488.488,0,0,1-.353.5,1.269,1.269,0,0,1-.437.042h-4.31A2.7,2.7,0,0,0,247.172,264.928Zm12.888-10.905h.336c1.353,0,2.7-.008,4.049.008.294,0,.361-.076.294-.353a11.653,11.653,0,0,0-1.479-3.512c-.151-.235-.235-.218-.386-.008-.706.983-1.428,1.958-2.142,2.941C260.522,253.384,260.32,253.67,260.06,254.022Zm-16.089,3.613c-.26,0-.521.008-.79,0-.168-.008-.26.034-.227.227a9.894,9.894,0,0,0,.412,1.706c.042.118.092.2.21.05.437-.6.882-1.2,1.319-1.8.1-.134.042-.185-.1-.185Z" transform="translate(-30.523 -30.516)" fill="#544abd"/>
    <path id="Path_5182" data-name="Path 5182" d="M249.549,211.994a4.055,4.055,0,0,0-3.411,2.26,4.127,4.127,0,0,0,.21,4.47c.672,1.017,1.4,1.983,2.134,2.957a5.486,5.486,0,0,1,1.042,2.361c.025.143.067.286.1.428a.3.3,0,0,0,.3.26.289.289,0,0,0,.286-.244,1.186,1.186,0,0,0,.05-.185,6.621,6.621,0,0,1,1.579-3.268.533.533,0,0,1,.765-.168.527.527,0,0,1,.059.756,5.682,5.682,0,0,1-.37.512,4.778,4.778,0,0,0-1.042,2.386,1.383,1.383,0,0,1-.832,1.143,1.311,1.311,0,0,1-1.756-.807,1.9,1.9,0,0,1-.092-.361,5.259,5.259,0,0,0-1.067-2.411c-.655-.857-1.285-1.739-1.907-2.621a5.336,5.336,0,1,1,9.62-3.7,5.623,5.623,0,0,1-1.294,4.117.507.507,0,1,1-.8-.613,6.11,6.11,0,0,0,.857-1.487A4.381,4.381,0,0,0,249.549,211.994Z" transform="translate(-33.042 -0.215)" fill="#544abd"/>
    <path id="Path_5183" data-name="Path 5183" d="M271.186,240.357a3.125,3.125,0,1,1,6.251-.05,3.17,3.17,0,0,1-2.915,3.134A3.13,3.13,0,0,1,271.186,240.357Zm3.117-2.134a2.113,2.113,0,1,0,2.117,2.117A2.132,2.132,0,0,0,274.3,238.223Z" transform="translate(-57.418 -24.235)" fill="#544abd"/>
    <path id="Path_5184" data-name="Path 5184" d="M365.521,428.955v-.092a1.045,1.045,0,0,0-.613-1.235,1.89,1.89,0,0,1-.748-2.445,2.026,2.026,0,0,1,3.89.773,1.931,1.931,0,0,1-1.185,1.84.476.476,0,0,0-.328.521c.017.386.008.773.008,1.159a1.3,1.3,0,0,1-.025.311.519.519,0,0,1-.529.479.5.5,0,0,1-.47-.529c-.008-.26,0-.521,0-.781Zm1.512-2.966a1.015,1.015,0,0,0-1-1.033,1.017,1.017,0,1,0,1,1.033Z" transform="translate(-142.428 -195.3)" fill="#544abd"/>
  </g>
</svg>
