<svg xmlns="http://www.w3.org/2000/svg" width="32.012" height="32" viewBox="0 0 32.012 32">
  <g id="talk" transform="translate(-145 -145)">
    <path id="Path_5223" data-name="Path 5223" d="M145,348.738a2.854,2.854,0,0,1,1.275-1.781,3.4,3.4,0,0,1,4.306.825c.819,1.075,1.694,2.112,2.531,3.175a.621.621,0,0,0,.55.269c.825-.012,1.644-.006,2.469-.006a2.085,2.085,0,0,1,2.25,2.206c.012.475.012.475.481.475,1.469,0,2.938-.006,4.406.006.275,0,.369-.081.363-.356a2.385,2.385,0,0,1,.212-1.156,2.01,2.01,0,0,1,1.881-1.175c.887-.013,1.769-.006,2.656,0a.564.564,0,0,0,.5-.244c.844-1.069,1.719-2.119,2.55-3.2a3.4,3.4,0,0,1,4.306-.825,2.838,2.838,0,0,1,1.275,1.781v9.75a3.507,3.507,0,0,1-3.762,2.825c-1.131-.044-2.269,0-3.406-.013a.487.487,0,0,0-.531.356c-.506,1.219-1.038,2.431-1.55,3.65a1.166,1.166,0,0,1-.5.619h-.5a.773.773,0,0,1-.306-1.15q.919-2.137,1.831-4.275a.871.871,0,0,1,.912-.6c1.425.019,2.856.006,4.281.006a2.034,2.034,0,0,0,2.163-2.169c-.044-1.906-.012-3.812-.012-5.719,0-.937.006-1.875-.006-2.812a1.182,1.182,0,0,0-.9-1.175,1.891,1.891,0,0,0-2.231.681c-.937,1.175-1.881,2.337-2.812,3.513a.989.989,0,0,1-.856.412c-.969-.012-1.937-.006-2.906-.006-.65,0-.863.231-.887.881-.013.331.1.4.406.394,1.612-.013,3.231-.013,4.844,0a.689.689,0,0,0,.619-.319c.488-.675.994-1.337,1.5-2a.687.687,0,0,1,.869-.3.7.7,0,0,1,.25,1.137c-.531.731-1.081,1.456-1.631,2.175a.73.73,0,0,0-.162.487c.006.675.006,1.356,0,2.031a.727.727,0,0,1-.825.825c-.731.006-1.456,0-2.187,0a1.385,1.385,0,0,0-1.55,1.119q-1.031,3.084-2.056,6.163a1.035,1.035,0,0,1-.525.7h-.5a.808.808,0,0,1-.319-1.112c.181-.556.369-1.106.556-1.656.556-1.656,1.081-3.325,1.688-4.962a2.482,2.482,0,0,1,2.137-1.6,10.513,10.513,0,0,1,1.4-.044c.769-.006.769,0,.769-.756,0-.481,0-.481-.475-.481H152.625c-.931,0-.925,0-.912.925.006.256.106.319.337.313.45-.012.894-.006,1.344,0a2.755,2.755,0,0,1,2.794,2.019q1.05,3.122,2.088,6.25a.8.8,0,0,1-.319,1.112h-.5a1.035,1.035,0,0,1-.525-.7q-1.022-3.084-2.05-6.162a1.386,1.386,0,0,0-1.55-1.113h-2.156c-.594,0-.85-.256-.856-.862q-.009-.984,0-1.969a.852.852,0,0,0-.181-.544c-.531-.694-1.05-1.4-1.575-2.1a.826.826,0,0,1-.225-.656.672.672,0,0,1,.525-.556.689.689,0,0,1,.762.306c.506.675,1.025,1.344,1.513,2.025a.7.7,0,0,0,.65.319c.95-.019,1.894-.006,2.844-.006h2.063c.119,0,.256.044.306-.138a.832.832,0,0,0-.844-1.138c-.969,0-1.937-.012-2.906.006a1.057,1.057,0,0,1-.912-.437c-.906-1.15-1.85-2.281-2.744-3.444a1.989,1.989,0,0,0-2.125-.762,1.218,1.218,0,0,0-1.05,1.212c-.006,2.95,0,5.894,0,8.844a1.687,1.687,0,0,0,.237.831,2.014,2.014,0,0,0,1.906,1.019c1.425.006,2.856.013,4.281-.006a.871.871,0,0,1,.913.6c.6,1.431,1.219,2.85,1.831,4.275a.773.773,0,0,1-.306,1.15h-.5a1.2,1.2,0,0,1-.5-.619c-.512-1.219-1.044-2.431-1.55-3.65a.487.487,0,0,0-.531-.356c-1.231.012-2.456.012-3.687.006a3.527,3.527,0,0,1-1.794-.45,3.49,3.49,0,0,1-1.687-2.369C145,355.238,145,351.988,145,348.738Z" transform="translate(0 -188.926)" fill="#544abd"/>
    <path id="Path_5224" data-name="Path 5224" d="M286.559,145a2.039,2.039,0,0,1,1.581,2.063c0,2.625.006,5.25,0,7.875a1.993,1.993,0,0,1-2.081,2.087c-1.956.006-3.919.006-5.875-.006a.943.943,0,0,0-.737.313c-.669.688-1.35,1.363-2.031,2.037a.812.812,0,0,1-.744.319.658.658,0,0,1-.575-.644q-.019-1.359,0-2.719a.669.669,0,0,1,.619-.669.681.681,0,0,1,.737.575,2.629,2.629,0,0,1,.038.494,1.541,1.541,0,0,0,.044.544c.394-.394.781-.744,1.131-1.144a1.466,1.466,0,0,1,1.212-.506c2,.019,4,.006,6,.006.669,0,.85-.181.85-.85v-7.531c0-.675-.181-.856-.85-.856H274.346c-.675,0-.856.181-.856.844v7.563c0,.588.113.719.681.856a.7.7,0,0,1,.619.763.711.711,0,0,1-.812.606,1.993,1.993,0,0,1-1.894-1.925c-.019-1.3-.006-2.606-.006-3.906,0-1.269.038-2.544-.012-3.812A2.158,2.158,0,0,1,273.659,145Z" transform="translate(-119.121)" fill="#544abd"/>
    <path id="Path_5225" data-name="Path 5225" d="M145,222.018a3.45,3.45,0,0,1,1.712-2.381,3.349,3.349,0,0,1,4.106.688,3.291,3.291,0,0,1,.137,4.344,3.187,3.187,0,0,1-3.306,1.2,3.287,3.287,0,0,1-2.587-2.513c-.019-.069-.038-.137-.056-.212C145,222.768,145,222.393,145,222.018Zm1.387.575a1.947,1.947,0,0,0,1.944,1.95,1.962,1.962,0,0,0,.006-3.925A1.942,1.942,0,0,0,146.387,222.593Z" transform="translate(0 -69.581)" fill="#544abd"/>
    <path id="Path_5226" data-name="Path 5226" d="M556.357,222.963a3.45,3.45,0,0,1-1.713,2.381,3.349,3.349,0,0,1-4.106-.687,3.291,3.291,0,0,1-.138-4.344,3.187,3.187,0,0,1,3.306-1.2,3.287,3.287,0,0,1,2.588,2.513c.019.069.037.137.056.212C556.357,222.213,556.357,222.588,556.357,222.963Zm-1.388-.575a1.951,1.951,0,0,0-1.944-1.95,1.962,1.962,0,0,0-.006,3.925A1.942,1.942,0,0,0,554.97,222.388Z" transform="translate(-379.357 -69.401)" fill="#544abd"/>
    <path id="Path_5227" data-name="Path 5227" d="M389.813,516.281c-.006-.219-.013-.437-.013-.656V507.35c0-.45,0-.45.456-.45h.688c.181,0,.275.075.262.263v8.806c0,.106-.012.206-.012.313Z" transform="translate(-229.5 -339.281)" fill="#544abd"/>
    <path id="Path_5228" data-name="Path 5228" d="M347.589,231.15c-.781-.012-.712.106-.712-.719,0-.781-.056-.687.681-.687.838,0,.719-.1.719.731C348.277,231.231,348.377,231.137,347.589,231.15Z" transform="translate(-189.258 -79.444)" fill="#544abd"/>
    <path id="Path_5229" data-name="Path 5229" d="M390.451,231.147c-.788-.006-.7.087-.7-.7,0-.806-.094-.706.719-.706.769,0,.681-.081.688.681v.031C391.144,231.234,391.244,231.135,390.451,231.147Z" transform="translate(-229.451 -79.441)" fill="#544abd"/>
    <path id="Path_5230" data-name="Path 5230" d="M433.276,231.143c-.806-.006-.7.087-.694-.694,0-.806-.113-.712.706-.712.744,0,.688-.1.694.675v.031C433.976,231.243,434.044,231.131,433.276,231.143Z" transform="translate(-269.601 -79.437)" fill="#544abd"/>
  </g>
</svg>
