<svg xmlns="http://www.w3.org/2000/svg" width="33.514" height="31.015" viewBox="0 0 33.514 31.015">
  <g id="kakaotalk-svgrepo-com" transform="translate(-6.797 -9.23)">
    <path id="Path_5132" data-name="Path 5132" d="M23.554,9.73C14.575,9.73,7.3,15.507,7.3,22.619c0,4.494,2.918,8.445,7.328,10.746l-1.467,5.886a.384.384,0,0,0,.567.425l7.328-4.352a20.008,20.008,0,0,0,2.5.167c8.979,0,16.257-5.761,16.257-12.872S32.533,9.73,23.554,9.73Z" transform="translate(0 0)" fill="none" stroke="#544abd" stroke-linecap="round" stroke-linejoin="round" stroke-width="1"/>
    <circle id="Ellipse_180" data-name="Ellipse 180" cx="2.259" cy="2.259" r="2.259" transform="translate(21.22 20.359)" fill="none" stroke="#544abd" stroke-linecap="round" stroke-linejoin="round" stroke-width="1"/>
    <circle id="Ellipse_181" data-name="Ellipse 181" cx="2.259" cy="2.259" r="2.259" transform="translate(29.34 20.359)" fill="none" stroke="#544abd" stroke-linecap="round" stroke-linejoin="round" stroke-width="1"/>
    <circle id="Ellipse_182" data-name="Ellipse 182" cx="2.259" cy="2.259" r="2.259" transform="translate(13.108 20.359)" fill="none" stroke="#544abd" stroke-linecap="round" stroke-linejoin="round" stroke-width="1"/>
  </g>
</svg>
