<svg xmlns="http://www.w3.org/2000/svg" width="36.027" height="30" viewBox="0 0 36.027 30">
  <path id="mute-svgrepo-com" d="M26.444,4.765a1.275,1.275,0,0,0-.66.185l-10,6A3.857,3.857,0,0,1,13.8,11.5H8.433a3.86,3.86,0,0,0-3.86,3.86v1.287a2.573,2.573,0,1,0,0,5.147v1.287a3.86,3.86,0,0,0,3.86,3.86H13.65a3.856,3.856,0,0,1,2.213.7l9.846,6.891a1.267,1.267,0,0,0,.733.234,1.288,1.288,0,0,0,1.291-1.289V6.053A1.286,1.286,0,0,0,26.444,4.765ZM3.287,19.221a1.289,1.289,0,0,1,1.287-1.287v2.573A1.289,1.289,0,0,1,3.287,19.221Zm23.16,14.255L16.6,26.584a5.123,5.123,0,0,0-2.952-.93H8.433A2.576,2.576,0,0,1,5.86,23.081v-7.72a2.576,2.576,0,0,1,2.573-2.573H13.8a5.148,5.148,0,0,0,2.648-.733l10-6ZM37.839,21.982a.644.644,0,0,1-.911.911L34.167,20.13l-2.761,2.761a.643.643,0,1,1-.911-.908l2.762-2.762L30.5,16.46a.643.643,0,0,1,.91-.91l2.761,2.761,2.761-2.761a.643.643,0,0,1,.91.91l-2.761,2.761Z" transform="translate(-2 -4.765)" fill="#544abd"/>
</svg>
