<svg xmlns="http://www.w3.org/2000/svg" width="30.663" height="32" viewBox="0 0 30.663 32">
  <g id="crossword" transform="translate(-216.684 -208.999)">
    <path id="Path_5157" data-name="Path 5157" d="M218.02,338.985a1.876,1.876,0,0,1-1.159-.976,1.945,1.945,0,0,1-.175-.817v-20.6a1.081,1.081,0,0,1,.017-.284.471.471,0,0,1,.484-.409.447.447,0,0,1,.475.375,3.073,3.073,0,0,1,.042.617v19.915c0,.142,0,.292.008.434a.713.713,0,0,0,.625.742,2.532,2.532,0,0,0,.434.033h19.54a2.108,2.108,0,0,0,.4-.025.72.72,0,0,0,.659-.776c.008-.642,0-1.293,0-1.935v-4.837a1.462,1.462,0,0,1,.05-.467.5.5,0,0,1,.959.058,1.858,1.858,0,0,1,.017.375c0,2.177-.017,4.345.008,6.522a1.916,1.916,0,0,1-1.334,2.043Q228.536,338.989,218.02,338.985Z" transform="translate(0 -97.985)" fill="#544abd"/>
    <path id="Path_5158" data-name="Path 5158" d="M255.746,244.417h-4.529c-.55,0-.717-.158-.717-.7v-2.994c0-.534.183-.709.717-.709.792,0,1.585-.008,2.369,0,.259,0,.342-.083.342-.342-.008-1.9-.008-3.811-.008-5.713,0-.625.133-.759.776-.759h2.9c.567,0,.726.158.726.717v5.646c0,.434,0,.434.417.434.542,0,1.084-.008,1.626.008.267.008.367-.067.359-.35-.017-.792-.008-1.585-.008-2.369,0-.5.167-.684.667-.692,1.026-.008,2.06-.008,3.086,0,.484.008.651.2.651.684,0,.784.008,1.56-.008,2.343-.008.292.075.4.384.392.767-.017,1.543-.008,2.31-.008.55,0,.734.183.734.726v2.961c0,.55-.167.709-.709.709-.792,0-1.585.008-2.368,0-.25,0-.359.058-.35.334q.025.876,0,1.751c-.008.267.1.334.35.334.784-.008,1.56-.008,2.343,0,.55,0,.734.183.734.734v2.961c0,.55-.167.709-.709.709h-2.277c-.434,0-.434,0-.434.45v2.31c0,.484-.175.659-.659.659h-3.086c-.475,0-.65-.183-.659-.667,0-.792-.017-1.585.008-2.369.008-.292-.075-.392-.384-.392-1.9.017-3.811.008-5.713.008-.592,0-.717-.125-.717-.709v-2.961c0-.575.158-.734.751-.734h5.646c.409,0,.409,0,.409-.417,0-.55-.008-1.1.008-1.651.008-.267-.092-.334-.342-.334C258.848,244.425,257.3,244.417,255.746,244.417Zm3.786,5.821c.3,0,.6-.008.9,0,.208.008.3-.05.3-.284-.008-.617-.008-1.226,0-1.843,0-.225-.083-.292-.3-.284-.6.008-1.209.008-1.81,0-.208,0-.3.058-.3.284.008.617.008,1.226,0,1.843,0,.225.083.292.3.284C258.932,250.23,259.232,250.238,259.532,250.238Zm-6.78-9.207c-.309,0-.625.008-.934,0-.192,0-.292.05-.292.267q.012.951,0,1.9c0,.175.075.242.242.242.642-.008,1.293,0,1.935,0,.158,0,.225-.067.225-.225v-1.935c0-.175-.075-.242-.242-.242C253.377,241.039,253.06,241.031,252.752,241.031Zm7.981,1.234c0-.309-.008-.625,0-.934.008-.208-.058-.309-.284-.3-.617.008-1.226.008-1.843,0-.192,0-.284.067-.284.275.008.625.008,1.251,0,1.868,0,.183.058.267.25.267q.951-.013,1.9,0c.2,0,.25-.092.25-.267C260.725,242.874,260.733,242.566,260.733,242.265Zm6.805-.05v-.934c0-.175-.075-.242-.242-.242h-1.9c-.192,0-.259.083-.259.267q.012.951,0,1.9c0,.175.075.242.242.242q.951-.012,1.9,0c.192,0,.259-.075.259-.259C267.53,242.858,267.538,242.532,267.538,242.215Zm-1.2,8.023c.3,0,.6-.008.9,0,.208.008.309-.05.3-.275-.008-.617-.008-1.226,0-1.843,0-.225-.083-.292-.3-.284-.6.008-1.209.008-1.81,0-.208,0-.3.058-.3.284.008.617.008,1.226,0,1.843,0,.225.083.292.3.284C265.737,250.23,266.037,250.238,266.337,250.238Zm-9.024-7.965c0-.325-.008-.642,0-.967.008-.2-.083-.275-.275-.275q-.9.013-1.8,0c-.192,0-.292.067-.292.267,0,.625.008,1.243,0,1.868,0,.2.083.275.284.275q.9-.013,1.8,0c.225,0,.292-.092.284-.3C257.305,242.858,257.314,242.566,257.314,242.274Zm5.6,1.159c.3,0,.6-.008.909,0,.208.008.309-.058.3-.284-.008-.617-.008-1.226,0-1.843,0-.192-.067-.284-.275-.284-.6.008-1.209.008-1.81,0-.192,0-.292.067-.284.267q.013.938,0,1.876c0,.208.1.267.292.267Zm-5.6-4.6v-.967c0-.183-.075-.259-.259-.259-.617.008-1.226.008-1.843,0-.183,0-.267.067-.267.25v1.9c0,.167.075.242.25.242.625,0,1.251-.008,1.868,0,.192,0,.25-.092.25-.275C257.305,239.438,257.314,239.138,257.314,238.838Zm6.805,6.789v-.934c0-.175-.05-.275-.25-.267-.625.008-1.251.008-1.868,0-.175,0-.25.067-.25.242v1.9c0,.183.083.259.267.259.617-.008,1.226-.008,1.843,0,.183,0,.267-.075.267-.259C264.119,246.244,264.119,245.935,264.119,245.626Zm-6.805,3.419v-.934c0-.175-.058-.267-.25-.267-.617.008-1.226.008-1.843,0-.2,0-.275.083-.275.284.008.617.008,1.226,0,1.843,0,.192.067.284.275.284.6-.008,1.209-.008,1.81,0,.225,0,.292-.083.292-.292C257.305,249.646,257.314,249.346,257.314,249.046Zm6.805-10.233v-.934c0-.183-.067-.267-.259-.267-.617.008-1.226.008-1.843,0-.208,0-.275.083-.275.284.008.617.008,1.226,0,1.843,0,.192.067.284.275.284.6-.008,1.209-.008,1.81,0,.217,0,.292-.092.292-.3C264.111,239.413,264.119,239.113,264.119,238.813Zm-1.151,9.032H262c-.167,0-.25.075-.25.242v1.935c0,.158.075.225.234.225h1.9c.158,0,.233-.067.233-.225v-1.935c0-.167-.075-.242-.25-.242Zm1.151,4.587V251.5c0-.175-.05-.275-.25-.275-.625.008-1.251.008-1.868,0-.192,0-.25.092-.25.267v1.868c0,.183.075.267.259.259.617,0,1.226-.008,1.843,0,.208,0,.275-.1.267-.292Zm-7.981-18.206c-.3,0-.6.008-.9,0-.192,0-.292.067-.292.267v1.835a.232.232,0,0,0,.267.267h1.835c.175,0,.267-.067.267-.259v-1.868c0-.192-.1-.25-.275-.25C256.738,234.234,256.438,234.226,256.138,234.226Z" transform="translate(-30.996 -22.182)" fill="#544abd"/>
    <path id="Path_5159" data-name="Path 5159" d="M511.772,252.918v-7.956a.591.591,0,0,0-.225-.575l-.025-.025a2.427,2.427,0,0,1,.075-2.427.492.492,0,0,0,.167-.409c-.008-.7-.008-1.393,0-2.093a1.766,1.766,0,0,1,1.768-1.8q.751-.012,1.5,0a1.766,1.766,0,0,1,1.768,1.8c.008.684.008,1.376,0,2.06a.478.478,0,0,0,.192.459.1.1,0,0,1,.042.042,2.406,2.406,0,0,1-.067,2.427.539.539,0,0,0-.175.442c.008.534.008,1.059,0,1.593,0,.375-.183.609-.475.617s-.517-.225-.534-.609c-.017-.475-.017-.959-.008-1.434.008-.242-.083-.334-.325-.325-.767.008-.659-.05-.659.642V259.64a2.813,2.813,0,0,1-.008.375.54.54,0,0,1-.5.542.533.533,0,0,1-.509-.534c-.008-.125-.008-.25-.008-.375V245.2c0-.158.092-.384-.092-.45a1.378,1.378,0,0,0-.8,0c-.075.017-.083.108-.092.183,0,.092-.008.183-.008.284q0,7.693-.008,15.387a1.43,1.43,0,0,0,.367,1.051c.325.359.617.759.917,1.143.159.2.284.2.442,0,.359-.459.726-.909,1.093-1.359a1.1,1.1,0,0,0,.183-.767V249.182a2.871,2.871,0,0,1,.025-.467.493.493,0,0,1,.984.05c.008.092.008.183.008.284,0,3.895-.008,7.781.008,11.676a2.068,2.068,0,0,1-.517,1.459,17.845,17.845,0,0,1-1.409,1.66.315.315,0,0,0-.083.225c0,.1,0,.208-.008.309a.518.518,0,0,1-.5.5.486.486,0,0,1-.5-.5,1.076,1.076,0,0,0-.342-.776c-.492-.534-.926-1.118-1.368-1.7a1.73,1.73,0,0,1-.309-1.093C511.772,258.181,511.772,255.554,511.772,252.918Zm2.494-11.234c.417,0,.834-.008,1.251,0,.183,0,.267-.067.267-.25-.008-.7.008-1.393-.008-2.093a.662.662,0,0,0-.675-.676q-.813-.025-1.626,0a.662.662,0,0,0-.676.676c-.017.7-.008,1.393-.008,2.093,0,.183.083.259.267.259C513.456,241.684,513.865,241.684,514.265,241.684Zm-.008.984h-1.343c-.742.008-.651-.092-.667.667-.008.267.067.367.35.359,1.009-.017,2.018,0,3.019-.008.726-.008.659.117.676-.692,0-.242-.075-.334-.325-.334C515.4,242.677,514.824,242.669,514.257,242.669Z" transform="translate(-269.984 -26.238)" fill="#544abd"/>
    <path id="Path_5160" data-name="Path 5160" d="M228.636,209.016c3.311,0,6.613.025,9.924-.017a1.87,1.87,0,0,1,1.918,1.91c-.017,6.272-.008,12.543-.008,18.815a1.278,1.278,0,0,1-.017.309.477.477,0,0,1-.475.417.468.468,0,0,1-.484-.367,1.6,1.6,0,0,1-.042-.525V211.176c0-.142,0-.292-.008-.434a.7.7,0,0,0-.575-.709,1.866,1.866,0,0,0-.525-.042H218.9a2.871,2.871,0,0,0-.467.025.707.707,0,0,0-.642.759c-.008.709-.008,1.418-.008,2.118v2.936a2.2,2.2,0,0,1-.05.525.443.443,0,0,1-.484.359.463.463,0,0,1-.467-.417,1.588,1.588,0,0,1-.008-.284v-5.146a1.74,1.74,0,0,1,1.851-1.86C221.956,209.016,225.3,209.016,228.636,209.016Z" transform="translate(-0.083)" fill="#544abd"/>
    <path id="Path_5161" data-name="Path 5161" d="M282.582,532.659h1.593c.367,0,.6.2.609.484.008.3-.234.525-.609.534q-1.589.012-3.177,0c-.4,0-.609-.2-.6-.525.008-.309.225-.492.634-.492C281.548,532.651,282.065,532.659,282.582,532.659Z" transform="translate(-58.4 -296.664)" fill="#544abd"/>
    <path id="Path_5162" data-name="Path 5162" d="M426.282,532.677h1.593c.375,0,.6.183.609.484s-.234.525-.609.534q-1.589.013-3.177,0c-.4,0-.609-.2-.6-.517s.225-.492.625-.492C425.24,532.669,425.757,532.677,426.282,532.677Z" transform="translate(-190.115 -296.682)" fill="#544abd"/>
    <path id="Path_5163" data-name="Path 5163" d="M282.5,557.749h-1.593c-.384,0-.6-.175-.617-.475-.017-.317.2-.534.584-.542,1.068-.008,2.143-.008,3.211,0a.54.54,0,0,1,.592.517c0,.292-.234.492-.6.5Z" transform="translate(-58.301 -318.726)" fill="#544abd"/>
    <path id="Path_5164" data-name="Path 5164" d="M426.182,557.749h-1.56c-.4,0-.617-.183-.625-.5s.2-.517.609-.517q1.589-.012,3.177,0a.537.537,0,0,1,.6.509c.008.309-.234.509-.617.509Z" transform="translate(-190.024 -318.726)" fill="#544abd"/>
    <path id="Path_5165" data-name="Path 5165" d="M282.566,509.676h-1.56c-.409,0-.617-.167-.609-.492s.2-.484.592-.484H284.2c.367,0,.592.2.592.5s-.233.475-.609.484C283.642,509.676,283.1,509.676,282.566,509.676Z" transform="translate(-58.4 -274.706)" fill="#544abd"/>
    <path id="Path_5166" data-name="Path 5166" d="M426.282,509.676h-1.618c-.367,0-.559-.167-.567-.475s.192-.5.575-.5h3.211c.375,0,.6.192.609.484s-.234.5-.617.5C427.333,509.676,426.808,509.676,426.282,509.676Z" transform="translate(-190.115 -274.706)" fill="#544abd"/>
    <path id="Path_5167" data-name="Path 5167" d="M242.016,532.659c.2,0,.392-.008.592,0a.521.521,0,0,1,.542.484.513.513,0,0,1-.517.517,12.373,12.373,0,0,1-1.243,0,.5.5,0,1,1,.033-1C241.615,532.651,241.815,532.659,242.016,532.659Z" transform="translate(-22.186 -296.664)" fill="#544abd"/>
    <path id="Path_5168" data-name="Path 5168" d="M385.726,532.608c.208,0,.417-.008.625,0a.5.5,0,0,1,.05.992,11.868,11.868,0,0,1-1.334,0,.5.5,0,0,1-.467-.5.524.524,0,0,1,.5-.5h.058c.192.008.375.008.567.008Z" transform="translate(-153.912 -296.613)" fill="#544abd"/>
    <path id="Path_5169" data-name="Path 5169" d="M242.01,557.68c-.208,0-.417.008-.625,0a.516.516,0,0,1-.509-.459.494.494,0,0,1,.459-.534,5.948,5.948,0,0,1,1.334,0,.512.512,0,0,1,.467.534.523.523,0,0,1-.534.467h-.058c-.183-.008-.359-.008-.534-.008Z" transform="translate(-22.172 -318.657)" fill="#544abd"/>
    <path id="Path_5170" data-name="Path 5170" d="M385.631,557.622c-.208,0-.417.008-.625,0a.5.5,0,0,1-.05-1,6.487,6.487,0,0,1,1.334,0,.507.507,0,0,1,.467.534.517.517,0,0,1-.534.467c-.192.008-.392,0-.592,0Z" transform="translate(-153.817 -318.599)" fill="#544abd"/>
    <path id="Path_5171" data-name="Path 5171" d="M242.015,509.607c-.208,0-.417.008-.625,0a.488.488,0,1,1-.008-.976q.638-.012,1.276,0a.488.488,0,1,1,.008.976C242.449,509.615,242.232,509.607,242.015,509.607Z" transform="translate(-22.194 -274.637)" fill="#544abd"/>
    <path id="Path_5172" data-name="Path 5172" d="M385.707,509.607c-.208,0-.417.008-.625,0a.488.488,0,1,1,.008-.976q.638-.012,1.276,0a.488.488,0,0,1,.484.475.494.494,0,0,1-.492.5C386.14,509.615,385.923,509.607,385.707,509.607Z" transform="translate(-153.909 -274.637)" fill="#544abd"/>
  </g>
</svg>
