<svg id="hyper" xmlns="http://www.w3.org/2000/svg" width="32" height="32" viewBox="0 0 32 32">
  <g id="Group_3887" data-name="Group 3887" transform="translate(4.631 7.9)">
    <g id="Group_3886" data-name="Group 3886">
      <path id="Path_5210" data-name="Path 5210" d="M77.717,126.4a3.626,3.626,0,0,0-3.622,3.622.572.572,0,0,0,1.144,0,2.478,2.478,0,1,1,4.957,0,.572.572,0,0,0,1.144,0A3.626,3.626,0,0,0,77.717,126.4Z" transform="translate(-74.095 -126.404)" fill="#544abd"/>
    </g>
  </g>
  <g id="Group_3889" data-name="Group 3889" transform="translate(20.125 7.9)">
    <g id="Group_3888" data-name="Group 3888">
      <path id="Path_5211" data-name="Path 5211" d="M325.619,126.4A3.626,3.626,0,0,0,322,130.027a.572.572,0,1,0,1.144,0,2.478,2.478,0,0,1,4.957,0,.572.572,0,1,0,1.144,0A3.626,3.626,0,0,0,325.619,126.4Z" transform="translate(-321.997 -126.405)" fill="#544abd"/>
    </g>
  </g>
  <g id="Group_3891" data-name="Group 3891" transform="translate(8.098 12.885)">
    <g id="Group_3890" data-name="Group 3890">
      <path id="Path_5212" data-name="Path 5212" d="M145.02,206.207a.572.572,0,0,0-.623.124,9.793,9.793,0,0,1-13.851,0,.572.572,0,0,0-.976.4v3.545a7.9,7.9,0,0,0,12.879,6.137,7.907,7.907,0,0,0,2.925-6.137v-3.545A.572.572,0,0,0,145.02,206.207Zm-7.548,10.831a6.773,6.773,0,0,1-3.841-1.2,2.553,2.553,0,0,1,3.5-.432.572.572,0,0,0,.683,0,2.553,2.553,0,0,1,3.5.432A6.772,6.772,0,0,1,137.471,217.038Zm4.777-1.979-.053.052a3.7,3.7,0,0,0-4.724-.848,3.7,3.7,0,0,0-4.724.848,6.719,6.719,0,0,1-2.022-4.424,10.958,10.958,0,0,0,13.49,0A6.706,6.706,0,0,1,142.248,215.059Zm1.98-5.892a9.807,9.807,0,0,1-13.516,0v-1.159a10.944,10.944,0,0,0,13.516,0v1.159Z" transform="translate(-129.569 -206.164)" fill="#544abd"/>
    </g>
  </g>
  <g id="Group_3893" data-name="Group 3893">
    <g id="Group_3892" data-name="Group 3892">
      <path id="Path_5213" data-name="Path 5213" d="M16,0A16,16,0,1,0,32,16,16.018,16.018,0,0,0,16,0Zm0,30.856A14.856,14.856,0,1,1,30.856,16,14.873,14.873,0,0,1,16,30.856Z" fill="#544abd"/>
    </g>
  </g>
</svg>
