<svg xmlns="http://www.w3.org/2000/svg" width="33.108" height="32" viewBox="0 0 33.108 32">
  <g id="meet" transform="translate(-231.5 -238.099)">
    <path id="Path_5220" data-name="Path 5220" d="M243.407,294.694c.53-1.079,1.059-2.07,1.52-3.09a1.076,1.076,0,0,1,1.167-.716c1.089.039,2.178.01,3.276.01.775,0,.981.324.638,1.01-.618,1.246-1.236,2.491-1.864,3.727a.77.77,0,0,0-.069.687,1.371,1.371,0,0,1,.049.745c-.02.088-.078.2.029.265a.274.274,0,0,0,.275.01c.128-.049.059-.167.049-.255a1.576,1.576,0,0,1,1.717-1.883c.824,0,1.658-.01,2.482,0a.53.53,0,0,0,.52-.294c.4-.706.824-1.4,1.236-2.109a2.738,2.738,0,0,1,2.629-1.481c.922.029,1.844.01,2.766.01a1.583,1.583,0,0,1,1.756,1.726c.02,1.295.02,2.589.01,3.884,0,.324.088.471.422.432a4.255,4.255,0,0,1,.5,0,2,2,0,0,1,2.089,2.04c.01.284,0,.579,0,.863v14.419a2.5,2.5,0,0,1-.039.539.455.455,0,0,1-.49.383.469.469,0,0,1-.481-.4,1.756,1.756,0,0,1-.02-.392c0-1.344-.01-2.688.01-4.031,0-.324-.088-.432-.422-.432-1.236.02-2.472.01-3.708,0-.275,0-.383.078-.383.363.01,1.01.01,2.011,0,3.021a.55.55,0,0,0,.245.481c1.059.785,2.109,1.589,3.158,2.383a1.907,1.907,0,0,1,.3.255.457.457,0,0,1,.039.628.462.462,0,0,1-.638.147,2.047,2.047,0,0,1-.383-.265c-.971-.726-1.942-1.452-2.894-2.2a.484.484,0,0,0-.716.01c-.932.726-1.883,1.442-2.835,2.158-.118.088-.226.177-.353.255a.492.492,0,0,1-.726-.108.478.478,0,0,1,.137-.7c.49-.383.991-.755,1.491-1.138.618-.471,1.236-.942,1.864-1.4a.552.552,0,0,0,.265-.51c-.01-1.01-.01-2.011,0-3.021,0-.265-.088-.383-.353-.353a1.375,1.375,0,0,1-.284,0,.626.626,0,0,0-.765.471,1.715,1.715,0,0,1-2.952.314c-.01-.01-.02-.02-.02-.029-.255-.716-.8-.775-1.481-.775-2.6.039-5.2.02-7.808.01a.5.5,0,0,0-.559.373,1.7,1.7,0,0,1-1.658,1.2,1.789,1.789,0,0,1-1.677-1.334.27.27,0,0,0-.3-.226c-.608,0-1.226.01-1.834,0-.2,0-.275.088-.275.284,0,1.059.01,2.109,0,3.168a.513.513,0,0,0,.275.432l3.129,2.364c.049.039.1.069.147.108.324.265.4.549.2.795s-.481.255-.794.02c-1.05-.785-2.089-1.569-3.129-2.364a.448.448,0,0,0-.657,0c-.922.726-1.873,1.422-2.805,2.128-.118.088-.226.177-.343.255-.314.216-.589.2-.765-.029a.514.514,0,0,1,.157-.775c.569-.441,1.148-.873,1.717-1.3.539-.4,1.069-.814,1.609-1.206a.529.529,0,0,0,.245-.481c-.01-1.01-.01-2.011,0-3.021,0-.255-.078-.363-.353-.363-1.275.01-2.54.01-3.816,0-.275,0-.343.108-.343.363.01,1.363,0,2.737,0,4.1a2.083,2.083,0,0,1-.029.432.442.442,0,0,1-.471.363.451.451,0,0,1-.481-.353,1.549,1.549,0,0,1-.049-.422V299.539a2,2,0,0,1,2.168-2.148c.314,0,.628-.01.932,0,.275.02.353-.1.353-.363q-.015-1.457,0-2.913a2.573,2.573,0,0,1,2.766-2.756,21.591,21.591,0,0,1,2.874.059,1.7,1.7,0,0,1,1.275.844c.422.7.853,1.383,1.285,2.079A3.1,3.1,0,0,1,243.407,294.694Zm4.335,3.649H242.6c-1,0-.961,0-1.01.991a2.083,2.083,0,0,0,.687,1.7c.4.392.8.785,1.216,1.177a11.225,11.225,0,0,1,1.854,2,1.93,1.93,0,0,1,.206,1.844c-.383.991-.726,2-1.1,3-.088.235-.059.314.216.314q3.8-.015,7.592,0c.314,0,.314-.1.167-.324-.363-.589-.716-1.187-1.079-1.785a2.235,2.235,0,0,1-.373-1.746,1.03,1.03,0,0,0-.235-1.01,1.612,1.612,0,0,1,.324-2.452c.814-.628,1.628-1.265,2.452-1.893a.381.381,0,0,0,.177-.481,1.261,1.261,0,0,1,.049-.981c.167-.343.029-.363-.265-.363C251.558,298.352,249.656,298.342,247.743,298.342Zm-11.751-1.177h0c0,1.059,0,2.109.01,3.168a9.1,9.1,0,0,0,.245,1.775.5.5,0,0,0,.589.471c.618-.029,1.246-.02,1.873,0a2.387,2.387,0,0,1,1.736.726c.6.638,1.226,1.246,1.854,1.854a1.371,1.371,0,0,1,.373,1.628c-.4,1.01-.755,2.04-1.128,3.07a.693.693,0,0,0,.353.961c.451.206.824.029,1.03-.52.559-1.52,1.108-3.041,1.667-4.551a1.061,1.061,0,0,0-.137-1.049,8.054,8.054,0,0,0-1.138-1.246,22.042,22.042,0,0,1-2.05-2.011,2.5,2.5,0,0,1-.687-1.55c-.01-1.069,0-2.128,0-3.2a.58.58,0,0,1,.314-.6.558.558,0,0,1,.628.137c.412.324.824.657,1.236.981a.508.508,0,0,0,.314.157c1.177,0,2.344.01,3.521-.01a.548.548,0,0,0,.51-.745c-.108-.363-.422-.4-.726-.4-.883-.01-1.775-.02-2.658,0a.913.913,0,0,1-.9-.5c-.559-.951-1.167-1.873-1.726-2.815a.968.968,0,0,0-.912-.52c-.873,0-1.746-.01-2.629,0a1.475,1.475,0,0,0-1.55,1.56C235.992,295.007,235.992,296.086,235.992,297.165Zm24.59-1.56h-.02v-2.442c0-.687-.118-.8-.785-.8-.951,0-1.893.029-2.844-.01a1.654,1.654,0,0,0-1.589.912c-.422.706-.893,1.4-1.246,2.138a1.261,1.261,0,0,1-1.412.794c-.834-.059-1.677-.02-2.521-.01-.432.01-.687.245-.677.589a.576.576,0,0,0,.618.569c1.354.01,2.707,0,4.061.01.206,0,.275-.088.275-.284-.01-.363-.01-.716,0-1.079a.513.513,0,0,1,.53-.559q.9-.029,1.795,0c.343.01.51.206.52.569.01.314-.01.628.01.932.01.147-.118.392.186.412.481.02.687-.118.7-.451.01-.49,0-.981,0-1.471,0-.432.2-.7.5-.7s.52.255.53.687c.01.549.01,1.1,0,1.658a1.047,1.047,0,0,1-1.04,1.206c-1.03.167-2.05.343-3.08.5a.475.475,0,0,0-.451.51.5.5,0,0,0,.481.53,2.138,2.138,0,0,0,.5-.02c1.393-.186,2.766-.432,4.149-.687.608-.118.8-.333.8-.971C260.582,297.283,260.582,296.449,260.582,295.606Zm-1.206,6.856c.01.029.01.069.02.1h.412a12.745,12.745,0,0,1,1.618.039,1.144,1.144,0,0,1,.981.971,5.892,5.892,0,0,1,.02,1.609,1.2,1.2,0,0,1-1.295,1.128c-.549.01-1.1.01-1.658,0-.294-.01-.4.088-.4.392q.029,1.133,0,2.266c-.01.314.088.412.412.412,1.226-.02,2.442-.02,3.668,0,.353.01.441-.118.441-.451-.01-3.129-.01-6.248-.01-9.377V299.4a.966.966,0,0,0-.893-1.03,6.99,6.99,0,0,0-.785-.029.271.271,0,0,0-.324.255,1.48,1.48,0,0,1-.363.8,1.154,1.154,0,0,0-.333,1.04c.01.118-.01.235,0,.363a.8.8,0,0,1-.363.736C260.131,301.834,259.758,302.148,259.376,302.462Zm-26.827,1.707v4.816c0,.265.049.392.353.383,1.265-.01,2.54-.01,3.806,0,.245,0,.343-.078.343-.333-.01-.795-.01-1.579,0-2.374,0-.265-.088-.363-.353-.363-.579.01-1.148.01-1.726,0a1.2,1.2,0,0,1-1.265-1.128,9.2,9.2,0,0,1-.029-1.04c0-1.069.314-1.442,1.373-1.589.157-.02.255-.049.206-.235a14.154,14.154,0,0,1-.294-3.639c0-.245-.078-.353-.333-.343-.314.01-.618,0-.932.01a1.027,1.027,0,0,0-1.148,1.187C232.539,301.079,232.549,302.629,232.549,304.169Zm19.411,1.746a1.125,1.125,0,0,0,.177.7c.765,1.275,1.53,2.54,2.305,3.816a.734.734,0,0,0,.539.383.723.723,0,0,0,.706-1.108c-.549-.912-1.108-1.824-1.648-2.737a1.223,1.223,0,0,1,.324-1.795c1.334-1.069,2.678-2.138,4.012-3.207.441-.353.883-.706,1.314-1.059a.545.545,0,0,0,.118-.657c-.069-.2-.275-.039-.412-.029-.177.01-.353.069-.53.078a3.573,3.573,0,0,0-2.168.971c-1.344,1.206-2.756,2.344-4.149,3.5A1.357,1.357,0,0,0,251.961,305.915Zm-13.879,1.932c0,.383.01.765,0,1.148-.01.275.078.383.363.383.618-.02,1.246-.02,1.864,0a.393.393,0,0,0,.441-.314c.314-.883.638-1.756.961-2.629a1.127,1.127,0,0,0,.059-.167c.039-.275-.177-.412-.343-.549-.2-.157-.216.108-.3.2a1.317,1.317,0,0,1-1,.4c-.579,0-1.148.01-1.717,0-.226,0-.324.078-.324.314C238.091,307.033,238.081,307.445,238.081,307.847Zm9.289-15.919c-.373,0-.745.01-1.118,0a.45.45,0,0,0-.481.284c-.441.9-.893,1.8-1.354,2.7-.137.255-.049.294.2.294a19.616,19.616,0,0,1,2.4.049c.157.02.216-.078.265-.186.481-.951.951-1.913,1.432-2.864.1-.206.059-.284-.167-.284C248.165,291.937,247.762,291.928,247.37,291.928Zm-9.809,13.35h2.4c.157,0,.363.059.422-.167a.558.558,0,0,0-.118-.569c-.226-.216-.441-.441-.667-.657a1.026,1.026,0,0,0-.716-.294c-1.275-.01-2.56,0-3.835-.01a.308.308,0,0,0-.353.353c0,.314.01.618,0,.932s.118.422.422.412C235.943,305.267,236.757,305.277,237.561,305.277Zm18.293,0h5.336c.186,0,.235-.137.235-.294,0-.324-.01-.647,0-.971s-.128-.422-.432-.422c-.932.01-1.864,0-2.8,0a.452.452,0,0,0-.314.069C257.238,304.169,256.59,304.689,255.855,305.277Zm2.187,2.58c0-.392-.01-.795,0-1.187.01-.265-.088-.363-.353-.353-.559.01-1.128,0-1.687,0a1.446,1.446,0,0,1-.726-.177c-.128-.069-.235-.245-.4-.069-.157.157-.029.294.049.422.4.677.814,1.354,1.226,2.03.53.893.53.893,1.56.853h.039c.216.02.3-.078.3-.294C258.042,308.671,258.042,308.259,258.042,307.857Zm-2.511-6.935a5.11,5.11,0,0,1-.922-.186c-.137-.049-.226.029-.324.108-.883.687-1.766,1.363-2.639,2.05a.615.615,0,0,0-.147.961c.147.226.255.255.471.069.726-.628,1.461-1.236,2.2-1.854C254.619,301.7,255.07,301.3,255.531,300.922Zm-.049-3.943a2.037,2.037,0,0,1,0,.245c-.029.284.088.392.383.353.432-.049.451-.069.451-.618,0-.5-.01-.49-.49-.5C255.364,296.449,255.511,296.773,255.482,296.979Z" transform="translate(0 -47.609)" fill="#544abd"/>
    <path id="Path_5221" data-name="Path 5221" d="M476.73,238.1a2.5,2.5,0,1,1-.049,5,2.525,2.525,0,0,1-2.482-2.55A2.483,2.483,0,0,1,476.73,238.1Zm1.442,2.511a1.471,1.471,0,1,0-2.943-.029,1.471,1.471,0,1,0,2.943.029Z" transform="translate(-218.894 0)" fill="#544abd"/>
    <path id="Path_5222" data-name="Path 5222" d="M283.5,240.61a2.477,2.477,0,0,1-2.521,2.491,2.538,2.538,0,0,1-2.482-2.521,2.51,2.51,0,0,1,2.54-2.482A2.468,2.468,0,0,1,283.5,240.61Zm-2.491,1.461a1.5,1.5,0,0,0,1.511-1.461,1.516,1.516,0,0,0-1.511-1.5,1.459,1.459,0,0,0-1.461,1.491A1.425,1.425,0,0,0,281.01,242.072Z" transform="translate(-42.39 0)" fill="#544abd"/>
  </g>
</svg>
